<svg width="110" height="110" viewBox="0 0 110 110" fill="none" xmlns="http://www.w3.org/2000/svg">
<path d="M100 55.014C100 79.806 79.778 100.028 54.986 100.028C42.52 100.028 31.163 94.903 23.13 86.732L30.055 79.806C36.426 86.038 45.29 90.055 54.986 90.055C74.377 90.055 90.027 74.405 90.027 55.014C90.027 35.623 74.377 19.972 54.986 19.972C37.949 19.972 23.684 31.745 20.498 47.811L31.717 46.149L15.789 68.448L0 46.149L10.526 47.672C13.85 26.205 32.41 10 54.986 10C79.778 10 100 30.083 100 55.014Z" fill="#359E75"/>
<path d="M71.468 40.3321C77.285 37.8391 81.163 46.8421 75.485 49.4741L57.48 56.6761L53.74 66.7861C51.524 73.1571 42.383 69.0031 44.46 63.3241L48.753 51.4121C49.307 50.1651 50 49.1961 51.108 48.7801L71.468 40.3321Z" fill="#359E75"/>
</svg>
