<svg width="2013" height="617" viewBox="0 0 2013 617" fill="none" xmlns="http://www.w3.org/2000/svg">
<path d="M946.731 208.277C948.7 206.178 950.614 204.42 952.849 202.542C953.882 201.334 954.593 200.246 955.661 199.015C958.806 198.55 961.595 198.227 964.806 197.882C969.183 197.195 973.136 196.529 977.455 195.832C979.312 195.248 980.835 194.764 982.292 194.129C987.755 191.748 993.198 189.318 998.949 187.089C1004.74 187.908 1010.06 188.031 1015.02 184.725C1021.83 180.188 1029.19 176.976 1037.85 177.123C1038.09 177.14 1038.51 176.95 1038.92 176.902C1040.7 176.765 1042.07 176.675 1043.77 176.659C1044.55 176.66 1044.99 176.588 1045.84 176.596C1047.6 176.755 1048.96 176.834 1050.71 177.041C1053.34 177.512 1055.63 178.286 1057.82 178.09C1060.55 177.846 1063.2 176.799 1065.79 175.845C1065.77 174.54 1065.84 173.49 1066.28 172.26C1071.61 171.131 1076.57 170.181 1081.91 169.24C1087.16 167.954 1092.29 167.271 1096.8 165.231C1104.71 161.663 1112.23 157.263 1120.24 153.077C1124.54 149.607 1128.51 146.27 1132.64 143.11C1133.03 143.5 1133.27 143.697 1133.44 144.218C1127.93 158.537 1114.79 163.94 1103.2 171.825C1111.45 175.011 1119.61 178.038 1128.02 179.958C1134.25 181.381 1140.89 182.261 1147.22 181.754C1154.23 181.193 1161.08 178.727 1168.03 177.185C1176.03 175.407 1184.06 173.73 1192.08 172.013C1196.46 171.074 1201.25 170.961 1205.12 169.004C1210.12 166.468 1214.84 166.177 1220.14 166.958C1229.95 168.404 1239.38 167.146 1248.31 161.54C1251.5 160.616 1254.29 159.744 1257.08 159.1C1261.52 158.12 1265.94 156.914 1270.62 155.69C1271.05 155.637 1271.22 155.602 1271.72 155.614C1272.65 155.41 1273.24 155.159 1273.97 154.89C1274.1 154.872 1274.32 154.707 1274.71 154.725C1276.11 154.63 1277.12 154.517 1278.54 154.359L1278.58 154.354C1280.01 154.188 1281.05 154.065 1282.49 154.058C1286.26 153.725 1289.64 153.275 1293.41 152.804C1297.1 152.41 1300.38 152.039 1303.95 151.791C1308.61 152.179 1312.97 152.444 1317.57 152.874C1318.94 153.014 1320.06 152.989 1321.43 152.903C1321.85 152.801 1322.02 152.76 1322.37 152.461C1322.8 151.416 1323.06 150.629 1323.61 149.86C1329.67 149.311 1322.17 146.223 1324.72 144.688L1330.72 143.293C1329.33 142.34 1328.61 141.841 1328.06 141.014C1329.28 140.05 1330.32 139.415 1331.72 138.732L1332.53 138.606C1338.4 137.705 1343.97 136.85 1349.84 136.094C1351.98 136.891 1353.89 138.37 1355.56 138.131C1363.1 137.055 1369.23 140.424 1375.6 143.465C1380.02 145.572 1384.71 147.107 1389.27 148.897L1390.35 147.662C1389.47 146.499 1388.76 145.113 1387.65 144.232C1386.44 143.267 1384.86 142.768 1383.81 141.96C1400.06 137.328 1416.01 133.077 1431.76 128.159C1439.53 125.734 1446.91 122.078 1454.81 118.943C1461.04 118.46 1466.79 117.654 1471.29 112.699C1472.05 112.616 1472.5 112.61 1472.8 112.909C1458.43 133.944 1434.92 138.944 1412.24 147.717C1415.26 149.148 1416.89 150.356 1418.68 150.683C1423.75 151.606 1428.86 152.476 1433.99 152.817C1452.09 154.021 1470.15 154.361 1488.28 152.073C1500.62 150.515 1513.15 150.187 1525.61 149.96C1531.67 149.85 1537.87 150.518 1543.3 154.153C1545.7 155.757 1548.61 156.603 1552.38 158.282L1552.67 160.2C1552.7 208.848 1553.14 255.178 1553.2 303.826C1410.58 295.014 940.222 284.642 946.731 208.277Z" fill="#504264"/>
<path d="M1293.73 138.864C1294.91 136.525 1296.09 134.186 1297.87 130.642C1293 133.789 1289.08 136.32 1285.17 138.843C1284.78 138.192 1284.62 138.051 1284.63 137.928C1285.33 131.545 1292.85 133.174 1295.44 128.622C1297.76 124.544 1302.21 124.426 1308.97 127.026C1310.1 127.464 1311.49 127.251 1313.41 127.556C1315.78 127.937 1317.51 128.1 1319.24 128.263C1319.24 128.263 1319.25 128.323 1319.49 128.573C1322.61 131.136 1325.27 131.771 1329.34 130.662C1333.68 129.482 1338.7 130.728 1343.4 131.062C1344.76 131.157 1346.07 131.764 1347.74 132.233C1348.07 130.372 1348.31 129.049 1348.6 127.386C1350.96 127.386 1353.2 127.386 1355.43 127.386C1364.56 132.224 1373.69 137.061 1383.13 141.982C1384.86 142.767 1386.44 143.266 1387.65 144.231C1388.76 145.112 1389.47 146.498 1390.35 147.662C1389.99 148.073 1389.63 148.485 1389.27 148.896C1384.71 147.106 1380.02 145.571 1375.6 143.464C1369.23 140.423 1363.1 137.054 1355.56 138.131C1353.89 138.369 1351.98 136.89 1349.51 135.937C1345.43 135.775 1342.02 135.879 1338.63 135.635C1336.27 131.574 1332.84 131.489 1328.8 135.98C1331.05 135.98 1332.49 135.98 1333.62 136.173C1331.75 136.433 1330.19 136.511 1328.62 136.565C1323.55 136.737 1318.48 136.9 1313.18 137.21C1312.42 137.489 1311.9 137.624 1311.09 137.638C1309.73 136.735 1308.65 135.953 1307.9 135.087C1309.24 134.486 1310.25 133.969 1311.26 133.453C1311.15 132.8 1311.04 132.148 1310.93 131.496C1308 131.687 1305.02 131.627 1302.17 132.215C1301.24 132.407 1300.67 134.294 1299.93 135.405C1301.15 135.58 1302.36 135.754 1303.59 136.311C1303.62 137.459 1303.63 138.224 1303.33 139.235C1300.39 139.723 1297.77 139.965 1294.9 139.994C1294.35 139.476 1294.04 139.17 1293.73 138.864ZM1300.18 130.501C1300.09 130.567 1299.99 130.634 1299.9 130.701C1299.97 130.789 1300.04 130.937 1300.12 130.948C1300.2 130.958 1300.3 130.832 1300.18 130.501Z" fill="#D3AC7A"/>
<path d="M1035.13 165.969C1035.5 165.299 1035.88 164.629 1036.58 163.39C1033.76 164.115 1031.51 164.693 1028.79 165.391C1032.31 161.533 1041.68 158.843 1046.73 160.226C1054.5 162.354 1062.17 164.855 1069.96 166.928C1073.52 167.876 1077.25 168.18 1081.21 169.004C1076.57 170.181 1071.61 171.13 1065.84 172.276C1063.14 172.411 1061.16 171.967 1059.39 172.377C1056.67 173.005 1054.1 174.223 1051.32 175.409C1050.9 176.056 1050.61 176.484 1050.32 176.913C1048.96 176.834 1047.6 176.754 1045.73 176.458C1044.62 176.356 1044.03 176.47 1043.44 176.585C1042.07 176.675 1040.7 176.764 1038.81 176.862C1038.03 176.852 1037.81 176.931 1037.62 177.106C1029.19 176.976 1021.83 180.188 1015.02 184.725C1010.06 188.031 1004.74 187.908 998.949 187.088C1001.1 185.951 1003.5 184.789 1006.03 184.095C1009.01 183.274 1011.15 182.816 1013.18 179.273C1015.03 176.05 1020.85 174.715 1025.17 173.409C1029.92 171.977 1034.96 171.563 1039.87 170.645C1043.06 170.047 1043.38 168.337 1041.51 165.725C1039.79 165.943 1038.06 166.162 1035.9 166.324C1035.47 166.267 1035.13 165.969 1035.13 165.969Z" fill="#D2AC7B"/>
<path d="M1184.23 192.937C1203.23 188.233 1222.14 183.073 1241.28 178.997C1252.82 176.541 1264.7 175.708 1276.45 174.313C1278.21 174.104 1280.07 174.816 1281.89 175.102C1281.9 175.636 1281.91 176.169 1281.93 176.703C1277.45 177.198 1272.91 177.368 1268.51 178.249C1255.05 180.944 1241.54 183.511 1228.25 186.927C1220.47 188.929 1213.07 192.453 1204.98 195.431C1204.28 195.55 1204.11 195.532 1203.56 195.391C1197.66 195.133 1192.15 195.074 1186.65 194.776C1185.81 194.73 1185.03 193.577 1184.23 192.937Z" fill="#CEA780"/>
<path d="M1293.37 138.908C1294.04 139.17 1294.35 139.476 1295.07 140.259C1295.95 141.841 1296.42 142.947 1296.77 143.772C1303.39 143.075 1309.61 142.419 1316.27 141.792C1318.6 142.096 1320.5 142.371 1322.4 142.646C1322.56 143.138 1322.73 143.63 1322.9 144.122C1321.34 145.365 1319.77 146.609 1317.8 147.834C1311.97 146.218 1306.68 146.413 1300.31 149.038C1302.17 149.54 1302.89 149.732 1303.62 150.215C1303.64 150.892 1303.65 151.28 1303.66 151.667C1300.38 152.039 1297.1 152.41 1292.97 152.795C1288.78 153.186 1285.44 153.563 1282.09 153.941C1281.04 154.066 1279.99 154.19 1278.27 154.247C1276.51 154.356 1275.41 154.531 1274.32 154.707C1274.32 154.707 1274.1 154.871 1273.65 154.918C1272.59 155.165 1271.99 155.366 1271.39 155.567C1271.22 155.602 1271.05 155.637 1270.42 155.525C1269.19 154.945 1268.42 154.513 1267.66 154.08C1268.01 153.967 1268.36 153.854 1269.25 153.643C1270.28 153.356 1270.78 153.165 1271.28 152.974C1272.11 151.59 1272.93 150.206 1274.05 149.141C1276.01 149.215 1277.7 148.969 1279.38 148.724C1279.21 148.185 1279.04 147.646 1278.87 147.107C1277.33 147.693 1275.79 148.278 1274.26 148.864C1274.47 145.032 1276.06 143.53 1280.3 143.167C1284.63 142.797 1288.78 140.439 1293.37 138.908Z" fill="#D2AB7B"/>
<path d="M1301.56 189.887C1294.36 190.667 1287.62 191.625 1280.85 192.136C1276.26 192.482 1271.62 192.202 1267.01 191.541C1276.38 184.605 1305.84 182.522 1315.31 187.871C1310.37 188.614 1306.18 189.244 1301.56 189.887Z" fill="#CCA67F"/>
<path d="M1376.13 187.057C1376.13 187.057 1376.32 187.134 1376.78 187.352C1382.16 187.419 1387.08 187.268 1392 187.117C1395.86 187.117 1399.72 187.117 1403.58 187.117C1390.61 192.033 1377 191.093 1362.78 191.423C1358.33 190.897 1354.66 190.565 1350.98 190.233C1350.99 189.499 1351 188.764 1351.01 188.03C1359.38 187.705 1367.76 187.381 1376.13 187.057Z" fill="#C3A183"/>
<path d="M1315.83 141.763C1309.61 142.419 1303.39 143.074 1296.77 143.772C1296.42 142.947 1295.95 141.841 1295.31 140.471C1297.77 139.965 1300.39 139.723 1303.72 139.24C1306.74 138.585 1309.06 138.173 1311.37 137.76C1311.9 137.625 1312.42 137.489 1313.63 137.227C1319.99 137.66 1325.67 138.22 1331.35 138.78C1330.32 139.415 1329.28 140.05 1327.63 140.987C1323.29 141.447 1319.56 141.605 1315.83 141.763Z" fill="#614D51"/>
<path d="M1183.82 192.882C1185.03 193.578 1185.81 194.731 1186.65 194.776C1192.15 195.074 1197.66 195.133 1203.1 195.512C1199.65 195.789 1196.25 195.753 1192.87 195.874C1186.96 196.086 1181.05 196.395 1175.14 196.663C1164.35 197.259 1153.56 197.873 1142.76 198.428C1141.22 198.507 1139.67 198.305 1138.07 198.23C1153.28 196.418 1168.34 194.622 1183.82 192.882Z" fill="#B89A88"/>
<path d="M1363.91 172.775C1361.69 172.357 1359.86 172.043 1358.03 171.728C1370.95 166.239 1381.96 174.535 1393.97 175.505C1393.91 176.022 1393.84 176.54 1393.78 177.057C1383.95 175.664 1374.13 174.271 1363.91 172.775Z" fill="#C19F86"/>
<path d="M1305.19 160.016C1308.48 160.64 1311.36 161.209 1314.24 161.778C1314.15 162.421 1314.06 163.064 1313.97 163.706C1303.24 162.497 1292.52 161.287 1281.59 160.055C1287.11 156.816 1292.82 158.009 1298.52 158.932C1300.6 159.27 1302.69 159.617 1305.19 160.016Z" fill="#C0A38A"/>
<path d="M1375.76 186.868C1367.76 187.381 1359.38 187.705 1351.01 188.029C1351 188.764 1350.99 189.499 1350.98 190.233C1354.66 190.565 1358.33 190.897 1362.35 191.48C1357.04 191.525 1351.35 191.534 1345.73 190.968C1344.28 190.822 1343.01 188.872 1341.66 187.75C1343.21 187.249 1344.76 186.359 1346.32 186.313C1353.93 186.086 1361.53 186.034 1369.14 186.039C1371.22 186.04 1373.3 186.454 1375.76 186.868Z" fill="#5B454D"/>
<path d="M1210.11 170.293C1210.66 170.847 1211.16 171.764 1211.01 171.884C1203.97 177.636 1196.01 178.453 1187.4 175.418C1189.65 175.305 1191.9 175.039 1194.14 175.109C1199.93 175.291 1204.88 172.902 1210.11 170.293Z" fill="#B89A88"/>
<path d="M1493.47 162.22C1495.15 162.029 1496.44 161.944 1499.1 161.77C1489.08 166.124 1480.1 166.149 1471.03 164.904C1471 164.377 1470.96 163.851 1470.93 163.325C1478.32 162.992 1485.7 162.659 1493.47 162.22Z" fill="#BBA199"/>
<path d="M1047.95 185.012C1046.88 185.538 1045.52 186.253 1044.08 186.508C1036.02 187.934 1027.94 189.25 1019.73 189.768C1028.83 187.02 1037.97 184.506 1047.95 185.012Z" fill="#C0A091"/>
<path d="M1376.27 148.874C1375.55 149.473 1374.84 150.072 1373.92 150.849C1375.23 151.864 1376.48 152.827 1378.06 154.047C1373.07 155.34 1366.28 152.176 1363.75 147.254C1368.15 147.502 1372.21 148.188 1376.27 148.874Z" fill="#574350"/>
<path d="M1425 170.031C1421.28 169.595 1417.98 169.165 1414.68 168.736C1414.71 168.305 1414.74 167.874 1414.77 167.443C1424.08 167.443 1433.4 167.443 1442.72 167.443C1442.75 167.641 1442.78 167.839 1442.81 168.037C1437.01 168.704 1431.22 169.371 1425 170.031Z" fill="#BD9D88"/>
<path d="M1303.6 149.925C1302.89 149.732 1302.17 149.54 1300.31 149.038C1306.68 146.413 1311.97 146.217 1318.09 148.037C1320.29 148.786 1321.81 149.314 1323.32 149.841C1323.06 150.628 1322.8 151.415 1322.3 152.102C1320.35 151.353 1318.67 150.266 1316.92 150.146C1312.5 149.841 1308.04 149.969 1303.6 149.925Z" fill="#5B454D"/>
<path d="M1384.7 161.649C1387.76 162.131 1390.41 162.527 1393.42 162.976C1389.15 166.848 1381.89 165.995 1376.16 161.119C1379.12 161.281 1381.71 161.422 1384.7 161.649Z" fill="#C0A091"/>
<path d="M1331.72 138.731C1325.67 138.22 1319.99 137.66 1313.86 137.084C1318.48 136.9 1323.55 136.737 1328.62 136.565C1330.19 136.512 1331.75 136.433 1333.86 135.989C1335.8 135.736 1337.21 135.859 1338.61 135.982C1342.02 135.879 1345.43 135.776 1349.17 135.829C1343.7 136.884 1337.89 137.784 1331.72 138.731Z" fill="#C9A685"/>
<path d="M1323.61 149.86C1321.81 149.313 1320.29 148.786 1318.49 148.055C1319.77 146.609 1321.34 145.365 1322.9 144.121C1322.73 143.629 1322.56 143.138 1322.4 142.646C1320.5 142.37 1318.6 142.095 1316.27 141.792C1319.56 141.605 1323.29 141.447 1327.45 141.316C1328.61 141.841 1329.33 142.34 1330.72 143.292C1328.22 143.873 1326.47 144.281 1324.72 144.688C1322.17 146.222 1329.67 149.311 1323.61 149.86Z" fill="#B39994"/>
<path d="M1376.11 148.546C1372.21 148.189 1368.16 147.503 1363.69 146.925C1362.58 146.7 1361.87 146.366 1360.83 145.568C1359.25 144.352 1358.02 143.602 1356.78 142.851C1359.07 142.899 1361.53 142.425 1363.62 143.104C1367.84 144.478 1371.85 146.477 1376.11 148.546Z" fill="#B0988E"/>
<path d="M1303.62 150.215C1308.04 149.969 1312.5 149.841 1316.92 150.146C1318.67 150.266 1320.34 151.353 1322.12 152.36C1322.02 152.76 1321.85 152.801 1321.05 152.854C1319.38 152.813 1318.35 152.761 1317.33 152.709C1312.97 152.444 1308.6 152.179 1303.95 151.791C1303.65 151.28 1303.64 150.892 1303.62 150.215Z" fill="#B59787"/>
<path d="M1352.51 142.818C1352.51 142.818 1352.82 142.995 1353.2 143.281C1355.07 144.712 1356.57 145.859 1358.06 147.006C1356.21 146.77 1354.3 146.749 1352.53 146.251C1349.13 145.296 1345.8 144.071 1342.45 142.952C1342.3 142.904 1342.05 142.752 1342.06 142.719C1342.15 142.454 1342.29 142.206 1343.07 141.91C1345.74 141.914 1347.75 141.96 1349.77 142.007C1349.77 142.007 1349.95 142.086 1350.28 142.293C1351.24 142.606 1351.88 142.712 1352.51 142.818Z" fill="#B89A88"/>
<path d="M1402.47 152.769C1401.05 152.245 1399.99 151.746 1398.92 151.248C1403.89 151.271 1408.9 146.477 1414.29 152.794C1409.95 152.794 1406.38 152.794 1402.47 152.769Z" fill="#8C98AC"/>
<path d="M1051.46 175.191C1054.1 174.224 1056.68 173.006 1059.39 172.378C1061.16 171.967 1063.14 172.411 1065.46 172.456C1065.84 173.49 1065.77 174.54 1065.39 175.86C1060.54 175.816 1056 175.504 1051.46 175.191Z" fill="#614D51"/>
<path d="M1051.32 175.409C1056 175.503 1060.54 175.816 1065.48 176.114C1063.2 176.799 1060.55 177.845 1057.83 178.089C1055.63 178.285 1053.35 177.512 1050.71 177.041C1050.61 176.484 1050.9 176.056 1051.32 175.409Z" fill="#B59787"/>
<path d="M1267.34 154.228C1268.42 154.512 1269.19 154.945 1270.16 155.542C1265.94 156.913 1261.52 158.12 1257.08 159.099C1260.39 157.374 1263.7 155.875 1267.34 154.228Z" fill="#C3A183"/>
<path d="M1101.81 187.454C1101.98 186.86 1102.39 186.123 1102.74 186.151C1108.08 186.578 1113.4 187.105 1118.76 188.086C1113.21 188.925 1107.64 189.828 1101.81 187.454Z" fill="#947B64"/>
<path d="M1175.62 196.69C1181.05 196.395 1186.96 196.086 1192.87 195.874C1196.26 195.753 1199.65 195.789 1203.49 195.634C1204.11 195.532 1204.28 195.551 1204.7 195.63C1200.65 196.054 1196.37 196.595 1192.07 196.732C1186.76 196.902 1181.43 196.737 1175.62 196.69Z" fill="#5C4144"/>
<path d="M1358.38 146.856C1356.57 145.86 1355.08 144.713 1353.37 143.318C1354.07 143.015 1354.97 142.962 1356.33 142.88C1358.02 143.602 1359.25 144.352 1360.56 145.439C1359.99 146.086 1359.34 146.396 1358.38 146.856Z" fill="#574350"/>
<path d="M1282.49 154.057C1285.44 153.563 1288.78 153.185 1292.57 152.817C1289.64 153.275 1286.26 153.724 1282.49 154.057Z" fill="#C3A183"/>
<path d="M1391.51 187.081C1387.08 187.268 1382.16 187.419 1376.88 187.309C1381.36 187.047 1386.19 187.046 1391.51 187.081Z" fill="#5B454D"/>
<path d="M1132.64 143.11C1133.16 142.012 1133.82 141.092 1134.75 140.051C1134.64 141.077 1134.26 142.225 1133.71 143.625C1133.27 143.697 1133.03 143.501 1132.64 143.11Z" fill="#BFAF8D"/>
<path d="M1349.44 141.837C1347.75 141.961 1345.74 141.914 1343.3 141.827C1344.96 141.747 1347.03 141.707 1349.44 141.837Z" fill="#574350"/>
<path d="M1043.77 176.658C1044.03 176.47 1044.62 176.355 1045.33 176.378C1044.99 176.587 1044.55 176.659 1043.77 176.658Z" fill="#B59787"/>
<path d="M1274.71 154.724C1275.41 154.53 1276.51 154.355 1277.87 154.291C1277.12 154.516 1276.11 154.629 1274.71 154.724Z" fill="#C3A183"/>
<path d="M1317.57 152.874C1318.35 152.761 1319.38 152.814 1320.79 152.915C1320.06 152.989 1318.94 153.014 1317.57 152.874Z" fill="#5B454D"/>
<path d="M1271.72 155.614C1271.99 155.365 1272.59 155.165 1273.51 154.936C1273.24 155.159 1272.65 155.41 1271.72 155.614Z" fill="#C3A183"/>
<path d="M1352.24 142.667C1351.88 142.712 1351.24 142.606 1350.37 142.264C1350.75 142.19 1351.35 142.353 1352.24 142.667Z" fill="#574350"/>
<path d="M1037.85 177.123C1037.81 176.931 1038.03 176.852 1038.4 176.91C1038.51 176.95 1038.09 177.139 1037.85 177.123Z" fill="#B59787"/>
<path d="M966.814 363.831C966.379 364.128 965.637 364.396 964.597 364.691C965.035 364.412 965.771 364.107 966.814 363.831Z" fill="#CBAF82"/>
<path d="M1160.8 134.096C1160.81 133.945 1161.07 133.677 1161.58 133.288C1161.58 133.438 1161.32 133.708 1160.8 134.096Z" fill="#C5AD87"/>
<path d="M1355.44 127.075C1353.2 127.386 1350.96 127.386 1348.6 127.386C1348.31 129.049 1348.07 130.372 1347.74 132.233C1346.07 131.764 1344.76 131.157 1343.4 131.062C1338.69 130.728 1333.68 129.482 1329.34 130.662C1325.27 131.771 1322.61 131.136 1319.52 128.568C1320 128.305 1320.68 128.297 1321.97 128.534C1323.36 128.873 1324.4 129.343 1324.88 129.007C1329.6 125.702 1334.83 127.294 1339.88 127.305C1341.21 127.719 1342.54 128.376 1343.89 128.438C1344.52 128.467 1345.2 127.346 1346 126.277C1349.25 125.713 1352.36 125.617 1355.48 125.522C1355.47 125.936 1355.46 126.35 1355.44 127.075Z" fill="#8B7E4D"/>
<path d="M1339.56 127.153C1334.83 127.295 1329.61 125.702 1324.88 129.007C1324.4 129.343 1323.36 128.874 1322.31 128.531C1327.7 123.218 1332.27 122.877 1339.56 127.153Z" fill="#CDAF7D"/>
<path d="M1355.49 125.269C1352.36 125.617 1349.25 125.713 1345.86 126.037C1345.23 124.581 1344.88 122.896 1344.18 119.58C1348.9 121.845 1352.2 123.43 1355.49 125.269Z" fill="#CFAF7A"/>
<path d="M1319.09 127.989C1317.51 128.1 1315.78 127.937 1313.75 127.563C1315.28 127.473 1317.11 127.594 1319.09 127.989Z" fill="#8B7E4D"/>
<path d="M1271.09 152.947C1270.78 153.164 1270.28 153.355 1269.52 153.591C1269.8 153.397 1270.35 153.159 1271.09 152.947Z" fill="#C3A183"/>
<path d="M1035.62 166.426C1034.95 167.943 1034.11 169.302 1033.28 170.661C1032.91 170.438 1032.53 170.216 1032.16 169.994C1033 168.77 1033.83 167.546 1034.9 166.146C1035.13 165.97 1035.47 166.267 1035.62 166.426Z" fill="#D2AC7B"/>
<path d="M1303.58 135.929C1302.37 135.755 1301.15 135.58 1299.93 135.406C1300.67 134.294 1301.24 132.407 1302.17 132.216C1305.02 131.627 1308 131.688 1310.93 131.496C1311.04 132.149 1311.15 132.801 1311.26 133.453C1310.25 133.97 1309.24 134.486 1307.55 135.093C1305.77 135.432 1304.68 135.681 1303.58 135.929Z" fill="#8A7E4A"/>
<path d="M1338.63 135.635C1337.21 135.859 1335.8 135.736 1334.16 135.796C1332.49 135.98 1331.05 135.98 1328.8 135.98C1332.84 131.489 1336.27 131.574 1338.63 135.635Z" fill="#8B7E4D"/>
<path d="M1303.59 136.311C1304.68 135.68 1305.77 135.431 1307.22 135.177C1308.65 135.953 1309.73 136.735 1311.09 137.638C1309.06 138.172 1306.74 138.585 1304.03 138.993C1303.63 138.223 1303.62 137.459 1303.59 136.311Z" fill="#C9A685"/>
<path d="M1300.28 130.633C1300.3 130.832 1300.2 130.958 1300.12 130.948C1300.04 130.937 1299.97 130.789 1299.9 130.701C1300 130.634 1300.09 130.568 1300.28 130.633Z" fill="#897F49"/>
<path d="M1274.27 148.849C1275.79 148.278 1277.33 147.693 1278.87 147.107C1279.04 147.646 1279.21 148.185 1279.38 148.724C1277.69 148.969 1276.01 149.215 1274.32 149.133C1274.31 148.807 1274.28 148.835 1274.27 148.849Z" fill="#897F49"/>
<path d="M1168.58 124.307C1168.27 124.754 1167.77 125.083 1166.97 125.398C1167.24 124.985 1167.81 124.587 1168.58 124.307Z" fill="#8A7F49"/>
<path d="M2012.07 616.814V163.352L1531.57 150.814L1477.5 190.299L1321.14 204.992L1159.3 209.487L1114.01 200.003L1003.71 194.191L991.315 198.029L949.099 205.759L936.709 209.487L919.768 215.737L917.136 215.189L916.588 213.38L915.546 210.529L914.286 209.487H903.978L902.059 210.529L896.851 212.283L891.862 213.38H885.667L877.991 212.667H872.344H867.52L861.379 215.189L853.704 214.312L837.695 217.492L791.203 230.047L729.634 237.613L0 260.834V616.814H2012.07Z" fill="#504264"/>
<path d="M944.609 186.621C940.511 185.635 936.413 184.649 931.797 183.265C929.067 177.838 935.377 179.338 936.385 176.34C933.097 175.597 928.542 176.076 930.866 170.558C931.565 170.702 931.835 170.799 932.32 170.632C939.214 171.443 945.892 172.519 952.84 173.638C952.434 172.457 952.225 171.847 952.275 170.923C956.613 169.636 960.69 168.662 964.784 168.123C965.037 177.602 966.429 178.82 974.9 175.759C983.889 172.512 992.649 168.631 1001.9 164.987C1011.83 162.175 1014.41 159.748 1015.11 153.358C1017.59 153.705 1019.75 154.501 1021.73 154.173C1036.31 151.753 1050.94 149.388 1064.48 143.014C1065.85 142.367 1066.9 141.023 1068.1 140.003C1066.41 139.462 1065.41 139.865 1064.38 140.168C1053.98 143.242 1043.63 146.463 1033.16 149.297C1027.09 150.942 1020.85 151.955 1014.36 153.187C1010.82 151.571 1007.63 150.021 1004.14 148.241C999.994 146.231 996.148 144.451 992.037 142.364C991.907 137.227 992.106 132.396 992.088 127.566C992.085 127.013 990.864 126.464 989.873 125.977C984.608 129.287 977.599 130.659 977.732 138.72C976.137 137.318 974.586 136.136 973.668 134.581C970.543 129.285 967.641 123.857 964.655 118.48C964.139 118.77 963.624 119.06 963.108 119.35C969.984 132.475 976.86 145.599 983.736 158.724C984.204 158.495 984.671 158.267 985.139 158.039C983.287 153.778 981.435 149.518 979.768 144.999C980.234 143.334 980.514 141.928 980.797 140.512C981.476 141.343 982.164 142.185 982.721 142.867C985.165 137.927 987.478 133.251 989.867 128.988C989.038 138.76 988.132 148.119 987.137 158.398C993.333 156.61 998.082 155.019 1002.95 153.967C1004.42 153.649 1006.22 154.821 1007.57 155.452C995.983 165.896 981.839 169.644 967.092 173.447C966.538 171.005 966.084 169.001 965.887 166.753C969.185 165.189 972.226 163.868 976.315 162.092C973.261 158.915 970.897 156.456 968.533 153.997C964.372 146.676 960.398 139.237 955.907 132.125C954.872 130.485 952.156 129.705 950.059 128.97C932.887 122.949 915.64 117.141 898.509 111.009C894.033 109.406 889.034 107.925 887.95 101.714C889.811 100.262 891.419 99.3178 893.413 98.4141C898.001 98.9037 902.279 98.9916 906.391 99.8642C925.632 103.947 944.825 108.252 964.037 112.466C981.655 116.33 999.268 120.219 1016.91 123.954C1018.32 124.252 1019.96 123.429 1021.88 123.152C1025.88 123.178 1029.49 123.178 1033.33 123.178C1036.22 128.819 1035.66 130.172 1029.13 131.549C1024.75 132.471 1020.3 133.046 1015.91 133.916C1014.81 134.133 1013.82 134.885 1012.78 135.391C1012.9 135.814 1013.02 136.236 1013.15 136.658C1015.56 136.19 1018 135.823 1020.39 135.232C1024.78 134.144 1029.13 132.078 1033.51 132.043C1036.72 132.017 1039.95 134.588 1043.29 136.055C1044.23 131.465 1049.54 128.705 1057.44 128.968C1053.95 130.117 1050.46 131.265 1046.97 132.414C1047.17 132.964 1047.37 133.514 1047.57 134.064C1055.78 130.994 1063.99 127.924 1072.28 125.184C1073.34 126.652 1074.31 127.79 1075.23 129.23C1073.59 134.211 1071.07 129.611 1069.1 130.153C1062.39 132.002 1055.7 133.948 1049.01 135.858C1049.17 136.565 1049.34 137.272 1049.5 137.979C1055.4 136.655 1061.3 135.331 1067.23 134.002C1068.09 135.339 1069.02 136.764 1069.94 138.189C1070.12 137.789 1070.29 137.389 1070.46 136.988C1072.18 137.098 1074.12 136.728 1075.58 137.399C1081.76 140.237 1087.64 143.752 1093.93 146.294C1098.32 148.071 1103.23 148.537 1107.84 149.841C1111.78 150.956 1115.62 152.43 1119.51 153.745C1111.82 157.797 1104.29 162.197 1096.39 165.765C1091.87 167.805 1086.75 168.488 1081.19 169.546C1076.84 168.715 1073.11 168.41 1069.55 167.463C1061.76 165.39 1054.09 162.888 1046.32 160.76C1041.27 159.378 1031.89 162.067 1028.37 165.926C1031.09 165.227 1033.34 164.649 1036.16 163.925C1035.47 165.163 1035.09 165.834 1034.49 166.68C1033.42 168.08 1032.59 169.304 1031.75 170.528C1032.12 170.75 1032.49 170.973 1032.86 171.195C1033.7 169.836 1034.54 168.478 1035.64 167.017C1037.65 166.696 1039.38 166.477 1041.1 166.26C1042.97 168.872 1042.65 170.582 1039.45 171.18C1034.55 172.098 1029.5 172.512 1024.76 173.943C1020.43 175.25 1014.61 176.584 1012.77 179.807C1010.73 183.35 1008.6 183.808 1005.61 184.63C1003.09 185.324 1000.69 186.485 998.236 187.44C992.786 189.852 987.343 192.282 981.879 194.664C980.423 195.298 978.9 195.782 977.043 196.366C971.333 191.403 964.384 190.679 957.042 189.057C955.807 188.366 955.224 187.89 955.04 187.372C962.716 185.629 969.994 183.927 977.272 182.225C977.156 181.728 977.04 181.231 976.924 180.733C967.019 182.977 957.114 185.222 946.978 187.301C946.034 186.965 945.321 186.793 944.609 186.621ZM980.298 188.205C988.758 185.852 997.217 183.499 1005.68 181.145C1005.5 180.548 1005.32 179.951 1005.14 179.354C996.751 182.175 988.364 184.995 980.298 188.205Z" fill="#897F4A"/>
<path d="M1119.83 153.611C1115.62 152.43 1111.78 150.956 1107.84 149.841C1103.23 148.537 1098.32 148.071 1093.93 146.294C1087.64 143.752 1081.76 140.237 1075.58 137.399C1074.12 136.728 1072.18 137.098 1070.46 136.988C1070.29 137.389 1070.12 137.789 1069.94 138.19C1069.02 136.764 1068.09 135.339 1067.23 134.002C1061.3 135.331 1055.4 136.655 1049.5 137.979C1049.34 137.272 1049.17 136.565 1049.01 135.858C1055.7 133.948 1062.39 132.002 1069.1 130.153C1071.07 129.611 1073.59 134.211 1075.41 128.968C1076.53 127.501 1077.41 126.599 1078.45 125.847C1079.15 125.946 1079.69 125.894 1080.54 125.826C1081.26 125.796 1081.67 125.783 1082.28 125.671C1082.73 125.423 1082.96 125.24 1083.16 125.025C1083.55 124.926 1083.94 124.827 1084.86 124.837C1086.66 124.669 1087.92 124.393 1089.38 124.073C1089.58 124.028 1089.99 123.932 1090.17 123.805C1090.59 123.497 1090.8 123.29 1090.98 123.055C1092.03 123.016 1093.07 122.977 1094.75 123.054C1097.17 122.482 1098.94 121.793 1100.72 121.104C1102.09 121.086 1103.46 121.067 1105.55 121.239C1109.94 123.262 1113.87 126.941 1117.23 126.479C1121.93 125.834 1125.24 128.335 1129.25 128.786C1132.59 129.162 1133.94 131.149 1134.07 134.36C1134.13 135.776 1134.64 137.173 1134.94 138.579C1134.88 139.001 1134.82 139.422 1134.42 140.274C1133.41 141.626 1132.74 142.547 1132.07 143.467C1128.1 146.804 1124.13 150.141 1119.83 153.611ZM1112.36 129.123C1111.19 127.992 1109.92 125.817 1108.88 125.924C1105.69 126.25 1102.46 127.269 1101.95 132.405C1105.29 131.464 1108.63 130.523 1112.36 129.123Z" fill="#D6AC75"/>
<path d="M1034.72 166.504C1035.09 165.834 1035.47 165.163 1036.16 163.925C1033.34 164.649 1031.09 165.227 1028.38 165.926C1031.9 162.067 1041.27 159.378 1046.32 160.76C1054.09 162.888 1061.76 165.39 1069.55 167.463C1073.11 168.41 1076.84 168.715 1080.8 169.538C1076.15 170.716 1071.2 171.665 1065.42 172.811C1062.72 172.946 1060.75 172.501 1058.98 172.912C1056.26 173.54 1053.68 174.758 1050.91 175.944C1050.49 176.59 1050.2 177.019 1049.91 177.448C1048.55 177.368 1047.19 177.289 1045.32 176.993C1044.21 176.89 1043.62 177.005 1043.02 177.12C1041.66 177.209 1040.29 177.299 1038.4 177.397C1037.62 177.387 1037.4 177.465 1037.21 177.641C1028.78 177.511 1021.42 180.722 1014.61 185.26C1009.65 188.566 1004.33 188.443 998.537 187.623C1000.69 186.485 1003.09 185.324 1005.61 184.63C1008.6 183.809 1010.73 183.35 1012.77 179.807C1014.61 176.585 1020.43 175.25 1024.76 173.944C1029.5 172.512 1034.55 172.098 1039.45 171.18C1042.65 170.582 1042.97 168.872 1041.1 166.26C1039.38 166.478 1037.65 166.697 1035.48 166.859C1035.05 166.802 1034.72 166.504 1034.72 166.504Z" fill="#D2AC7B"/>
<path d="M1051.05 175.725C1053.69 174.757 1056.26 173.54 1058.98 172.912C1060.75 172.501 1062.72 172.945 1065.05 172.99C1065.43 174.024 1065.36 175.074 1064.97 176.394C1060.13 176.35 1055.59 176.038 1051.05 175.725Z" fill="#614D51"/>
<path d="M1050.91 175.943C1055.59 176.038 1060.12 176.351 1065.07 176.648C1062.79 177.333 1060.14 178.38 1057.41 178.624C1055.22 178.82 1052.93 178.047 1050.3 177.575C1050.2 177.019 1050.49 176.59 1050.91 175.943Z" fill="#B59787"/>
<path d="M1132.23 143.644C1132.74 142.546 1133.41 141.626 1134.34 140.584C1134.23 141.611 1133.85 142.759 1133.3 144.159C1132.86 144.231 1132.62 144.035 1132.23 143.644Z" fill="#BFAF8D"/>
<path d="M1043.36 177.193C1043.62 177.005 1044.21 176.89 1044.92 176.913C1044.58 177.122 1044.13 177.194 1043.36 177.193Z" fill="#B59787"/>
<path d="M1037.44 177.658C1037.4 177.466 1037.62 177.387 1037.99 177.445C1038.1 177.484 1037.68 177.674 1037.44 177.658Z" fill="#B59787"/>
<path d="M1072.19 124.855C1063.99 127.924 1055.78 130.994 1047.57 134.064C1047.37 133.514 1047.17 132.964 1046.97 132.414C1050.46 131.266 1053.95 130.117 1057.44 128.968C1049.54 128.705 1044.23 131.465 1043.29 136.055C1039.95 134.588 1036.72 132.018 1033.51 132.043C1029.13 132.078 1024.78 134.145 1020.39 135.232C1018 135.823 1015.56 136.19 1013.15 136.659C1013.02 136.236 1012.9 135.814 1012.78 135.391C1013.82 134.885 1014.81 134.133 1015.91 133.916C1020.3 133.046 1024.75 132.471 1029.13 131.549C1035.66 130.172 1036.22 128.819 1033.33 123.178C1029.49 123.178 1025.88 123.178 1021.48 123.087C1017.38 122.29 1014.06 121.582 1010.52 120.638C1009.08 120.029 1007.86 119.657 1006.65 119.333C1006.65 119.381 1006.55 119.399 1006.86 119.191C1010.65 119.014 1014.13 119.045 1017.6 119.076C1018.02 119.049 1018.43 119.022 1019.36 118.905C1020.13 118.661 1020.36 118.463 1020.54 118.224C1022.45 117.386 1024.34 115.906 1026.28 115.829C1032.69 115.575 1034.93 111.903 1035.55 106.006C1036.3 107.271 1037.03 108.726 1037.04 110.184C1037.05 113.221 1038.41 114.909 1041.21 115.887C1043.04 121.082 1036.76 122.866 1036.6 126.432C1039.79 127.039 1042.3 127.52 1044.82 128.001C1044.58 127.645 1044.34 127.289 1044.11 126.933C1046.4 124.949 1048.7 122.964 1051.34 120.901C1053.07 120.523 1054.46 120.222 1055.84 119.921C1058.65 118.545 1061.46 117.169 1064.72 115.594C1066.98 114.977 1068.8 114.558 1070.62 114.138C1070.61 114.568 1070.61 114.998 1070.7 115.935C1070.97 116.674 1071.18 116.842 1071.45 116.946C1072.19 117.169 1072.92 117.391 1073.59 117.885C1073.08 120.389 1072.63 122.622 1072.19 124.855Z" fill="#D2AE7A"/>
<path d="M930.439 170.512C928.543 176.076 933.098 175.597 936.386 176.34C935.378 179.338 929.068 177.838 931.415 183.169C927.808 185.417 924.066 187.364 920.168 189.079C921.509 186.993 923.006 185.139 924.728 183.005C922.241 183.387 919.362 184.128 919.235 183.801C918.462 181.807 917.719 179.472 918.059 177.433C919.728 167.438 921.74 157.5 923.993 147.54C926.668 150.09 928.981 152.642 931.295 155.195C931.353 156.584 931.412 157.973 931.29 160.067C931.724 162.783 932.339 164.793 933.022 167.025C932.96 167.058 932.255 167.429 931.354 168.084C931.035 168.565 930.913 168.761 930.679 169.05C930.525 169.6 930.482 170.056 930.439 170.512Z" fill="#D6AD75"/>
<path d="M923.631 147.542C921.741 157.5 919.728 167.438 918.06 177.433C917.72 179.472 918.462 181.807 919.235 183.801C919.362 184.128 922.241 183.388 924.728 183.006C923.006 185.139 921.509 186.993 919.811 189.106C917.236 189.547 914.861 189.729 912.132 189.635C911.125 188.667 910.473 187.975 909.821 187.284C909.298 183.676 908.376 180.069 908.371 176.46C908.367 173.215 909.369 169.968 910.511 166.38C918.071 165.886 918.488 165.517 919.68 158.642C920.336 154.859 921.031 151.082 921.708 147.302C921.708 147.302 921.757 147.359 922.049 147.336C922.771 147.39 923.201 147.466 923.631 147.542Z" fill="#8A7E4A"/>
<path d="M1017.29 118.91C1014.13 119.045 1010.65 119.014 1006.48 119.108C980.047 113.581 954.31 107.929 928.82 102.131C929.6 101.77 930.132 101.553 930.665 101.337C931.361 101.333 932.057 101.33 933.364 101.357C934.151 101.387 934.327 101.386 934.503 101.385C961.991 107.171 989.478 112.957 1017.29 118.91Z" fill="#BFA98E"/>
<path d="M964.767 167.687C960.69 168.662 956.612 169.636 951.882 170.904C948.531 170.606 945.833 170.014 943.326 169.072C946.072 168.127 948.605 167.181 951.188 167.014C955.717 166.72 958.599 164.983 958.939 160.154C958.939 160.154 958.923 160.117 959.204 160.012C959.955 159.338 960.424 158.77 960.893 158.202C961.069 157.929 961.283 157.689 961.99 157.233C962.908 156.421 963.371 155.859 963.834 155.297C963.834 155.297 963.83 155.239 964.156 155.219C965.225 154.931 965.967 154.662 966.709 154.394C967.011 154.325 967.313 154.257 968.074 154.093C970.897 156.456 973.261 158.915 976.315 162.092C972.226 163.868 969.185 165.189 965.702 166.806C965.029 167.242 964.865 167.437 964.767 167.687Z" fill="#D6AD75"/>
<path d="M944.32 186.852C945.322 186.793 946.034 186.965 947.155 187.512C948.096 188.387 948.63 188.886 949.163 189.386C942.957 191.268 936.787 193.279 930.537 195.003C921.274 197.556 911.967 199.954 902.649 202.299C900.926 202.733 899.061 202.601 897.262 202.73C897.084 202.194 896.906 201.658 896.728 201.121C898.236 200.357 899.667 199.296 901.267 198.874C913.865 195.544 926.502 192.362 939.108 189.06C940.805 188.615 942.393 187.752 944.32 186.852Z" fill="#B8AE93"/>
<path d="M909.424 187.314C910.472 187.975 911.125 188.666 911.807 189.625C899.817 192.939 887.797 195.985 875.777 199.032C875.509 198.483 875.242 197.933 874.975 197.384C875.755 196.654 876.424 195.493 877.332 195.259C887.877 192.539 898.458 189.96 909.424 187.314Z" fill="#BFAF8D"/>
<path d="M921.372 147.375C921.032 151.082 920.337 154.858 919.681 158.642C918.489 165.516 918.072 165.886 910.694 166.05C910.834 158.103 913.824 151.557 921.372 147.375Z" fill="#CBAF82"/>
<path d="M1041.3 115.509C1038.41 114.909 1037.05 113.222 1037.04 110.184C1037.03 108.726 1036.3 107.271 1035.61 105.627C1036.79 97.0826 1038.65 95.4042 1046.66 95.9638C1043.79 101.881 1037.97 107.216 1042.58 114.742C1042.06 115.257 1041.68 115.383 1041.3 115.509Z" fill="#AEAC95"/>
<path d="M930.388 101.095C930.132 101.553 929.6 101.77 928.444 102.12C918.721 100.369 909.655 98.2725 900.495 96.7472C898.161 96.3586 895.526 97.7827 893.029 98.374C891.421 99.318 889.813 100.262 887.93 101.371C887.871 96.9077 890.049 94.4061 894.939 94.8437C903.138 95.5776 911.29 96.9248 919.425 98.2418C923.034 98.8261 926.552 99.9661 930.388 101.095Z" fill="#B0AA9E"/>
<path d="M1041.22 115.887C1041.68 115.383 1042.06 115.257 1042.73 115.069C1045.04 116.421 1047.05 117.834 1049.55 119.505C1050.35 120.168 1050.67 120.574 1051 120.98C1048.7 122.964 1046.4 124.949 1044.11 126.933C1044.35 127.289 1044.59 127.645 1044.83 128.001C1042.31 127.52 1039.79 127.039 1036.6 126.432C1036.77 122.866 1043.05 121.082 1041.22 115.887Z" fill="#715F53"/>
<path d="M1135.13 138.28C1134.64 137.173 1134.13 135.776 1134.07 134.36C1133.94 131.148 1132.59 129.161 1129.26 128.786C1125.24 128.335 1121.93 125.833 1117.23 126.479C1113.87 126.941 1109.94 123.261 1105.96 121.261C1110.4 121.901 1115.19 122.514 1119.87 123.576C1123.93 124.496 1127.83 126.086 1131.87 127.087C1136.62 128.263 1137.77 131.635 1135.13 138.28Z" fill="#BFAF8D"/>
<path d="M958.66 160.338C958.601 164.983 955.719 166.72 951.189 167.014C948.607 167.181 946.074 168.127 942.918 169.025C938.728 168.818 935.14 168.308 931.552 167.799C932.256 167.428 932.961 167.058 933.022 167.025C932.34 164.793 931.724 162.783 931.253 160.483C931.76 163.198 933.681 164.145 936.453 164.235C940.648 164.371 944.853 164.514 949.026 164.932C953.123 165.341 956.332 164.268 958.66 160.338Z" fill="#CBAF82"/>
<path d="M1070.79 113.845C1068.8 114.558 1066.98 114.977 1064.9 115.311C1064.92 106.38 1066.34 106.223 1075.54 103.187C1073.96 106.748 1072.46 110.15 1070.79 113.845Z" fill="#A0AA9F"/>
<path d="M1072.28 125.185C1072.64 122.622 1073.08 120.39 1073.83 118.049C1074.14 117.942 1074.53 118.101 1074.93 118.479C1076.86 119.449 1078.38 120.04 1080.2 120.746C1080.2 122.077 1080.2 123.469 1079.93 124.896C1079.21 125.186 1078.75 125.442 1078.3 125.698C1077.41 126.599 1076.53 127.501 1075.47 128.665C1074.31 127.79 1073.34 126.652 1072.28 125.185Z" fill="#69564F"/>
<path d="M1051.34 120.901C1050.68 120.574 1050.35 120.168 1049.9 119.546C1054.98 116.292 1052.75 111.799 1051.84 107.746C1051.23 105.067 1049.93 102.545 1049.62 99.6741C1052.75 102.883 1055.59 106.104 1055.28 111.05C1055.11 113.744 1055.48 116.471 1055.73 119.552C1054.46 120.222 1053.07 120.522 1051.34 120.901Z" fill="#B8AE93"/>
<path d="M1080.2 124.86C1080.2 123.468 1080.2 122.077 1080.2 120.745C1078.38 120.04 1076.85 119.449 1075.14 118.53C1080.1 117.671 1081.34 115.576 1079.31 110.95C1078.68 109.529 1078.26 108.018 1078.74 106.292C1083.98 111.291 1082.04 117.824 1082.17 124.587C1082.13 125.421 1082.11 125.596 1082.09 125.77C1081.68 125.783 1081.26 125.796 1080.53 125.581C1080.21 125.188 1080.21 125.024 1080.2 124.86Z" fill="#AFAE9A"/>
<path d="M949.484 189.378C948.63 188.886 948.097 188.387 947.387 187.677C957.115 185.222 967.02 182.978 976.924 180.733C977.04 181.231 977.156 181.728 977.272 182.226C969.995 183.927 962.717 185.629 954.753 187.431C953.073 188.114 952.079 188.696 951.085 189.278C950.658 189.308 950.231 189.339 949.484 189.378Z" fill="#CDAF7D"/>
<path d="M1100.54 120.797C1098.94 121.793 1097.17 122.482 1095.15 123.055C1095.43 119.265 1095.97 115.591 1096.57 111.473C1097.97 114.795 1099.17 117.642 1100.54 120.797Z" fill="#BFAF8D"/>
<path d="M923.992 147.539C923.2 147.465 922.77 147.389 922.012 147.324C926.057 144.774 927.655 145.157 929.603 149.439C930.334 151.047 930.763 152.792 931.312 154.835C928.98 152.642 926.667 150.089 923.992 147.539Z" fill="#CBAF82"/>
<path d="M951.501 189.322C952.078 188.696 953.072 188.114 954.354 187.472C955.225 187.89 955.807 188.367 956.636 188.996C955.227 189.22 953.572 189.293 951.501 189.322Z" fill="#B8AE93"/>
<path d="M1089.18 124.117C1087.92 124.393 1086.66 124.669 1085.16 124.775C1084.92 124.605 1084.97 124.252 1085.44 124.099C1086.99 124.003 1088.09 124.06 1089.18 124.117Z" fill="#BFAF8D"/>
<path d="M1089.38 124.072C1088.09 124.06 1086.99 124.003 1085.49 123.93C1086.48 123.591 1087.87 123.269 1089.62 123.195C1089.99 123.444 1089.99 123.932 1089.99 123.932C1089.99 123.932 1089.59 124.028 1089.38 124.072Z" fill="#AFAE9A"/>
<path d="M960.627 158.303C960.426 158.77 959.957 159.338 959.226 160.016C959.429 159.552 959.895 158.978 960.627 158.303Z" fill="#CBAF82"/>
<path d="M963.586 155.419C963.372 155.859 962.909 156.421 962.188 157.094C962.4 156.651 962.869 156.096 963.586 155.419Z" fill="#CBAF82"/>
<path d="M966.403 154.366C965.968 154.663 965.225 154.931 964.186 155.226C964.624 154.947 965.36 154.642 966.403 154.366Z" fill="#CBAF82"/>
<path d="M1090.17 123.805C1089.99 123.932 1089.99 123.443 1089.99 123.199C1090.16 122.958 1090.32 122.962 1090.74 123.01C1090.8 123.289 1090.59 123.497 1090.17 123.805Z" fill="#BFAF8D"/>
<path d="M1020.35 118.336C1020.36 118.463 1020.14 118.661 1019.67 118.914C1019.68 118.798 1019.91 118.61 1020.35 118.336Z" fill="#BFA98E"/>
<path d="M1082.29 125.671C1082.11 125.596 1082.13 125.421 1082.19 124.984C1082.38 124.763 1082.54 124.805 1082.93 124.936C1082.96 125.24 1082.73 125.423 1082.29 125.671Z" fill="#BFAF8D"/>
<path d="M934.377 101.326C934.327 101.386 934.151 101.387 933.711 101.375C933.704 101.229 933.972 101.197 934.377 101.326Z" fill="#B0AA9E"/>
<path d="M1071.33 116.786C1071.18 116.842 1070.97 116.674 1070.71 116.257C1070.83 116.235 1071.03 116.42 1071.33 116.786Z" fill="#A0AA9F"/>
<path d="M893.414 98.4138C895.525 97.7823 898.16 96.3582 900.494 96.7468C909.654 98.2721 918.72 100.369 928.197 102.265C954.31 107.929 980.046 113.581 1006.17 119.316C1006.55 119.399 1006.65 119.38 1006.86 119.579C1008.29 120.143 1009.52 120.509 1010.74 120.875C1014.06 121.582 1017.38 122.289 1021.1 123.061C1019.96 123.428 1018.32 124.251 1016.91 123.954C999.269 120.219 981.656 116.329 964.038 112.465C944.825 108.252 925.632 103.947 906.392 99.864C902.28 98.9914 898.002 98.9035 893.414 98.4138Z" fill="#564548"/>
<path d="M990.209 125.913C990.865 126.464 992.086 127.013 992.088 127.566C992.107 132.396 991.907 137.227 991.882 142.703C991.522 145.56 990.707 147.777 990.738 149.982C990.752 150.979 992.757 152.953 993.328 152.776C997.11 151.6 1000.75 149.959 1004.43 148.47C1007.63 150.021 1010.83 151.572 1014.36 153.202C1014.69 153.281 1014.72 153.286 1014.72 153.286C1014.42 159.748 1011.83 162.175 1002.09 164.69C1003.88 161.391 1005.88 158.351 1007.87 155.31C1006.22 154.821 1004.42 153.649 1002.95 153.968C998.082 155.019 993.333 156.61 987.138 158.399C988.133 148.119 989.038 138.76 989.968 128.665C990.065 127.257 990.137 126.585 990.209 125.913Z" fill="#CFAE7C"/>
<path d="M1007.57 155.452C1005.88 158.351 1003.88 161.392 1001.7 164.729C992.65 168.631 983.89 172.512 974.901 175.76C966.43 178.821 965.038 177.603 964.785 168.123C964.866 167.437 965.03 167.242 965.445 167.049C966.085 169.001 966.539 171.006 967.092 173.447C981.839 169.644 995.984 165.897 1007.57 155.452Z" fill="#524452"/>
<path d="M1014.69 153.267C1020.85 151.955 1027.09 150.942 1033.16 149.298C1043.63 146.464 1053.98 143.242 1064.38 140.169C1065.41 139.865 1066.41 139.462 1068.1 140.003C1066.9 141.024 1065.85 142.367 1064.48 143.014C1050.94 149.389 1036.31 151.753 1021.74 154.173C1019.75 154.502 1017.59 153.706 1015.11 153.358C1014.72 153.286 1014.69 153.282 1014.69 153.267Z" fill="#53454C"/>
<path d="M979.582 145.257C981.435 149.518 983.287 153.778 985.139 158.039C984.672 158.267 984.204 158.495 983.736 158.723C976.86 145.599 969.984 132.474 963.108 119.35C963.624 119.06 964.139 118.77 964.655 118.48C967.642 123.857 970.543 129.285 973.668 134.581C974.586 136.136 976.137 137.317 977.833 139.086C978.706 141.421 979.144 143.339 979.582 145.257Z" fill="#CFAF7A"/>
<path d="M979.767 144.999C979.144 143.339 978.706 141.421 978.166 139.136C977.599 130.659 984.608 129.287 989.873 125.977C990.136 126.585 990.064 127.257 989.891 128.252C987.478 133.251 985.165 137.926 982.721 142.867C982.164 142.185 981.476 141.343 980.797 140.512C980.514 141.927 980.234 143.334 979.767 144.999Z" fill="#514455"/>
<path d="M931.354 168.084C935.138 168.309 938.727 168.818 942.725 169.375C945.833 170.015 948.531 170.607 951.623 171.217C952.225 171.847 952.435 172.458 952.84 173.639C945.893 172.519 939.214 171.443 932.172 170.264C931.47 169.76 931.131 169.358 930.791 168.957C930.913 168.761 931.035 168.565 931.354 168.084Z" fill="#564546"/>
<path d="M980.139 188.011C988.365 184.995 996.751 182.175 1005.14 179.354C1005.32 179.951 1005.5 180.548 1005.68 181.145C997.218 183.499 988.758 185.852 980.139 188.011Z" fill="#CBAF82"/>
<path d="M1035.21 166.96C1034.54 168.478 1033.7 169.836 1032.87 171.195C1032.49 170.973 1032.12 170.75 1031.75 170.528C1032.59 169.304 1033.42 168.08 1034.49 166.68C1034.72 166.504 1035.05 166.801 1035.21 166.96Z" fill="#D2AC7B"/>
<path d="M930.68 169.05C931.131 169.358 931.471 169.76 931.958 170.529C931.836 170.799 931.566 170.702 930.868 170.558C930.482 170.056 930.525 169.6 930.68 169.05Z" fill="#CBAF82"/>
<path d="M1112.17 129.353C1108.63 130.523 1105.29 131.464 1101.95 132.405C1102.46 127.269 1105.7 126.25 1108.88 125.924C1109.92 125.817 1111.2 127.992 1112.17 129.353Z" fill="#C0A38A"/>
<path d="M1079.93 124.895C1080.21 125.024 1080.21 125.188 1080.22 125.597C1079.69 125.894 1079.15 125.946 1078.46 125.847C1078.75 125.442 1079.21 125.186 1079.93 124.895Z" fill="#BFAF8D"/>
<path d="M1010.52 120.638C1009.52 120.51 1008.29 120.144 1006.86 119.532C1007.86 119.657 1009.08 120.029 1010.52 120.638Z" fill="#BFA98E"/>
<path d="M1267.92 49.6784C1267.94 49.4704 1267.95 49.2624 1268.34 48.6627C1272.08 48.1292 1275.44 47.9872 1278.79 47.8452C1278.79 47.8452 1279.07 48.0541 1279.29 48.3914C1279.62 49.0942 1279.72 49.4597 1279.5 49.8578C1278.11 49.9492 1277.04 50.0079 1275.96 50.0667C1275.9 50.4041 1275.84 50.7415 1275.78 51.0789C1288.83 54.4874 1301.88 57.8958 1315.05 61.3919C1315.17 61.4796 1315.47 61.5252 1315.72 61.7643C1317.88 62.8111 1319.79 63.6187 1321.42 64.605C1315.49 63.474 1309.78 62.3502 1304.19 60.8165C1292.13 57.5126 1280.14 53.9979 1268.07 50.3466C1268.02 50.1237 1267.92 49.6784 1267.92 49.6784Z" fill="#564546"/>
<path d="M1282.92 48.2601C1283.75 48.8123 1284.09 49.1934 1284.27 49.8796C1282.68 50.0647 1281.25 49.9446 1279.83 49.8246C1279.72 49.4592 1279.62 49.0937 1279.45 48.4518C1280.4 48.1466 1281.42 48.1178 1282.92 48.2601Z" fill="#947B64"/>
<path d="M1173.04 48.2521C1172.99 48.3703 1172.82 48.4331 1172.38 48.4073C1172.37 48.176 1172.63 48.1353 1173.04 48.2521Z" fill="#C0A38A"/>
<path d="M1225.46 144.774C1207.46 137.691 1188.85 132.962 1169.16 129.978C1169.07 128.154 1169.57 126.547 1170.24 124.711C1171.03 123.989 1171.63 123.496 1172.62 122.981C1177.1 121.645 1181.18 120.331 1185.46 118.905C1182.68 117.116 1179.72 115.438 1176.86 113.435C1178.58 109.543 1180.2 105.976 1182.12 102.419C1182.62 102.395 1182.81 102.362 1182.98 102.35C1182.96 102.371 1182.92 102.316 1183.16 102.565C1185.22 103.304 1187.04 103.795 1188.83 104.304C1188.8 104.323 1188.79 104.26 1189.05 104.507C1190.46 104.939 1191.61 105.124 1192.73 105.325C1192.7 105.342 1192.67 105.281 1192.9 105.536C1195.62 106.602 1198.1 107.415 1200.55 108.245C1200.53 108.263 1200.53 108.201 1200.68 108.525C1202.46 109.319 1204.08 109.791 1205.93 110.39C1209.81 111.892 1213.57 113.578 1214.9 107.713C1221.09 105.88 1227.28 104.024 1233.48 102.223C1236.43 101.367 1236.87 99.9428 1235.32 97.227C1229.84 87.6483 1224.47 78.0047 1219.23 68.292C1216.32 62.8896 1211.43 60.2416 1206.09 58.1777C1199.15 55.4951 1192.14 53.0121 1184.97 50.1767C1198.85 49.8397 1212.92 49.7692 1227.49 50.0676C1234.71 64.9376 1241.41 79.4412 1248.13 93.9376C1249.39 96.659 1250.89 98.9459 1254.31 96.5439C1254.28 96.5416 1254.26 96.579 1254.54 96.5812C1257.78 98.0847 1260.7 98.6359 1263.86 96.9038C1264.57 96.5139 1265.9 97.2475 1266.79 97.5753C1266.61 97.9324 1266.57 98.1779 1266.53 98.4235C1266.86 98.2664 1267.18 98.1094 1267.86 97.8523C1270.16 97.3461 1272.11 96.94 1274.13 96.6533C1274.21 96.7728 1274.31 97.0465 1274.15 97.3988C1272.61 99.2876 1271.52 101.413 1269.81 102.269C1254.06 110.123 1237.5 115.491 1220 117.838C1217.93 118.117 1215.97 119.307 1213.96 120.075C1214.08 120.876 1214.2 121.676 1214.32 122.477C1217.65 122.527 1221.03 122.908 1224.32 122.549C1228.81 122.059 1233.23 121.005 1238.03 120.416C1244.71 120.725 1251.11 121.392 1257.38 120.795C1280.2 118.622 1302.55 113.788 1324.71 108.071C1325.95 107.75 1327.08 106.961 1328.26 106.39C1323.03 103.395 1317.85 101.7 1312.72 99.8603C1307.25 97.9018 1301.84 95.8059 1296.15 93.5317C1282.45 88.2386 1269.01 83.1837 1255.54 77.7402C1256.67 71.7306 1257.93 66.127 1258.86 60.4689C1259 59.6526 1257.53 58.5743 1256.47 57.6309C1249.65 59.5409 1243.18 61.4372 1236.44 63.1173C1234.38 58.8148 1232.58 54.7285 1231.24 50.6281C1243.84 50.5991 1255.98 50.5842 1268.12 50.5693C1280.14 53.9978 1292.14 57.5125 1304.19 60.8164C1309.78 62.3501 1315.49 63.4739 1321.67 64.4138C1321.79 63.1342 1321.4 62.2242 1321.24 61.042C1326.84 59.9184 1332.23 59.2355 1337.54 58.1505C1340.54 57.5382 1341.35 58.8247 1341.43 61.3471C1341.47 62.6333 1341.43 63.9219 1341.17 65.2248C1340.72 65.2489 1340.55 65.2578 1340.18 65.1225C1339.14 64.3294 1338.3 63.6804 1336.45 62.249C1337.4 64.5218 1337.79 65.435 1337.83 66.4654C1330.71 67.8274 1323.9 68.9475 1317.16 70.3997C1315.34 70.793 1313.73 72.1907 1311.91 73.3467C1312.59 74.061 1313.42 75.0244 1314.19 74.9776C1320.79 74.5733 1327.38 73.8381 1333.99 73.5235C1336.89 73.3851 1339.84 73.9919 1342.81 74.2646C1343.25 70.235 1348 70.9803 1351.21 70.4979C1355.45 69.8587 1360.4 73.9601 1360.72 77.4654C1361.78 76.9189 1362.77 76.4102 1363.99 76.1657C1368.69 77.9397 1373.12 79.6212 1377.67 80.8273C1378.69 81.0963 1380.14 79.695 1381.59 78.9718C1380.77 77.5946 1379.76 76.3082 1378.48 74.696C1382.02 74.1133 1385.29 73.3704 1388.59 73.1801C1389.38 73.1343 1390.8 74.8108 1391.03 75.8874C1391.62 78.6436 1391.7 81.5079 1391.88 83.3635C1395.61 84.6554 1398.79 85.7551 1402.21 87.0939C1405.67 88.7292 1408.96 90.0557 1409.53 94.7147C1414.5 91.3204 1418.07 94.6472 1421.59 97.3135C1423.75 98.9528 1425.59 101.11 1427.3 103.251C1434.25 111.947 1441.91 119.393 1454.05 119.513C1446.5 122.612 1439.12 126.269 1431.35 128.694C1415.6 133.611 1399.65 137.862 1383.09 142.411C1373.28 137.596 1364.15 132.759 1355.03 127.61C1355.05 126.885 1355.06 126.471 1355.08 125.804C1351.79 123.965 1348.48 122.379 1343.77 120.115C1344.47 123.431 1344.82 125.116 1345.31 127.041C1344.79 127.881 1344.11 129.002 1343.47 128.973C1342.13 128.911 1340.8 128.254 1339.15 127.687C1331.86 123.411 1327.29 123.752 1321.29 128.822C1320.27 128.832 1319.59 128.84 1318.87 128.853C1318.84 128.858 1318.83 128.798 1318.68 128.524C1316.69 128.129 1314.86 128.008 1312.7 127.88C1311.08 127.786 1309.69 127.999 1308.55 127.561C1301.8 124.961 1297.35 125.079 1295.03 129.158C1292.44 133.709 1284.92 132.08 1284.22 138.463C1284.2 138.586 1284.37 138.727 1284.76 139.378C1288.67 136.855 1292.59 134.324 1297.46 131.177C1295.68 134.721 1294.5 137.06 1292.96 139.443C1288.37 140.974 1284.21 143.332 1279.89 143.701C1275.64 144.065 1274.06 145.566 1273.86 149.384C1273.87 149.37 1273.9 149.341 1273.62 149.349C1272.52 150.741 1271.69 152.125 1270.68 153.482C1269.94 153.694 1269.39 153.932 1268.57 154.223C1267.95 154.388 1267.6 154.502 1266.93 154.763C1263.29 156.41 1259.97 157.909 1256.66 159.407C1253.87 160.279 1251.09 161.15 1247.9 162.074C1245.66 159.885 1243.83 157.643 1242.16 155.007C1248.27 153.173 1254.22 151.734 1260.17 150.295C1260.05 149.886 1259.94 149.476 1259.82 149.067C1254.87 150.165 1249.96 151.509 1244.96 152.256C1242.46 152.629 1239.8 151.911 1237.21 151.686C1235.54 150.617 1233.86 149.548 1232.11 148.092C1233.24 147.243 1234.45 146.78 1236.06 146.325C1248.62 144.075 1260.76 141.817 1272.91 139.559C1272.78 138.923 1272.65 138.287 1272.52 137.651C1260.25 140.272 1247.98 142.894 1235.33 145.499C1231.78 145.247 1228.62 145.01 1225.46 144.774ZM1386.24 94.1093C1368.69 99.6506 1350.62 102.281 1332.38 104.527C1336.09 104.984 1339.79 104.941 1343.4 104.368C1358.94 101.904 1374.72 100.507 1389.54 94.6247C1391.88 93.6972 1394.05 92.3666 1396.3 91.2224C1396.08 90.8059 1395.86 90.3895 1395.64 89.973C1392.74 91.2444 1389.83 92.5158 1386.24 94.1093ZM1344.52 78.0851C1344.63 77.9862 1344.74 77.8873 1344.85 77.7884C1344.74 77.8038 1344.62 77.8193 1344.52 78.0851Z" fill="#897F49"/>
<path d="M1254.33 96.5459C1250.89 98.9455 1249.39 96.6586 1248.13 93.9372C1241.41 79.4408 1234.71 64.9372 1227.95 50.0958C1228.3 49.7229 1228.71 49.6903 1229.56 49.8753C1230.23 50.3245 1230.49 50.5075 1230.78 50.6418C1232.58 54.7281 1234.38 58.8144 1236.51 63.461C1239.76 70.2295 1242.69 76.4375 1245.71 82.9944C1246.85 85.6333 1247.9 87.9235 1249.44 91.3101C1250.26 88.7175 1250.7 87.672 1250.91 86.5816C1252.56 78.1121 1254.16 69.6339 1255.85 60.8664C1255.99 60.3851 1256.06 60.1957 1256.34 59.9529C1256.8 59.7031 1256.89 59.4473 1256.83 58.8783C1256.82 58.2885 1256.82 57.9527 1256.81 57.6169C1257.53 58.5739 1259 59.6522 1258.86 60.4685C1257.93 66.1266 1256.67 71.7302 1255.41 78.098C1254.39 83.0697 1253.23 87.2638 1252.69 91.5359C1252.49 93.1111 1253.74 94.8705 1254.33 96.5459Z" fill="#CDAF7D"/>
<path d="M1231.24 50.6283C1230.49 50.508 1230.23 50.325 1229.87 49.9095C1242.15 49.7021 1254.59 49.6786 1267.47 49.6667C1267.92 49.6784 1268.02 50.1237 1268.07 50.3466C1255.98 50.5844 1243.84 50.5993 1231.24 50.6283Z" fill="#877B64"/>
<path d="M1341.43 65.2095C1341.43 63.922 1341.47 62.6333 1341.43 61.3471C1341.35 58.8247 1340.54 57.5383 1337.54 58.1505C1332.23 59.2355 1326.84 59.9184 1320.78 61.0513C1318.54 61.3971 1317.01 61.4611 1315.47 61.5251C1315.47 61.5251 1315.17 61.4795 1314.84 61.1435C1312.69 59.3639 1310.89 57.9202 1309.08 56.4562C1309.08 56.4358 1309.12 56.4494 1309.38 56.3894C1310.1 56.0728 1310.56 55.8162 1311.22 55.4975C1311.43 55.4355 1311.85 55.3557 1312.13 55.3161C1312.92 55.05 1313.43 54.8235 1314.19 54.555C1314.6 54.4961 1314.77 54.4792 1315.25 54.4516C1316.33 54.1582 1317.1 53.8756 1318.14 53.5298C1318.77 53.4322 1319.14 53.3978 1319.74 53.2655C1320.25 52.9839 1320.53 52.8003 1321.13 52.5739C1321.88 52.505 1322.31 52.4788 1323.03 52.5848C1324.41 52.5429 1325.52 52.4184 1326.61 52.1869C1334.29 50.5476 1341.96 49.2155 1349.47 53.1582C1349.13 54.8927 1348.82 56.2671 1348.11 57.5818C1342.14 57.4318 1342.87 61.7806 1342.08 65.2195C1341.86 65.2265 1341.43 65.2095 1341.43 65.2095Z" fill="#D6AC76"/>
<path d="M1309.08 56.4766C1310.89 57.9202 1312.69 59.3639 1314.71 61.0558C1301.88 57.8957 1288.83 54.4873 1275.78 51.0788C1275.84 50.7414 1275.9 50.404 1275.97 50.0666C1277.04 50.0079 1278.11 49.9491 1279.5 49.8577C1281.25 49.9451 1282.67 50.0651 1284.38 50.0424C1287.52 49.8475 1290.37 49.7953 1293.75 50.1519C1299.21 52.5326 1304.15 54.5046 1309.08 56.4766Z" fill="#C5A887"/>
<path d="M1315.72 61.7645C1317 61.4614 1318.54 61.3974 1320.54 61.324C1321.4 62.2246 1321.79 63.1345 1321.93 64.2355C1319.78 63.619 1317.88 62.8113 1315.72 61.7645Z" fill="#C5A887"/>
<path d="M1323.03 52.5848C1324.77 51.6774 1326.8 50.9021 1329.13 50.0048C1329.62 49.8554 1329.82 49.8281 1330.31 49.7028C1338.07 49.6337 1345.55 49.6625 1353.45 49.8018C1354.11 50.3221 1354.36 50.732 1354.41 51.2666C1352.65 51.8602 1351.08 52.3292 1349.51 52.7981C1341.96 49.2155 1334.29 50.5476 1326.61 52.1869C1325.52 52.4185 1324.41 52.543 1323.03 52.5848Z" fill="#C5A887"/>
<path d="M1343.97 48.0428C1343.76 48.1729 1343.39 48.2427 1342.75 48.2276C1342.92 48.0893 1343.37 48.0359 1343.97 48.0428Z" fill="#D7AB74"/>
<path d="M1454.4 119.477C1441.91 119.393 1434.25 111.946 1427.3 103.251C1425.59 101.11 1423.75 98.9527 1421.59 97.3133C1418.07 94.647 1414.5 91.3202 1409.53 94.7146C1408.96 90.0555 1405.67 88.729 1402.18 86.7242C1401.61 84.4263 1401.32 82.7371 1401.38 81.0009C1402.79 80.5215 1403.85 80.0891 1405.23 79.588C1406.13 78.6895 1406.7 77.8596 1407.5 76.913C1409.82 75.547 1411.91 74.2979 1414.34 72.9965C1417.95 72.6226 1421.23 72.3011 1424.5 71.9795C1426.18 71.9898 1427.85 72.0002 1430.3 72.0543C1431.82 72.0808 1432.56 72.0634 1433.3 72.0461C1433.47 72.0749 1433.65 72.1037 1434.34 72.389C1437.59 72.8939 1440.33 73.1423 1443.06 73.3907C1443.23 73.3681 1443.41 73.3456 1444.09 73.4041C1445.42 73.6176 1446.23 73.75 1447.04 73.8825C1448.04 73.9723 1449.05 74.0621 1450.7 74.3959C1453.17 75.0231 1454.99 75.4062 1456.81 75.7892C1456.81 75.7892 1457.25 75.9242 1457.49 76.2156C1457.73 76.5071 1457.79 76.9561 1457.73 77.2937C1456.16 78.5588 1454.76 79.9973 1453.14 80.2953C1450.64 80.7561 1447.97 80.2392 1445.42 80.5418C1444.32 80.6726 1443.34 81.8133 1442.3 82.4953C1443.34 83.4499 1444.34 85.1236 1445.44 85.1954C1447.22 85.3114 1449.07 84.3826 1450.88 83.8765C1451.76 83.6312 1453.08 82.8373 1453.43 83.1519C1458.17 87.3715 1461 84.0934 1463.83 80.6711C1464.62 81.5289 1465.42 82.3866 1466.57 83.7689C1469.67 85.4893 1472.4 86.6852 1475.13 87.8811C1475.13 87.8811 1475.2 87.9307 1475.35 88.252C1477.35 89.9506 1479.2 91.3277 1481.05 92.7048C1481.06 93.1278 1481.07 93.5508 1480.87 94.5455C1480.22 96.5331 1479.78 97.9491 1479.34 99.365C1479.3 99.5448 1479.26 99.7247 1478.88 100.332C1478.16 101.676 1477.79 102.594 1477.42 103.511C1477.33 103.91 1477.25 104.308 1476.81 105.14C1475.74 106.77 1475.03 107.966 1474.31 109.162C1474.31 109.162 1474.31 109.206 1474.01 109.336C1472.65 110.747 1471.6 112.028 1470.55 113.308C1466.38 118.188 1460.63 118.994 1454.4 119.477ZM1444.63 104.131C1447.52 109.821 1449.93 105.924 1452.01 103.535C1452.87 102.541 1453.48 99.8505 1452.95 99.398C1451.6 98.2507 1448.69 96.889 1447.96 97.4948C1446.28 98.8694 1445.54 101.376 1444.63 104.131Z" fill="#D5AB76"/>
<path d="M1293.32 139.399C1294.5 137.06 1295.68 134.721 1297.46 131.177C1292.58 134.324 1288.66 136.855 1284.76 139.378C1284.37 138.727 1284.2 138.586 1284.22 138.464C1284.92 132.08 1292.44 133.709 1295.03 129.158C1297.35 125.079 1301.8 124.962 1308.55 127.561C1309.69 127.999 1311.08 127.786 1312.99 128.091C1315.37 128.472 1317.1 128.635 1318.83 128.798C1318.83 128.798 1318.84 128.858 1319.07 129.108C1322.2 131.671 1324.85 132.306 1328.93 131.197C1333.26 130.018 1338.28 131.263 1342.99 131.597C1344.34 131.693 1345.66 132.3 1347.33 132.768C1347.66 130.907 1347.9 129.584 1348.19 127.921C1350.55 127.921 1352.78 127.921 1355.02 127.921C1364.15 132.759 1373.28 137.597 1382.71 142.517C1384.45 143.303 1386.03 143.801 1387.24 144.766C1388.35 145.647 1389.05 147.033 1389.94 148.197C1389.58 148.608 1389.22 149.02 1388.86 149.431C1384.29 147.641 1379.6 146.106 1375.19 144C1368.81 140.958 1362.69 137.589 1355.15 138.666C1353.48 138.904 1351.57 137.425 1349.1 136.472C1345.02 136.311 1341.61 136.414 1338.22 136.17C1335.86 132.11 1332.43 132.024 1328.39 136.515C1330.64 136.515 1332.07 136.515 1333.21 136.708C1331.34 136.968 1329.78 137.047 1328.21 137.1C1323.14 137.272 1318.07 137.435 1312.76 137.745C1312.01 138.024 1311.48 138.159 1310.68 138.174C1309.32 137.27 1308.24 136.488 1307.49 135.622C1308.83 135.021 1309.84 134.504 1310.85 133.988C1310.74 133.335 1310.63 132.683 1310.52 132.031C1307.59 132.222 1304.61 132.162 1301.76 132.75C1300.83 132.942 1300.25 134.829 1299.52 135.941C1300.74 136.115 1301.95 136.289 1303.18 136.846C1303.21 137.994 1303.22 138.759 1302.92 139.77C1299.98 140.258 1297.36 140.5 1294.49 140.53C1293.94 140.011 1293.63 139.705 1293.32 139.399ZM1299.76 131.036C1299.67 131.103 1299.58 131.169 1299.49 131.236C1299.56 131.324 1299.62 131.472 1299.7 131.483C1299.79 131.493 1299.88 131.367 1299.76 131.036Z" fill="#D3AC7A"/>
<path d="M1292.96 139.442C1293.63 139.704 1293.94 140.01 1294.65 140.793C1295.53 142.375 1296.01 143.481 1296.36 144.306C1302.97 143.609 1309.2 142.953 1315.86 142.326C1318.19 142.63 1320.09 142.905 1321.98 143.18C1322.15 143.672 1322.32 144.164 1322.49 144.656C1320.93 145.9 1319.36 147.143 1317.39 148.368C1311.56 146.752 1306.26 146.947 1299.9 149.572C1301.76 150.074 1302.47 150.266 1303.2 150.749C1303.23 151.427 1303.24 151.814 1303.25 152.202C1299.97 152.573 1296.68 152.945 1292.56 153.329C1288.37 153.72 1285.02 154.098 1281.68 154.475C1280.63 154.6 1279.58 154.724 1277.86 154.781C1276.09 154.89 1275 155.065 1273.91 155.241C1273.91 155.241 1273.69 155.406 1273.23 155.452C1272.18 155.699 1271.58 155.9 1270.98 156.101C1270.81 156.136 1270.64 156.171 1270 156.059C1268.78 155.479 1268.01 155.047 1267.25 154.615C1267.6 154.501 1267.95 154.388 1268.84 154.178C1269.87 153.89 1270.37 153.699 1270.87 153.509C1271.69 152.124 1272.52 150.74 1273.63 149.675C1275.6 149.749 1277.28 149.504 1278.96 149.258C1278.8 148.719 1278.63 148.18 1278.46 147.642C1276.92 148.227 1275.38 148.813 1273.84 149.398C1274.06 145.566 1275.64 144.065 1279.89 143.701C1284.21 143.331 1288.37 140.974 1292.96 139.442Z" fill="#D2AB7B"/>
<path d="M1315.42 142.298C1309.2 142.953 1302.98 143.609 1296.36 144.306C1296.01 143.481 1295.53 142.376 1294.9 141.006C1297.36 140.5 1299.98 140.258 1303.31 139.774C1306.33 139.12 1308.65 138.707 1310.96 138.295C1311.49 138.159 1312.01 138.024 1313.22 137.762C1319.58 138.195 1325.26 138.755 1330.94 139.314C1329.9 139.949 1328.87 140.584 1327.22 141.521C1322.88 141.982 1319.15 142.14 1315.42 142.298Z" fill="#614D51"/>
<path d="M1303.19 150.459C1302.47 150.267 1301.76 150.074 1299.9 149.573C1306.26 146.948 1311.56 146.752 1317.68 148.571C1319.88 149.321 1321.39 149.848 1322.91 150.376C1322.65 151.163 1322.39 151.95 1321.89 152.636C1319.93 151.888 1318.26 150.801 1316.51 150.68C1312.09 150.375 1307.63 150.504 1303.19 150.459Z" fill="#5B454D"/>
<path d="M1331.31 139.266C1325.26 138.755 1319.58 138.195 1313.45 137.618C1318.07 137.435 1323.14 137.272 1328.21 137.1C1329.78 137.046 1331.34 136.968 1333.45 136.524C1335.39 136.271 1336.79 136.394 1338.2 136.517C1341.61 136.414 1345.02 136.31 1348.76 136.363C1343.29 137.419 1337.48 138.318 1331.31 139.266Z" fill="#C9A685"/>
<path d="M1323.19 150.394C1321.39 149.848 1319.88 149.321 1318.08 148.59C1319.36 147.144 1320.93 145.9 1322.49 144.656C1322.32 144.164 1322.15 143.672 1321.98 143.18C1320.09 142.905 1318.19 142.63 1315.86 142.326C1319.15 142.14 1322.87 141.982 1327.03 141.851C1328.19 142.376 1328.92 142.875 1330.31 143.827C1327.81 144.408 1326.06 144.815 1324.31 145.223C1321.75 146.757 1329.25 149.845 1323.19 150.394Z" fill="#B39994"/>
<path d="M1303.21 150.749C1307.63 150.504 1312.08 150.375 1316.51 150.68C1318.26 150.8 1319.93 151.888 1321.71 152.895C1321.61 153.295 1321.44 153.335 1320.64 153.388C1318.97 153.348 1317.94 153.296 1316.91 153.244C1312.55 152.979 1308.19 152.714 1303.54 152.325C1303.24 151.814 1303.23 151.427 1303.21 150.749Z" fill="#B59787"/>
<path d="M1266.93 154.763C1268.01 155.047 1268.78 155.479 1269.75 156.077C1265.53 157.448 1261.1 158.654 1256.67 159.634C1259.97 157.908 1263.29 156.41 1266.93 154.763Z" fill="#C3A183"/>
<path d="M1282.07 154.592C1285.02 154.098 1288.37 153.72 1292.16 153.351C1289.23 153.81 1285.85 154.259 1282.07 154.592Z" fill="#C3A183"/>
<path d="M1470.87 113.233C1471.6 112.028 1472.65 110.747 1473.99 109.337C1473.81 110.351 1473.35 111.495 1472.71 112.888C1472.09 113.144 1471.64 113.151 1470.87 113.233Z" fill="#BFA98E"/>
<path d="M1274.29 155.259C1275 155.065 1276.1 154.89 1277.46 154.826C1276.71 155.051 1275.7 155.164 1274.29 155.259Z" fill="#C3A183"/>
<path d="M1317.16 153.409C1317.94 153.296 1318.97 153.348 1320.38 153.45C1319.65 153.524 1318.53 153.549 1317.16 153.409Z" fill="#5B454D"/>
<path d="M1271.31 156.148C1271.58 155.9 1272.18 155.699 1273.1 155.47C1272.83 155.693 1272.24 155.944 1271.31 156.148Z" fill="#C3A183"/>
<path d="M1401.02 81.0476C1401.32 82.7369 1401.61 84.4261 1401.94 86.4848C1398.79 85.7547 1395.61 84.655 1391.88 83.3631C1391.7 81.5076 1391.62 78.6432 1391.03 75.887C1390.8 74.8105 1389.38 73.134 1388.59 73.1798C1385.29 73.37 1382.02 74.113 1378.48 74.6957C1379.76 76.3078 1380.77 77.5942 1381.26 78.8361C1375.24 77.2834 1369.75 75.7752 1363.98 74.0966C1361.95 72.6851 1360.61 71.3702 1363.15 69.3438C1363.38 69.2731 1363.85 69.16 1364.02 69.0351C1364.4 68.7365 1364.6 68.5496 1365.13 68.3405C1365.94 68.3476 1366.4 68.3638 1366.96 68.418C1367.06 68.4559 1367.39 68.4676 1367.39 68.4676C1367.39 68.4676 1367.71 68.3699 1368.09 68.3333C1369.5 68.2306 1370.52 68.1645 1371.83 68.0425C1372.62 67.7224 1373.13 67.4582 1373.66 66.9696C1373.69 66.7452 1373.74 66.2948 1373.74 66.2948C1382.03 65.2147 1390.31 64.0521 1398.62 63.1314C1400.1 62.9673 1401.69 63.8065 1403.64 64.5517C1404.11 65.1131 1404.16 65.3052 1403.94 65.6043C1402.13 66.436 1399.14 66.0258 1400.56 69.3175C1398.01 70.3179 1395.81 71.2866 1392.87 72.5826C1394.8 73.0772 1395.74 73.3156 1397.52 73.7717C1392.06 75.7722 1392.6 78.5284 1394.41 81.0476C1397.13 81.0476 1399.07 81.0476 1401.02 81.0476Z" fill="#D2AD7A"/>
<path d="M1463.7 80.3829C1461 84.0929 1458.17 87.371 1453.43 83.1514C1453.08 82.8368 1451.76 83.6308 1450.88 83.876C1449.07 84.3822 1447.22 85.3109 1445.44 85.1949C1444.34 85.1231 1443.34 83.4494 1442.3 82.4948C1443.34 81.8129 1444.32 80.6721 1445.42 80.5413C1447.97 80.2387 1450.64 80.7556 1453.14 80.2948C1454.76 79.9969 1456.16 78.5584 1457.97 77.2791C1458.45 76.9126 1458.61 76.8979 1458.78 76.8833C1458.78 76.8833 1458.8 76.9092 1458.95 77.0995C1459.29 77.5091 1459.53 77.6984 1459.78 77.8579C1461.04 78.6037 1462.31 79.3494 1463.7 80.3829Z" fill="#BFA98E"/>
<path d="M1410.45 67.2484C1411 68.3583 1411.33 69.3601 1411.35 70.729C1408.96 71.8335 1406.88 72.571 1404.73 72.9099C1405.42 70.3801 1406.19 68.2488 1407.2 66.0796C1407.61 66.0021 1407.78 65.9626 1407.94 65.9231C1408.13 66.0024 1408.31 66.0817 1408.86 66.4105C1409.39 66.8061 1409.58 66.8993 1409.79 66.9396C1409.79 66.9396 1410.23 67.1402 1410.45 67.2484Z" fill="#CFAE7C"/>
<path d="M1474.87 87.6785C1472.4 86.6857 1469.67 85.4898 1466.77 83.9871C1469.27 84.9453 1471.94 86.2103 1474.87 87.6785Z" fill="#BFA98E"/>
<path d="M1442.73 73.1784C1440.33 73.1423 1437.59 72.8939 1434.6 72.4248C1437.02 72.4581 1439.71 72.7121 1442.73 73.1784Z" fill="#A0AA9F"/>
<path d="M1481 92.382C1479.2 91.3278 1477.35 89.9507 1475.38 88.2859C1477.16 89.3518 1479.06 90.7054 1481 92.382Z" fill="#BFA98E"/>
<path d="M1456.56 75.5472C1454.99 75.4064 1453.17 75.0233 1451.08 74.4294C1452.64 74.5808 1454.48 74.9429 1456.56 75.5472Z" fill="#A0AA9F"/>
<path d="M1479.58 99.1496C1479.78 97.9488 1480.22 96.5329 1480.86 94.8623C1480.64 96.0499 1480.23 97.4921 1479.58 99.1496Z" fill="#BFA98E"/>
<path d="M1474.58 109.006C1475.03 107.966 1475.74 106.77 1476.72 105.431C1476.27 106.476 1475.56 107.663 1474.58 109.006Z" fill="#BFA98E"/>
<path d="M1477.64 103.311C1477.79 102.593 1478.17 101.676 1478.8 100.597C1478.66 101.327 1478.27 102.22 1477.64 103.311Z" fill="#BFA98E"/>
<path d="M1404.22 65.498C1404.16 65.3059 1404.11 65.1138 1403.97 64.6322C1404.85 64.4686 1405.81 64.5945 1406.84 64.985C1406.91 65.2497 1406.79 65.359 1406.46 65.3348C1405.5 65.373 1404.86 65.4355 1404.22 65.498Z" fill="#A0AA9F"/>
<path d="M1433.08 71.9065C1432.56 72.0635 1431.82 72.0808 1430.72 72.0405C1431.19 71.9108 1432.02 71.8388 1433.08 71.9065Z" fill="#A0AA9F"/>
<path d="M1407.8 65.7807C1407.78 65.9622 1407.61 66.0017 1407.16 65.8898C1406.87 65.7383 1406.79 65.3585 1406.79 65.3585C1406.79 65.3585 1406.91 65.2492 1406.97 65.1941C1407.25 65.2936 1407.46 65.4601 1407.8 65.7807Z" fill="#A0AA9F"/>
<path d="M1409.68 66.825C1409.58 66.8991 1409.39 66.8058 1409.13 66.543C1409.24 66.4732 1409.42 66.568 1409.68 66.825Z" fill="#A0AA9F"/>
<path d="M1459.64 77.6866C1459.53 77.6994 1459.3 77.51 1458.94 77.1191C1459.06 77.1053 1459.29 77.2942 1459.64 77.6866Z" fill="#A0AA9F"/>
<path d="M1458.62 76.7182C1458.61 76.899 1458.45 76.9137 1458.04 76.9425C1457.79 76.9567 1457.73 76.5077 1457.71 76.2819C1457.99 76.1746 1458.24 76.3399 1458.62 76.7182Z" fill="#A0AA9F"/>
<path d="M1181.82 102.409C1180.2 105.976 1178.58 109.543 1176.66 113.663C1175.88 114.851 1175.41 115.485 1174.77 116.257C1174.42 116.595 1174.25 116.816 1174.11 117.076C1174.12 117.091 1174.08 117.096 1173.93 117.319C1173.61 118.058 1173.45 118.574 1173.33 119.064C1173.38 119.038 1173.47 119.094 1173.24 119.363C1172.75 120.755 1172.49 121.879 1172.23 123.003C1171.63 123.496 1171.03 123.989 1169.96 124.711C1169.12 124.947 1168.74 124.953 1168.17 124.841C1167.4 125.121 1166.83 125.52 1166.27 125.902C1166.28 125.885 1166.31 125.855 1166.06 126.035C1165.64 126.773 1165.47 127.332 1165.31 127.876C1165.32 127.862 1165.35 127.834 1165 127.835C1161.62 129.474 1158.59 131.112 1155.56 132.75C1155.22 132.314 1154.89 131.877 1154.55 131.441C1156.45 124.105 1158.3 116.754 1160.27 109.437C1163.29 98.2181 1166.27 86.9819 1169.61 75.8581C1170.17 73.9833 1172.5 72.6371 1174.33 71.2002C1175.78 72.5764 1177.06 73.6931 1178.01 75.0435C1180.03 77.9036 1181.87 80.8856 1183.78 83.8176C1183.8 84.8778 1183.82 85.938 1183.62 87.6774C1180.04 92.3979 1181.82 97.0101 1181.9 101.679C1181.84 102.082 1181.83 102.245 1181.82 102.409Z" fill="#D7AD74"/>
<path d="M1174 71.047C1172.49 72.6374 1170.17 73.9836 1169.61 75.8584C1166.27 86.9822 1163.29 98.2185 1160.27 109.437C1158.3 116.754 1156.45 124.105 1154.55 131.441C1154.89 131.878 1155.22 132.314 1155.55 132.751C1158.59 131.112 1161.62 129.474 1164.93 128.157C1163.93 130.234 1162.66 131.989 1161.38 133.745C1161.38 133.745 1161.4 133.722 1161.16 133.833C1160.66 134.212 1160.39 134.48 1160.13 134.748C1154.39 138.466 1148.24 137.332 1146.2 131.086C1144.49 125.867 1143.76 119.883 1144.41 114.452C1145.26 107.294 1147.88 100.346 1150.13 92.9879C1150.88 92.6098 1151.24 92.5508 1152 92.5322C1155.54 93.2195 1158.68 93.8663 1162.87 94.7311C1165 86.6329 1167.16 78.4056 1169.29 70.1569C1169.26 70.1355 1169.21 70.1942 1169.44 70.0773C1169.88 69.6987 1170.1 69.4372 1170.59 69.3003C1171.92 69.9656 1172.96 70.5063 1174 71.047Z" fill="#8A7F49"/>
<path d="M1169.32 70.1777C1167.16 78.4051 1165 86.6324 1162.87 94.7306C1158.68 93.8658 1155.54 93.219 1152.05 92.1808C1152.61 88.7444 1153.52 85.6995 1154.43 82.6545C1154.53 82.4099 1154.68 82.1958 1155.27 81.7004C1155.91 80.8535 1156.17 80.3183 1156.43 79.7832C1156.43 79.7832 1156.51 79.3702 1156.83 79.0267C1157.54 78.0294 1157.93 77.3756 1158.31 76.7218C1158.31 76.7218 1158.38 76.3618 1158.77 76.1051C1160.24 74.6365 1161.32 73.4246 1162.41 72.2127C1162.41 72.2127 1162.46 72.1472 1162.84 72.0917C1165.25 71.4167 1167.28 70.7972 1169.32 70.1777Z" fill="#D4AD77"/>
<path d="M1235.66 146.316C1234.45 146.78 1233.24 147.243 1231.78 147.915C1219.1 150.532 1206.69 152.977 1194.25 155.329C1190.53 156.033 1186.76 156.477 1183.01 157.04C1182.86 156.436 1182.71 155.831 1182.56 155.227C1186.66 154.057 1190.72 152.658 1194.88 151.765C1203.93 149.825 1213.04 148.161 1222.12 146.329C1223.05 146.141 1223.9 145.574 1225.12 144.978C1228.62 145.01 1231.78 145.247 1235.32 145.7C1235.69 145.916 1235.66 146.316 1235.66 146.316Z" fill="#B5AE96"/>
<path d="M1236.82 151.787C1239.8 151.911 1242.46 152.629 1244.96 152.256C1249.96 151.509 1254.87 150.165 1259.82 149.067C1259.94 149.477 1260.05 149.886 1260.17 150.295C1254.22 151.734 1248.27 153.173 1241.99 154.714C1230.06 157.359 1218.48 159.9 1206.89 162.441C1206.65 161.82 1206.4 161.199 1206.15 160.578C1207.43 159.832 1208.63 158.751 1210.02 158.395C1218.8 156.136 1227.62 154.039 1236.82 151.787Z" fill="#BFAF8D"/>
<path d="M1181.96 101.441C1181.82 97.0106 1180.04 92.3983 1183.6 88.0747C1183.84 87.9418 1183.98 88.11 1183.95 88.2381C1181.76 97.6223 1187.31 100.634 1195.09 102.341C1201.51 103.75 1207.79 105.816 1214.51 107.652C1213.57 113.578 1209.81 111.892 1205.72 110.088C1203.7 109.173 1202.11 108.687 1200.53 108.201C1200.53 108.201 1200.53 108.263 1200.36 107.952C1197.68 106.854 1195.17 106.068 1192.67 105.281C1192.67 105.281 1192.7 105.342 1192.52 105.013C1191.16 104.543 1189.97 104.402 1188.79 104.261C1188.79 104.261 1188.8 104.323 1188.72 103.95C1186.73 103.157 1184.82 102.737 1182.92 102.316C1182.92 102.316 1182.96 102.371 1183.01 102.058C1182.69 101.643 1182.33 101.542 1181.96 101.441Z" fill="#C3AC88"/>
<path d="M1163.56 148.427C1169.99 147.162 1176.02 145.841 1182.08 144.732C1184.68 144.256 1187.36 144.218 1190.79 143.91C1187.57 147.952 1164.37 152.959 1158.11 150.577C1159.8 149.87 1161.48 149.164 1163.56 148.427Z" fill="#AFAE9A"/>
<path d="M1169.29 70.157C1167.29 70.7978 1165.25 71.4174 1162.88 72.0778C1167.97 66.0953 1176.54 66.6034 1180.54 73.5175C1182.2 76.3797 1182.81 79.8472 1183.83 83.4287C1181.86 80.8861 1180.02 77.9041 1178.01 75.044C1177.06 73.6936 1175.78 72.5768 1174.33 71.2007C1172.96 70.5064 1171.92 69.9658 1170.4 69.4562C1169.69 69.723 1169.45 69.9586 1169.21 70.1943C1169.21 70.1943 1169.26 70.1356 1169.29 70.157Z" fill="#C3AC88"/>
<path d="M1199.03 161.229C1199.85 162.131 1200.32 163.025 1200.78 163.92C1197.48 165.407 1194.2 167.167 1190.23 163.434C1193.04 162.697 1195.86 161.959 1199.03 161.229Z" fill="#B8AE93"/>
<path d="M1177.03 167.81C1179.67 164.883 1182.58 164.397 1186.84 166.581C1183.18 168.528 1180.64 171.016 1177.03 167.81Z" fill="#B5AE96"/>
<path d="M1175.06 155.843C1176.04 156.256 1177.28 156.963 1177.21 157.141C1176.42 159.103 1171.39 159.824 1167.91 157.621C1170.81 156.885 1172.77 156.388 1175.06 155.843Z" fill="#AFAE9A"/>
<path d="M1161.73 133.767C1162.66 131.99 1163.93 130.234 1165.28 128.157C1165.35 127.834 1165.32 127.862 1165.54 127.69C1165.95 126.964 1166.13 126.41 1166.31 125.855C1166.31 125.855 1166.28 125.886 1166.57 125.916C1167.36 125.618 1167.86 125.289 1168.36 124.96C1168.74 124.954 1169.12 124.948 1169.78 124.941C1169.57 126.547 1169.07 128.154 1168.76 129.909C1166.66 131.3 1164.37 132.545 1161.73 133.767Z" fill="#C5AD87"/>
<path d="M1154.15 82.8438C1153.52 85.7 1152.61 88.745 1151.65 92.1409C1151.24 92.5508 1150.88 92.6099 1150.25 92.6783C1151.28 89.4693 1152.58 86.2509 1154.15 82.8438Z" fill="#C3AC88"/>
<path d="M1162.09 72.2725C1161.32 73.4253 1160.24 74.6372 1158.83 75.9347C1159.6 74.7906 1160.69 73.5611 1162.09 72.2725Z" fill="#C3AC88"/>
<path d="M1158.07 76.8818C1157.93 77.3762 1157.54 78.03 1156.9 78.8279C1157.04 78.3284 1157.43 77.6848 1158.07 76.8818Z" fill="#C3AC88"/>
<path d="M1156.23 80.0015C1156.17 80.3185 1155.91 80.8537 1155.42 81.5838C1155.47 81.259 1155.75 80.7393 1156.23 80.0015Z" fill="#C3AC88"/>
<path d="M1160.39 134.631C1160.4 134.48 1160.66 134.212 1161.17 133.823C1161.17 133.972 1160.91 134.243 1160.39 134.631Z" fill="#C5AD87"/>
<path d="M1296.41 93.77C1301.84 95.8059 1307.26 97.9018 1312.72 99.8603C1317.85 101.7 1323.03 103.395 1328.26 106.39C1327.08 106.961 1325.95 107.75 1324.71 108.071C1302.55 113.788 1280.2 118.622 1257.39 120.795C1251.11 121.392 1244.71 120.725 1238.4 120.301C1245.38 117.885 1252.49 116.255 1259.21 113.604C1266.15 110.865 1273.61 108.198 1276.19 99.5386C1283.19 97.5731 1289.8 95.6716 1296.41 93.77Z" fill="#D7AD76"/>
<path d="M1274.14 97.3984C1274.81 97.6768 1275.3 98.3074 1275.8 99.2702C1273.6 108.198 1266.15 110.865 1259.21 113.604C1252.49 116.254 1245.37 117.885 1238.06 120.078C1233.23 121.005 1228.81 122.059 1224.32 122.548C1221.03 122.908 1217.65 122.527 1214.32 122.476C1214.2 121.676 1214.08 120.875 1213.96 120.075C1215.97 119.307 1217.92 118.117 1220 117.838C1237.5 115.491 1254.05 110.123 1269.81 102.268C1271.52 101.413 1272.6 99.2872 1274.14 97.3984Z" fill="#574759"/>
<path d="M1245.61 82.6459C1242.69 76.4379 1239.77 70.2298 1236.77 63.6776C1243.18 61.4372 1249.65 59.5408 1256.47 57.6309C1256.82 57.953 1256.82 58.2888 1256.68 58.9962C1256.34 59.5474 1256.21 59.7603 1256.13 60.0066C1256.06 60.196 1255.99 60.3854 1255.56 60.9856C1252.47 65.1418 1249.21 68.6253 1247.2 72.722C1245.79 75.5973 1246.08 79.3082 1245.61 82.6459Z" fill="#534558"/>
<path d="M1362.92 69.4148C1360.61 71.3706 1361.95 72.6855 1363.9 74.37C1363.98 75.1762 1363.87 75.5389 1363.76 75.9016C1362.77 76.4103 1361.78 76.9189 1360.72 77.4654C1360.4 73.9601 1355.45 69.8587 1351.21 70.498C1348 70.9804 1343.25 70.235 1342.81 74.2646C1339.84 73.992 1336.89 73.3851 1333.99 73.5235C1327.38 73.8381 1320.79 74.5734 1314.19 74.9776C1313.42 75.0245 1312.59 74.0611 1312.37 73.3475C1319.82 72.6728 1326.73 72.4567 1333.57 71.6333C1336.04 71.3364 1340.29 71.2395 1338.17 66.3483C1337.79 65.4351 1337.4 64.5218 1336.45 62.249C1338.3 63.6804 1339.14 64.3294 1340.2 65.4541C1340.64 66.6969 1340.86 68.1331 1341.08 68.133C1346.47 68.1297 1351.86 67.9732 1357.24 67.8444C1357.24 67.8444 1357.7 67.9588 1358.2 68.2453C1360.11 68.8262 1361.52 69.1205 1362.92 69.4148Z" fill="#C8AB81"/>
<path d="M1386.58 93.9484C1389.83 92.5159 1392.74 91.2445 1395.64 89.9731C1395.86 90.3896 1396.08 90.8061 1396.3 91.2226C1394.05 92.3668 1391.88 93.6974 1389.54 94.6249C1374.72 100.507 1358.94 101.904 1343.4 104.368C1339.78 104.941 1336.09 104.984 1332.38 104.528C1350.62 102.281 1368.69 99.6507 1386.58 93.9484Z" fill="#544740"/>
<path d="M1357.22 67.5761C1351.86 67.9733 1346.47 68.1298 1341.08 68.133C1340.86 68.1332 1340.64 66.697 1340.39 65.5983C1340.55 65.2579 1340.72 65.249 1341.17 65.2249C1341.43 65.2096 1341.86 65.2266 1342.45 65.191C1345.09 64.182 1347.15 63.2085 1349.43 62.4802C1350.58 63.8664 1351.51 65.0074 1352.44 66.1484C1352.77 65.9276 1353.1 65.7068 1353.43 65.486C1353.22 64.0032 1353.01 62.5203 1352.81 61.1293C1355.02 60.1797 1356.93 59.3582 1359.2 58.5052C1360.27 58.4518 1360.98 58.4299 1361.7 58.408C1361.08 59.8888 1360.56 61.4145 1359.84 62.8384C1359.06 64.3777 1358.09 65.822 1357.22 67.5761Z" fill="#857B56"/>
<path d="M1337.83 66.4658C1340.29 71.2399 1336.04 71.3368 1333.57 71.6337C1326.73 72.4571 1319.82 72.6733 1312.48 73.1286C1313.73 72.1911 1315.34 70.7935 1317.16 70.4002C1323.9 68.948 1330.71 67.8279 1337.83 66.4658Z" fill="#67564A"/>
<path d="M1355.03 127.611C1352.78 127.921 1350.55 127.921 1348.19 127.921C1347.9 129.584 1347.66 130.907 1347.33 132.768C1345.66 132.3 1344.34 131.693 1342.99 131.597C1338.28 131.263 1333.27 130.018 1328.93 131.197C1324.86 132.306 1322.2 131.671 1319.1 129.103C1319.59 128.84 1320.27 128.833 1321.56 129.069C1322.95 129.409 1323.99 129.878 1324.47 129.542C1329.19 126.237 1334.41 127.83 1339.47 127.84C1340.8 128.254 1342.13 128.911 1343.47 128.973C1344.11 129.002 1344.79 127.881 1345.59 126.812C1348.84 126.248 1351.95 126.152 1355.07 126.057C1355.06 126.471 1355.05 126.886 1355.03 127.611Z" fill="#8B7E4D"/>
<path d="M1363.99 76.1657C1363.87 75.5389 1363.98 75.1762 1364.17 74.5405C1369.75 75.7756 1375.24 77.2838 1381.07 78.9273C1380.15 79.695 1378.69 81.0963 1377.67 80.8273C1373.12 79.6212 1368.7 77.9398 1363.99 76.1657Z" fill="#59484F"/>
<path d="M1236.06 146.325C1235.66 146.317 1235.69 145.916 1235.7 145.715C1247.98 142.894 1260.25 140.272 1272.52 137.651C1272.65 138.287 1272.78 138.923 1272.91 139.559C1260.76 141.817 1248.61 144.075 1236.06 146.325Z" fill="#CDAF7D"/>
<path d="M1254.54 96.5813C1259.58 95.5843 1264.88 94.4103 1270.24 93.7324C1271.44 93.5803 1272.87 95.1643 1274.12 96.2414C1272.1 96.94 1270.16 97.3462 1267.72 97.7272C1267.23 97.702 1266.94 97.4639 1266.94 97.4639C1265.9 97.2476 1264.57 96.514 1263.86 96.9039C1260.7 98.636 1257.78 98.0848 1254.54 96.5813Z" fill="#CDAF7D"/>
<path d="M1339.14 127.688C1334.41 127.83 1329.19 126.237 1324.47 129.542C1323.99 129.878 1322.95 129.409 1321.9 129.066C1327.29 123.753 1331.85 123.411 1339.14 127.688Z" fill="#CDAF7D"/>
<path d="M1355.08 125.804C1351.95 126.152 1348.84 126.247 1345.45 126.572C1344.82 125.116 1344.47 123.431 1343.77 120.115C1348.49 122.379 1351.79 123.965 1355.08 125.804Z" fill="#CFAF7A"/>
<path d="M1173.24 119.363C1177.1 119.06 1180.73 119.024 1184.81 119.003C1181.18 120.331 1177.1 121.645 1172.62 122.982C1172.49 121.879 1172.75 120.756 1173.24 119.363Z" fill="#C5AD87"/>
<path d="M1192.9 105.535C1195.17 106.067 1197.68 106.854 1200.38 107.934C1198.1 107.415 1195.62 106.602 1192.9 105.535Z" fill="#534031"/>
<path d="M1318.68 128.524C1317.1 128.635 1315.37 128.472 1313.33 128.098C1314.86 128.008 1316.69 128.129 1318.68 128.524Z" fill="#8B7E4D"/>
<path d="M1183.16 102.565C1184.83 102.737 1186.73 103.157 1188.75 103.932C1187.04 103.795 1185.22 103.304 1183.16 102.565Z" fill="#534031"/>
<path d="M1200.68 108.524C1202.12 108.687 1203.7 109.173 1205.49 109.96C1204.08 109.791 1202.46 109.319 1200.68 108.524Z" fill="#534031"/>
<path d="M1189.05 104.507C1189.97 104.402 1191.16 104.543 1192.55 104.997C1191.61 105.124 1190.46 104.939 1189.05 104.507Z" fill="#534031"/>
<path d="M1270.68 153.482C1270.37 153.7 1269.87 153.89 1269.11 154.126C1269.39 153.932 1269.94 153.694 1270.68 153.482Z" fill="#C3A183"/>
<path d="M1267.37 97.8276C1267.18 98.1098 1266.86 98.2669 1266.53 98.4239C1266.57 98.1784 1266.61 97.9328 1266.79 97.5758C1266.94 97.4643 1267.23 97.7024 1267.37 97.8276Z" fill="#CDAF7D"/>
<path d="M1344.52 77.9599C1344.62 77.8192 1344.74 77.8038 1344.85 77.7883C1344.74 77.8872 1344.63 77.9861 1344.52 77.9599Z" fill="#C8AB81"/>
<path d="M1181.9 101.679C1182.33 101.541 1182.69 101.643 1183.03 102.036C1182.81 102.361 1182.62 102.394 1182.12 102.418C1181.83 102.245 1181.84 102.082 1181.9 101.679Z" fill="#534031"/>
<path d="M1245.71 82.9945C1246.08 79.308 1245.79 75.597 1247.2 72.7218C1249.21 68.6251 1252.47 65.1416 1255.49 61.2773C1254.16 69.634 1252.56 78.1122 1250.91 86.5817C1250.7 87.6721 1250.26 88.7176 1249.44 91.3102C1247.9 87.9236 1246.85 85.6334 1245.71 82.9945Z" fill="#897F49"/>
<path d="M1256.34 59.9534C1256.21 59.7605 1256.34 59.5475 1256.68 59.2502C1256.89 59.4478 1256.8 59.7036 1256.34 59.9534Z" fill="#897F49"/>
<path d="M1358.84 58.5364C1356.93 59.3579 1355.02 60.1794 1352.81 61.129C1353.01 62.52 1353.22 64.0028 1353.43 65.4857C1353.1 65.7065 1352.77 65.9273 1352.44 66.1481C1351.51 65.0071 1350.58 63.866 1349.4 62.1384C1348.94 60.2484 1348.72 58.9449 1348.51 57.6414C1348.82 56.2669 1349.13 54.8925 1349.47 53.1579C1351.08 52.3289 1352.65 51.86 1354.51 51.4795C1354.88 51.7276 1354.95 51.8872 1355.05 52.6277C1354.2 54.7365 1353.32 56.2645 1352.21 58.1993C1354.99 58.3408 1356.92 58.4386 1358.84 58.5364Z" fill="#59484F"/>
<path d="M1348.11 57.5821C1348.72 58.9455 1348.94 60.249 1349.18 61.8939C1347.15 63.2088 1345.09 64.1822 1342.66 65.1842C1342.87 61.7809 1342.14 57.4322 1348.11 57.5821Z" fill="#897F49"/>
<path d="M1315.25 54.451C1315.7 54.1683 1316.48 53.8749 1317.56 53.5869C1317.1 53.8749 1316.33 54.1576 1315.25 54.451Z" fill="#C5A887"/>
<path d="M1309.38 56.3891C1309.58 56.1829 1310.04 55.9168 1310.76 55.605C1310.56 55.8158 1310.1 56.0725 1309.38 56.3891Z" fill="#C5A887"/>
<path d="M1312.13 55.3159C1312.36 55.1184 1312.87 54.8814 1313.66 54.6206C1313.43 54.8234 1312.92 55.0499 1312.13 55.3159Z" fill="#C5A887"/>
<path d="M1319.74 53.2658C1319.78 53.1672 1320.05 52.9707 1320.57 52.6956C1320.53 52.8006 1320.25 52.9843 1319.74 53.2658Z" fill="#C5A887"/>
<path d="M1359.2 58.5052C1356.92 58.4389 1354.99 58.3411 1352.21 58.1995C1353.32 56.2647 1354.2 54.7368 1355.15 52.8696C1357.38 54.2643 1359.52 55.9981 1361.68 58.07C1360.98 58.4298 1360.27 58.4518 1359.2 58.5052Z" fill="#CDAE83"/>
<path d="M1363.15 69.3437C1361.52 69.1201 1360.11 68.8258 1358.43 68.3193C1359.74 68.1011 1361.33 68.0951 1363.31 68.0495C1363.7 68.01 1363.8 68.1252 1363.84 68.4118C1363.87 68.6985 1363.85 69.1599 1363.85 69.1599C1363.85 69.1599 1363.38 69.2731 1363.15 69.3437Z" fill="#96A69E"/>
<path d="M1401.38 81.0011C1399.07 81.048 1397.13 81.048 1394.41 81.048C1392.6 78.5288 1392.06 75.7726 1397.52 73.7721C1395.74 73.316 1394.8 73.0776 1392.87 72.583C1395.81 71.287 1398.01 70.3183 1400.58 69.7144C1402.27 73.2717 1403.58 76.4643 1404.9 79.6568C1403.85 80.0893 1402.79 80.5217 1401.38 81.0011Z" fill="#8B7E4D"/>
<path d="M1444.52 103.776C1445.54 101.375 1446.28 98.8691 1447.96 97.4945C1448.69 96.8888 1451.6 98.2505 1452.95 99.3977C1453.48 99.8502 1452.88 102.541 1452.01 103.535C1449.93 105.923 1447.53 109.821 1444.52 103.776Z" fill="#C9A685"/>
<path d="M1405.23 79.5882C1403.59 76.4643 1402.27 73.2717 1400.93 69.6826C1399.14 66.0262 1402.13 66.4364 1403.94 65.6047C1404.86 65.4352 1405.5 65.3727 1406.46 65.3345C1406.79 65.3587 1406.87 65.7385 1406.91 65.928C1406.19 68.2486 1405.42 70.3799 1404.77 73.2415C1405.68 74.9912 1406.48 76.0106 1407.28 77.0299C1406.7 77.8598 1406.13 78.6897 1405.23 79.5882Z" fill="#59484F"/>
<path d="M1407.5 76.9135C1406.48 76.0109 1405.68 74.9916 1404.84 73.6404C1406.88 72.5712 1408.96 71.8337 1411.41 71.042C1412.39 71.5154 1413.01 72.043 1413.81 72.8099C1411.91 74.2984 1409.82 75.5475 1407.5 76.9135Z" fill="#8C7C55"/>
<path d="M1303.17 136.464C1301.95 136.289 1300.74 136.115 1299.52 135.941C1300.26 134.829 1300.83 132.942 1301.76 132.75C1304.61 132.162 1307.59 132.223 1310.52 132.031C1310.63 132.683 1310.74 133.336 1310.85 133.988C1309.84 134.505 1308.83 135.021 1307.14 135.628C1305.36 135.967 1304.27 136.215 1303.17 136.464Z" fill="#8A7E4A"/>
<path d="M1338.22 136.171C1336.8 136.394 1335.39 136.271 1333.75 136.332C1332.08 136.515 1330.64 136.515 1328.39 136.515C1332.43 132.024 1335.86 132.11 1338.22 136.171Z" fill="#8B7E4D"/>
<path d="M1303.18 136.846C1304.27 136.215 1305.36 135.967 1306.81 135.712C1308.24 136.488 1309.32 137.27 1310.68 138.173C1308.65 138.707 1306.33 139.12 1303.62 139.528C1303.22 138.759 1303.21 137.994 1303.18 136.846Z" fill="#C9A685"/>
<path d="M1299.87 131.168C1299.89 131.367 1299.79 131.494 1299.71 131.483C1299.62 131.473 1299.56 131.324 1299.49 131.236C1299.58 131.169 1299.67 131.103 1299.87 131.168Z" fill="#897F49"/>
<path d="M1273.86 149.384C1275.38 148.813 1276.92 148.228 1278.46 147.642C1278.63 148.181 1278.8 148.72 1278.97 149.259C1277.28 149.504 1275.6 149.75 1273.91 149.668C1273.9 149.342 1273.87 149.37 1273.86 149.384Z" fill="#897F49"/>
<path d="M1371.83 68.0428C1372.06 67.8462 1372.57 67.5938 1373.36 67.2678C1373.13 67.4585 1372.62 67.7227 1371.83 68.0428Z" fill="#C8AB81"/>
<path d="M1366.96 68.4181C1366.86 68.3802 1367.28 68.3525 1367.49 68.3613C1367.71 68.37 1367.39 68.4677 1367.39 68.4677C1367.39 68.4677 1367.06 68.456 1366.96 68.4181Z" fill="#C8AB81"/>
<path d="M1364.01 69.0354C1363.85 69.1603 1363.87 68.6988 1363.89 68.4691C1363.91 68.2393 1364.35 68.2784 1364.57 68.3141C1364.6 68.5499 1364.39 68.7368 1364.01 69.0354Z" fill="#C8AB81"/>
<path d="M1168.17 124.841C1167.86 125.289 1167.36 125.617 1166.56 125.932C1166.83 125.52 1167.4 125.121 1168.17 124.841Z" fill="#8A7F49"/>
<path d="M1166.07 126.035C1166.13 126.409 1165.95 126.963 1165.53 127.704C1165.47 127.332 1165.64 126.773 1166.07 126.035Z" fill="#8A7F49"/>
<path d="M1173.93 117.32C1173.93 117.619 1173.78 118.141 1173.46 118.877C1173.45 118.575 1173.61 118.059 1173.93 117.32Z" fill="#C5AD87"/>
<path d="M1174.77 116.257C1174.8 116.374 1174.64 116.599 1174.27 116.927C1174.25 116.817 1174.42 116.595 1174.77 116.257Z" fill="#C5AD87"/>
<path d="M1169.44 70.0774C1169.45 69.9587 1169.69 69.723 1170.12 69.3315C1170.1 69.4373 1169.88 69.6989 1169.44 70.0774Z" fill="#D4AD77"/>
<path d="M1292.92 49.8361L1309.15 57.0182L1301.64 57.7858L1292.92 56.0314L1265.62 46.9304L1171.27 14.419L1144.46 5.48252L1141 4.33119L1138.7 4.05707L1134.64 4.33119L1127.19 5.92112L1121.27 9.26546L1121.6 5.92112L1124.78 1.42546L1128.67 0L1135.69 1.42546L1167.87 9.92336L1184.48 16.1734L1189.69 17.1055L1278.29 47.6979L1283.33 49.0137L1292.92 49.8361Z" fill="#D6AC76"/>
<path d="M1192.65 21.9305L1273.57 49.4528L1270.23 52.1392L1259.59 48.4659L1215.46 33.06L1168.25 16.6125L1150.87 10.6365L1146.21 9.15622L1141.72 8.00489L1134.48 6.46979L1129.71 5.37328L1134.7 4.33161L1138.37 4.1123L1140.4 4.33161L1141.99 4.71538L1151.15 7.73077L1192.65 21.9305Z" fill="#564548"/>
<path d="M1193.42 25.4941L1265.46 50.933L1239.74 51.2072H1198.41L1185.47 50.3848L1131.41 23.2463L1127.96 21.163L1124.94 18.641L1123.13 16.119L1122.2 13.8164L1121.6 11.1848L1121.32 9.21106L1124.45 7.45665L1128.18 5.70224L1129.77 5.37329L1136.34 6.9084L1142.81 8.55315L1155.86 12.4457L1193.42 25.4941Z" fill="#897F4A"/>
</svg>
