<svg viewBox="0 0 236 49" fill="none" xmlns="http://www.w3.org/2000/svg">
<path d="M19.7072 9.172C19.7072 9.658 19.2752 9.928 18.7892 9.928C17.8712 9.928 16.5752 9.874 15.2252 9.874C14.7392 9.874 14.0912 10.036 14.0912 10.684C14.0912 22.996 14.1992 31.96 14.1992 45.514C14.1992 46.486 12.9572 46.648 11.6072 46.648H10.5272C8.69116 46.648 6.74716 46.594 6.74716 45.46C6.74716 31.906 6.69316 22.996 6.69316 10.63C6.69316 10.306 6.31516 9.874 6.04516 9.874C5.28916 9.874 4.37116 9.928 3.45316 9.928H3.29116C2.42716 9.928 1.18516 9.928 1.18516 9.118C1.18516 7.714 1.23916 4.636 1.23916 3.34C1.23916 2.908 1.72516 2.638 2.15716 2.638C4.47916 2.638 10.6892 2.584 15.0632 2.584C16.6292 2.584 17.9792 2.638 18.8432 2.638C19.5992 2.638 19.7612 4.258 19.7612 6.094C19.7612 7.12 19.7072 8.2 19.7072 9.172ZM39.1256 45.946C39.1256 46.648 37.6676 46.81 35.9936 46.81C32.0516 46.81 26.4896 46.702 24.7076 46.54C24.2756 46.486 24.1136 45.838 24.1136 45.514C24.1136 33.58 24.0056 18.568 24.0056 9.928C24.0056 6.688 24.0596 4.312 24.0596 3.34C24.0596 2.8 24.8696 2.692 25.8956 2.692C29.5676 2.692 34.6976 2.8 38.0996 2.8C38.9096 2.8 38.9636 3.34 38.9636 4.042C38.9636 5.608 38.9096 7.876 38.9096 9.604C38.9096 10.198 38.3696 10.252 37.8296 10.252H32.5376C31.8896 10.252 31.2956 10.306 31.2956 10.846C31.2956 12.358 31.2416 15.922 31.2416 18.514C31.2416 19.702 31.4036 20.026 33.4016 20.026C34.5896 20.026 35.9936 19.972 36.9116 19.972C37.6136 19.972 37.6676 20.512 37.6676 21.16C37.6676 23.104 37.5056 26.344 37.5056 27.856C37.5056 28.612 37.0196 28.666 36.2096 28.666C34.9676 28.666 32.6996 28.612 32.0516 28.612C31.1876 28.612 31.1336 32.176 31.1336 35.416V35.794C31.1336 38.008 31.1876 38.872 33.0236 38.872C34.2656 38.872 36.2636 38.71 37.6676 38.71C38.2076 38.71 39.0716 38.71 39.0716 39.412C39.0716 41.194 39.0716 44.218 39.1256 45.946ZM60.5354 34.66C60.5354 39.898 58.5914 46.756 51.5714 46.756C43.6874 46.756 42.8234 39.412 42.8234 32.662V11.818C42.8234 9.982 44.1194 1.72 51.5714 1.72C58.8614 1.72 60.5894 7.714 60.5894 13.06C60.5894 13.168 60.6434 13.384 60.6434 13.978C60.6434 14.41 60.5894 15.058 60.5354 16.03C60.4274 17.11 59.5634 17.11 58.3214 17.11C56.9174 17.11 55.1894 16.948 54.5954 16.948C54.0014 16.948 53.5694 16.948 53.5694 15.706C53.5694 15.166 53.6234 14.41 53.6234 13.6C53.6234 11.656 53.3534 9.388 51.5714 9.388C49.7354 9.388 49.3574 14.194 49.3574 19V34.336C49.3574 35.848 49.8434 39.088 51.5714 39.088C53.4074 39.088 53.6774 35.956 53.6774 33.418C53.6774 32.338 53.6234 31.312 53.6234 30.826C53.6234 29.854 54.2714 29.854 55.2974 29.854C56.7014 29.854 58.5374 29.908 59.7794 29.908C60.4814 29.908 60.6434 30.934 60.6434 32.122C60.6434 33.094 60.5354 34.12 60.5354 34.66ZM82.2446 3.664C82.2986 5.446 82.2986 7.822 82.2986 10.522C82.2986 22.402 82.0286 40.762 82.0286 45.406C82.0286 46.486 80.1926 46.648 78.7886 46.648C78.0866 46.648 77.5466 46.594 77.3306 46.594C76.0346 46.594 75.6026 46.378 75.6026 45.19C75.6026 40.762 75.7106 34.552 75.7106 30.988C75.7106 27.694 75.7106 27.64 73.8746 27.64C73.2806 27.64 72.6326 27.694 72.0386 27.694C71.5526 27.694 71.4986 28.234 71.4986 29.368C71.4986 31.15 71.5526 34.498 71.5526 37.684C71.5526 40.762 71.4986 43.732 71.3906 45.298C71.2826 46.648 68.9066 46.648 67.1246 46.648H66.4226C65.3966 46.648 64.5326 46.486 64.5326 45.298C64.5326 41.842 64.3166 32.23 64.3166 22.726C64.3166 15.382 64.3706 8.038 64.4246 3.664C64.4246 3.34 64.6406 2.746 64.9646 2.746C66.4766 2.746 68.4746 2.692 69.9326 2.692C70.8506 2.692 71.6606 2.8 71.6606 3.664C71.6606 5.878 71.4446 10.36 71.4446 14.464C71.4446 15.814 71.5526 17.164 71.5526 18.352C71.5526 19.432 72.1466 19.54 73.1726 19.54H73.9826C74.9006 19.54 75.6026 19.324 75.6026 17.488C75.6026 13.708 75.4946 7.444 75.4946 4.15C75.4946 3.34 75.5486 2.746 75.8726 2.746C76.1966 2.746 76.5206 2.8 76.8986 2.8C78.2486 2.8 79.9226 2.638 81.1106 2.638C81.9206 2.638 82.2446 2.854 82.2446 3.664ZM106.378 3.88C106.378 7.606 106.108 35.794 106.108 45.136C106.108 46.81 104.65 46.972 103.084 46.972H102.328C100.762 46.972 98.9256 46.918 98.5476 45.568C97.3596 41.14 94.9836 29.368 94.3896 27.208C94.3356 26.992 94.0116 26.398 93.7416 26.398C93.5796 26.398 93.4176 26.668 93.4176 27.532C93.4176 30.664 93.3636 38.872 93.3636 45.298C93.3636 46.702 91.2576 46.918 89.7456 46.918H89.4216C87.8016 46.918 86.2356 46.918 86.2356 45.514C86.2356 42.22 86.0736 37.306 86.0736 31.96C86.0736 20.62 86.2356 7.444 86.5056 3.988C86.6136 2.692 87.0456 2.638 88.2336 2.638C90.2316 2.638 92.3916 2.746 93.6336 2.746C94.1736 2.746 94.4976 3.286 94.6056 3.88C95.5236 8.362 98.3316 22.186 99.0876 22.186C99.2496 22.186 99.3576 21.808 99.3576 21.052C99.3576 16.084 99.0876 9.604 99.0876 5.23C99.0876 3.826 99.2496 2.692 100.168 2.692C100.6 2.692 101.086 2.746 101.572 2.746C102.598 2.746 103.678 2.692 104.596 2.692C105.514 2.692 106.378 2.854 106.378 3.88ZM126.592 38.008C126.592 44.002 124.054 47.08 117.952 47.08C111.796 47.08 109.69 44.11 109.69 38.008V13.006C109.69 4.528 113.308 2.584 117.952 2.584C122.812 2.584 126.592 4.042 126.592 12.358V38.008ZM119.734 35.578V13.708C119.734 10.846 119.14 10.522 118.222 10.522C117.088 10.522 116.548 11.386 116.548 13.762V35.632C116.548 38.224 117.196 38.332 118.222 38.332C119.14 38.332 119.734 38.062 119.734 35.578ZM146.697 45.352C146.643 46 145.887 46.324 145.293 46.324C141.945 46.324 137.085 46.54 133.737 46.54C132.225 46.54 131.037 46.324 131.037 45.028C130.875 31.366 130.767 13.384 130.767 5.878C130.767 3.772 130.929 2.422 131.739 2.422C132.495 2.422 133.305 2.584 134.061 2.584C135.411 2.584 136.653 2.476 137.679 2.422C138.327 2.422 138.489 2.692 138.489 3.124C138.489 3.394 138.435 3.61 138.435 3.88C138.435 5.014 138.489 6.958 138.489 9.442C138.489 14.356 138.435 21.268 138.435 27.64C138.435 31.096 138.543 34.444 138.543 37.144C138.543 38.386 139.731 38.494 140.865 38.494C142.431 38.494 143.835 38.44 145.401 38.44C146.049 38.44 146.697 38.764 146.697 39.412C146.697 40.87 146.751 42.22 146.751 43.678C146.751 44.218 146.697 44.758 146.697 45.352ZM166.324 38.008C166.324 44.002 163.786 47.08 157.684 47.08C151.528 47.08 149.422 44.11 149.422 38.008V13.006C149.422 4.528 153.04 2.584 157.684 2.584C162.544 2.584 166.324 4.042 166.324 12.358V38.008ZM159.466 35.578V13.708C159.466 10.846 158.872 10.522 157.954 10.522C156.82 10.522 156.28 11.386 156.28 13.762V35.632C156.28 38.224 156.928 38.332 157.954 38.332C158.872 38.332 159.466 38.062 159.466 35.578ZM190.587 45.082C190.587 46.378 190.371 46.594 189.507 46.594C189.183 46.594 188.805 46.54 188.535 46.54C187.725 46.54 187.401 44.002 187.131 43.948C187.131 43.948 186.591 46.648 181.083 46.648C173.415 46.648 171.309 42.922 171.309 35.902L171.417 13.6C171.471 4.258 174.225 2.422 180.597 2.422C189.345 2.422 190.317 7.012 190.425 12.736C190.425 12.736 190.533 16.138 190.533 18.676C190.533 20.62 190.047 20.89 188.697 20.89H187.725C185.943 20.89 183.243 20.836 183.243 19.864V18.838C183.243 15.598 183.189 9.226 181.029 9.226C179.895 9.226 179.031 10.846 179.031 13.492V36.226C179.031 36.982 179.733 39.736 181.083 39.736C183.081 39.736 183.243 36.064 183.243 33.418V32.554C183.243 31.42 183.189 30.502 182.865 30.502C182.703 30.502 182.595 30.556 182.433 30.556C181.083 30.556 180.975 30.34 180.975 29.368C180.975 28.666 180.921 27.424 180.921 26.344C180.921 25.048 181.083 23.968 181.839 23.968C182.811 23.968 184.269 24.022 185.727 24.022C186.537 24.022 187.509 23.968 188.373 23.968C189.561 23.968 190.587 24.13 190.587 24.94C190.587 25.75 190.533 28.18 190.533 30.988C190.533 36.712 190.587 44.272 190.587 45.082ZM213.487 4.204C212.785 5.986 207.655 20.782 207.655 23.374C207.655 24.238 207.763 24.4 207.763 27.37C207.763 31.042 207.709 37.306 207.709 41.41C207.709 42.922 207.763 44.11 207.763 44.812C207.763 46 207.439 46.54 205.981 46.54C204.577 46.54 202.525 46.27 201.229 46.27C200.095 46.27 200.041 45.082 200.041 43.516C200.041 39.034 200.311 28.99 200.311 25.426V24.184C200.311 23.644 200.311 23.482 200.149 22.888C198.799 17.866 195.397 7.012 194.209 3.502C194.209 3.448 194.155 3.394 194.155 3.34C194.155 2.26 195.559 2.152 197.071 2.152H198.475C200.041 2.152 201.823 2.368 202.039 3.718C202.471 6.634 203.983 12.79 204.199 12.79C204.415 12.79 205.009 7.822 205.981 3.718C206.305 2.26 208.303 2.26 210.355 2.26H210.895C212.299 2.26 213.541 2.476 213.541 3.718C213.541 3.88 213.541 4.042 213.487 4.204ZM234.542 9.064L234.434 20.512C234.38 25.858 230.924 28.558 229.196 28.774C228.872 28.828 228.656 29.368 228.656 29.692C228.656 30.664 228.71 32.392 228.71 33.364C228.71 34.228 226.766 34.282 225.146 34.282H224.93C223.094 34.282 222.77 34.228 222.77 31.744C222.77 29.152 222.824 25.156 222.824 23.536C222.824 22.348 224.876 22.672 226.496 21.16C227.684 20.08 227.684 15.544 227.684 12.574C227.684 10.792 227.36 9.01 225.362 9.01C223.094 9.01 222.932 10.792 222.932 13.33V14.896C222.932 15.652 221.852 15.706 220.232 15.706H219.908C218.342 15.706 216.56 15.706 216.56 15.058C216.56 15.166 216.668 10.522 216.668 10.468C216.83 4.204 219.746 2.53 225.956 2.53C230.384 2.53 234.542 5.068 234.542 9.01V9.064ZM229.196 42.544V45.136C229.196 46.648 227.684 46.864 226.226 46.864H225.362C223.742 46.864 222.392 46.81 222.392 45.244C222.392 44.326 222.284 42.922 222.284 41.68C222.284 39.844 222.5 38.224 223.472 38.224C223.85 38.224 224.282 38.332 224.768 38.332C225.74 38.332 226.874 38.224 227.684 38.224C229.034 38.224 229.196 39.574 229.196 42.544Z" fill="#CE371F"/>
<path d="M18.7072 9.172C18.7072 9.14112 18.7151 9.0917 18.7425 9.03835C18.769 8.9868 18.8022 8.95368 18.8253 8.93609C18.8469 8.91968 18.8573 8.91825 18.8482 8.921C18.8395 8.92366 18.8193 8.928 18.7892 8.928V10.928C19.2046 10.928 19.6593 10.8143 20.0355 10.5284C20.4363 10.2238 20.7072 9.74797 20.7072 9.172H18.7072ZM18.7892 8.928C18.3442 8.928 17.8049 8.91488 17.1914 8.90124C16.5836 8.88774 15.9123 8.874 15.2252 8.874V10.874C15.888 10.874 16.5398 10.8873 17.1469 10.9008C17.7484 10.9141 18.3161 10.928 18.7892 10.928V8.928ZM15.2252 8.874C14.9004 8.874 14.4269 8.92363 13.9971 9.1581C13.503 9.42761 13.0912 9.9405 13.0912 10.684H15.0912C15.0912 10.687 15.0907 10.7051 15.0827 10.7336C15.0745 10.7627 15.0608 10.7943 15.0412 10.8248C15.001 10.8873 14.9584 10.9119 14.9548 10.9139C14.9542 10.9142 14.9781 10.902 15.0354 10.8907C15.0905 10.8799 15.1566 10.874 15.2252 10.874V8.874ZM13.0912 10.684C13.0912 16.8428 13.1182 22.1642 13.1452 27.6382C13.1722 33.1124 13.1992 38.7397 13.1992 45.514H15.1992C15.1992 38.7343 15.1721 33.1026 15.1451 27.6283C15.1181 22.1538 15.0912 16.8372 15.0912 10.684H13.0912ZM13.1992 45.514C13.1992 45.5215 13.2055 45.4711 13.2428 45.43C13.2595 45.4116 13.2345 45.449 13.0892 45.4982C12.7791 45.603 12.2768 45.648 11.6072 45.648V47.648C12.2876 47.648 13.0812 47.612 13.7296 47.3928C14.0635 47.28 14.4335 47.0947 14.7252 46.7725C15.0376 46.4276 15.1992 45.9925 15.1992 45.514H13.1992ZM11.6072 45.648H10.5272V47.648H11.6072V45.648ZM10.5272 45.648C9.58751 45.648 8.75287 45.6305 8.16071 45.502C7.86382 45.4376 7.73322 45.3656 7.69463 45.3355C7.68401 45.3272 7.70315 45.3397 7.72301 45.3782C7.74432 45.4195 7.74716 45.4534 7.74716 45.46H5.74716C5.74716 46.0836 6.03705 46.5791 6.46456 46.9125C6.84784 47.2115 7.31799 47.3657 7.73661 47.4565C8.57544 47.6385 9.63081 47.648 10.5272 47.648V45.648ZM7.74716 45.46C7.74716 38.6817 7.73366 33.0646 7.72016 27.597C7.70665 22.1294 7.69316 16.8116 7.69316 10.63H5.69316C5.69316 16.8144 5.70666 22.1346 5.72016 27.602C5.73366 33.0694 5.74716 38.6843 5.74716 45.46H7.74716ZM7.69316 10.63C7.69316 10.1315 7.43497 9.71742 7.22723 9.47688C7.10925 9.34027 6.96167 9.20491 6.78768 9.09692C6.62496 8.99593 6.36631 8.874 6.04516 8.874V10.874C5.94694 10.874 5.8715 10.8547 5.82521 10.8388C5.7784 10.8227 5.74775 10.8054 5.73295 10.7962C5.70577 10.7793 5.70331 10.7722 5.71358 10.7841C5.7228 10.7948 5.72505 10.801 5.72166 10.7937C5.72082 10.7919 5.69316 10.7346 5.69316 10.63H7.69316ZM6.04516 8.874C5.64836 8.874 5.21242 8.88814 4.77915 8.90147C4.33935 8.915 3.89475 8.928 3.45316 8.928V10.928C3.92956 10.928 4.40296 10.914 4.84066 10.9005C5.28489 10.8869 5.68596 10.874 6.04516 10.874V8.874ZM3.45316 8.928H3.29116V10.928H3.45316V8.928ZM3.29116 8.928C2.82625 8.928 2.42883 8.92242 2.14931 8.85479C2.01389 8.82203 2.00914 8.79681 2.05192 8.83431C2.13248 8.90494 2.18516 9.02445 2.18516 9.118H0.185158C0.185158 9.61655 0.393082 10.0398 0.733525 10.3383C1.03618 10.6036 1.39593 10.7302 1.67901 10.7987C2.23649 10.9336 2.89207 10.928 3.29116 10.928V8.928ZM2.18516 9.118C2.18516 8.4236 2.19855 7.3105 2.21208 6.20069C2.22554 5.0971 2.23916 3.99572 2.23916 3.34H0.239158C0.239158 3.98027 0.225774 5.06589 0.212232 6.1763C0.198766 7.2805 0.185158 8.40839 0.185158 9.118H2.18516ZM2.23916 3.34C2.23916 3.42774 2.21247 3.50808 2.17637 3.56748C2.14357 3.62144 2.11171 3.6448 2.10537 3.64919C2.09866 3.65383 2.10334 3.64943 2.12021 3.64434C2.13679 3.63934 2.15097 3.638 2.15716 3.638V1.638C1.75174 1.638 1.32083 1.75981 0.966948 2.00481C0.605002 2.25538 0.239158 2.70607 0.239158 3.34H2.23916ZM2.15716 3.638C3.32187 3.638 5.45938 3.62447 7.84631 3.61098C10.236 3.59748 12.8794 3.584 15.0632 3.584V1.584C12.873 1.584 10.2243 1.59752 7.83501 1.61101C5.44294 1.62453 3.31444 1.638 2.15716 1.638V3.638ZM15.0632 3.584C15.8352 3.584 16.5556 3.59731 17.1954 3.61078C17.8288 3.62411 18.3975 3.638 18.8432 3.638V1.638C18.4248 1.638 17.8865 1.62488 17.2375 1.61122C16.5947 1.59769 15.8571 1.584 15.0632 1.584V3.584ZM18.8432 3.638C18.748 3.638 18.6503 3.60946 18.5705 3.55972C18.4994 3.5154 18.4726 3.47329 18.4759 3.47808C18.4923 3.50251 18.5503 3.61664 18.6076 3.88561C18.7191 4.40998 18.7612 5.18385 18.7612 6.094H20.7612C20.7612 5.16815 20.7222 4.21401 20.5638 3.46939C20.486 3.10386 20.3618 2.69824 20.1352 2.36154C19.8892 1.99595 19.4615 1.638 18.8432 1.638V3.638ZM18.7612 6.094C18.7612 6.59189 18.748 7.10549 18.7345 7.62728C18.7211 8.14395 18.7072 8.67056 18.7072 9.172H20.7072C20.7072 8.70144 20.7202 8.20205 20.7338 7.67921C20.7473 7.16151 20.7612 6.62211 20.7612 6.094H18.7612ZM39.1256 45.946H40.1256C40.1256 45.9356 40.1255 45.9252 40.1252 45.9148L39.1256 45.946ZM24.7076 46.54L24.5836 47.5323C24.5948 47.5337 24.6059 47.5349 24.6171 47.5359L24.7076 46.54ZM38.1256 45.946C38.1256 45.7075 38.2746 45.5744 38.2985 45.5577C38.302 45.5553 38.2809 45.5702 38.2199 45.5934C38.1606 45.616 38.0783 45.641 37.9692 45.6653C37.5098 45.768 36.8202 45.81 35.9936 45.81V47.81C36.8411 47.81 37.7175 47.771 38.4055 47.6172C38.7434 47.5416 39.1255 47.42 39.4449 47.1966C39.7944 46.9521 40.1256 46.5355 40.1256 45.946H38.1256ZM35.9936 45.81C32.0436 45.81 26.5273 45.7013 24.7982 45.5441L24.6171 47.5359C26.452 47.7027 32.0597 47.81 35.9936 47.81V45.81ZM24.8317 45.5477C24.9763 45.5658 25.0776 45.6351 25.1276 45.6835C25.1691 45.7236 25.173 45.7453 25.16 45.7167C25.1488 45.6919 25.1354 45.6518 25.1254 45.6028C25.1207 45.5798 25.1175 45.5588 25.1157 45.5415C25.1147 45.533 25.1142 45.5262 25.1139 45.5211C25.1136 45.516 25.1136 45.5136 25.1136 45.514H23.1136C23.1136 45.8037 23.1788 46.1889 23.3373 46.5398C23.4818 46.8599 23.8447 47.4399 24.5836 47.5323L24.8317 45.5477ZM25.1136 45.514C25.1136 39.5445 25.0866 32.806 25.0596 26.4815C25.0326 20.1555 25.0056 14.2453 25.0056 9.928H23.0056C23.0056 14.2507 23.0327 20.1665 23.0597 26.49C23.0867 32.815 23.1136 39.5495 23.1136 45.514H25.1136ZM25.0056 9.928C25.0056 8.31353 25.0191 6.91391 25.0326 5.79555C25.046 4.68388 25.0596 3.83402 25.0596 3.34H23.0596C23.0596 3.81798 23.0463 4.64212 23.0327 5.77145C23.0192 6.89409 23.0056 8.30246 23.0056 9.928H25.0056ZM25.0596 3.34C25.0596 3.4009 25.0474 3.47916 25.0111 3.56145C24.975 3.64302 24.9267 3.70254 24.8855 3.7411C24.8149 3.80715 24.7785 3.80048 24.8676 3.77502C25.0518 3.7224 25.3869 3.692 25.8956 3.692V1.692C25.3784 1.692 24.7955 1.7156 24.3182 1.85197C24.0765 1.92101 23.7735 2.0426 23.519 2.28077C23.2324 2.54894 23.0596 2.91822 23.0596 3.34H25.0596ZM25.8956 3.692C27.7242 3.692 29.918 3.7189 32.0864 3.74592C34.2509 3.77289 36.391 3.8 38.0996 3.8V1.8C36.4063 1.8 34.2804 1.77311 32.1114 1.74608C29.9462 1.7191 27.7391 1.692 25.8956 1.692V3.692ZM38.0996 3.8C38.1973 3.8 38.1818 3.81712 38.1166 3.78338C38.0824 3.7657 38.0454 3.7394 38.0116 3.70459C37.9785 3.67044 37.9579 3.6379 37.9464 3.61571C37.9276 3.57914 37.939 3.58118 37.9495 3.6696C37.9598 3.75631 37.9636 3.8715 37.9636 4.042H39.9636C39.9636 3.73612 39.9686 3.17385 39.7244 2.69979C39.5809 2.42126 39.3558 2.17282 39.0361 2.0073C38.733 1.85038 38.407 1.8 38.0996 1.8V3.8ZM37.9636 4.042C37.9636 4.81655 37.9503 5.76719 37.9367 6.74846C37.9233 7.72565 37.9096 8.73182 37.9096 9.604H39.9096C39.9096 8.74817 39.923 7.75634 39.9365 6.77604C39.95 5.79981 39.9636 4.83345 39.9636 4.042H37.9636ZM37.9096 9.604C37.9096 9.5976 37.9129 9.50895 37.9848 9.40114C38.056 9.29431 38.1423 9.24717 38.1745 9.23319C38.1979 9.22308 38.1869 9.23233 38.1136 9.24064C38.0434 9.2486 37.9527 9.252 37.8296 9.252V11.252C38.0843 11.252 38.5527 11.249 38.9697 11.0683C39.2045 10.9666 39.4595 10.7946 39.6489 10.5105C39.8389 10.2255 39.9096 9.9074 39.9096 9.604H37.9096ZM37.8296 9.252H32.5376V11.252H37.8296V9.252ZM32.5376 9.252C32.2296 9.252 31.7539 9.2577 31.3408 9.40351C31.1159 9.48288 30.8407 9.62622 30.6225 9.89478C30.392 10.1785 30.2956 10.5149 30.2956 10.846H32.2956C32.2956 10.8706 32.2922 10.9178 32.2722 10.9783C32.2518 11.0405 32.2187 11.1018 32.1747 11.156C32.1318 11.2088 32.0881 11.243 32.0564 11.2633C32.0408 11.2732 32.0283 11.2798 32.02 11.2837C32.0117 11.2876 32.0069 11.2893 32.0065 11.2895C32.0061 11.2896 32.0091 11.2886 32.0161 11.2867C32.0232 11.2849 32.0333 11.2825 32.047 11.2799C32.075 11.2746 32.1126 11.2692 32.1618 11.2647C32.2628 11.2554 32.3855 11.252 32.5376 11.252V9.252ZM30.2956 10.846C30.2956 11.5957 30.2822 12.8575 30.2687 14.2654C30.2552 15.669 30.2416 17.2125 30.2416 18.514H32.2416C32.2416 17.2235 32.2551 15.689 32.2686 14.2846C32.2821 12.8845 32.2956 11.6083 32.2956 10.846H30.2956ZM30.2416 18.514C30.2416 18.8112 30.2491 19.1584 30.3247 19.4802C30.4087 19.8376 30.5871 20.2113 30.9522 20.4999C31.2873 20.7649 31.6858 20.8819 32.0582 20.9434C32.436 21.0059 32.8857 21.026 33.4016 21.026V19.026C32.9186 19.026 32.5988 19.0056 32.3843 18.9702C32.1644 18.9339 32.1478 18.8956 32.1926 18.9311C32.2674 18.9902 32.2805 19.0602 32.2716 19.0226C32.2545 18.9496 32.2416 18.8108 32.2416 18.514H30.2416ZM33.4016 21.026C34.0083 21.026 34.6668 21.0122 35.2799 20.9988C35.8994 20.9851 36.4664 20.972 36.9116 20.972V18.972C36.4389 18.972 35.8449 18.9859 35.2359 18.9992C34.6205 19.0128 33.983 19.026 33.4016 19.026V21.026ZM36.9116 20.972C36.9617 20.972 36.9097 20.9816 36.8207 20.9295C36.7769 20.9039 36.7373 20.8706 36.7049 20.8334C36.6736 20.7974 36.656 20.7657 36.6474 20.7474C36.6339 20.7185 36.6449 20.7274 36.6546 20.8134C36.664 20.8966 36.6676 21.0055 36.6676 21.16H38.6676C38.6676 20.8694 38.6688 20.3474 38.4584 19.8986C38.3364 19.6384 38.1371 19.3826 37.8311 19.2035C37.5346 19.0299 37.2126 18.972 36.9116 18.972V20.972ZM36.6676 21.16C36.6676 22.1125 36.6278 23.391 36.5872 24.6374C36.547 25.8696 36.5056 27.0792 36.5056 27.856H38.5056C38.5056 27.1208 38.5453 25.9544 38.5861 24.7026C38.6265 23.465 38.6676 22.1515 38.6676 21.16H36.6676ZM36.5056 27.856C36.5056 27.9463 36.4898 27.9166 36.5308 27.8382C36.5526 27.7966 36.5842 27.7535 36.6249 27.7153C36.6647 27.6779 36.7017 27.656 36.7251 27.6447C36.762 27.6268 36.755 27.64 36.6486 27.6513C36.5458 27.6622 36.4091 27.666 36.2096 27.666V29.666C36.4152 29.666 36.643 29.6631 36.8591 29.6402C37.0717 29.6177 37.3381 29.5702 37.5977 29.4443C37.8803 29.3073 38.1351 29.0864 38.3033 28.7648C38.4607 28.4636 38.5056 28.1437 38.5056 27.856H36.5056ZM36.2096 27.666C35.5985 27.666 34.7296 27.6527 33.9247 27.6391C33.1297 27.6258 32.3867 27.612 32.0516 27.612V29.612C32.3645 29.612 33.0796 29.6252 33.8911 29.6389C34.6927 29.6523 35.5788 29.666 36.2096 29.666V27.666ZM32.0516 27.612C31.5499 27.612 31.1945 27.8863 30.9874 28.1416C30.7932 28.3811 30.6738 28.6638 30.5938 28.907C30.431 29.402 30.3354 30.04 30.273 30.7057C30.1464 32.0559 30.1336 33.8036 30.1336 35.416H32.1336C32.1336 33.7884 32.1479 32.1341 32.2643 30.8923C32.3234 30.262 32.4033 29.8065 32.4936 29.532C32.5402 29.3905 32.5667 29.3694 32.5408 29.4013C32.5021 29.4491 32.3374 29.612 32.0516 29.612V27.612ZM30.1336 35.416V35.794H32.1336V35.416H30.1336ZM30.1336 35.794C30.1336 36.3404 30.1364 36.8525 30.1744 37.2947C30.2119 37.7305 30.2897 38.1927 30.4933 38.6055C30.7162 39.0575 31.0674 39.4054 31.5517 39.618C31.997 39.8136 32.5032 39.872 33.0236 39.872V37.872C32.6261 37.872 32.437 37.8224 32.3558 37.7868C32.3136 37.7682 32.3071 37.7617 32.287 37.721C32.2476 37.641 32.1971 37.4721 32.1671 37.1233C32.1376 36.7808 32.1336 36.3546 32.1336 35.794H30.1336ZM33.0236 39.872C33.6748 39.872 34.5136 39.8298 35.3336 39.7898C36.17 39.749 36.9947 39.71 37.6676 39.71V37.71C36.9366 37.71 36.0603 37.752 35.2362 37.7922C34.3957 37.8332 33.6145 37.872 33.0236 37.872V39.872ZM37.6676 39.71C37.807 39.71 37.9283 39.7104 38.0451 39.7185C38.1642 39.7269 38.2378 39.7411 38.2765 39.753C38.3178 39.7658 38.2596 39.7576 38.1871 39.6776C38.1483 39.6347 38.1158 39.5822 38.0948 39.5251C38.0743 39.4694 38.0716 39.4279 38.0716 39.412H40.0716C40.0716 39.0117 39.9404 38.634 39.6693 38.3347C39.4179 38.0573 39.11 37.9174 38.8678 37.8425C38.4127 37.7016 37.901 37.71 37.6676 37.71V39.71ZM38.0716 39.412C38.0716 41.1869 38.0715 44.2298 38.1261 45.9772L40.1252 45.9148C40.0718 44.2062 40.0716 41.2011 40.0716 39.412H38.0716ZM60.5354 16.03L61.5304 16.1295C61.5319 16.1149 61.533 16.1002 61.5338 16.0855L60.5354 16.03ZM59.5354 34.66C59.5354 37.1836 59.0627 40.0126 57.8192 42.1735C56.61 44.2745 54.6778 45.756 51.5714 45.756V47.756C55.4849 47.756 58.0347 45.8085 59.5526 43.171C61.036 40.5934 61.5354 37.3744 61.5354 34.66H59.5354ZM51.5714 45.756C49.7604 45.756 48.4302 45.3364 47.4335 44.6713C46.4344 44.0044 45.6958 43.0409 45.1534 41.8311C44.0481 39.3659 43.8234 36.038 43.8234 32.662H41.8234C41.8234 36.036 42.0307 39.755 43.3284 42.6494C43.9875 44.1194 44.9431 45.4137 46.3233 46.3348C47.7061 47.2576 49.4404 47.756 51.5714 47.756V45.756ZM43.8234 32.662V11.818H41.8234V32.662H43.8234ZM43.8234 11.818C43.8234 11.0334 44.1202 8.68083 45.2802 6.56043C46.4127 4.49028 48.3084 2.72 51.5714 2.72V0.719997C47.3823 0.719997 44.9041 3.08072 43.5256 5.60056C42.1746 8.07017 41.8234 10.7666 41.8234 11.818H43.8234ZM51.5714 2.72C54.8856 2.72 56.8112 4.0523 57.9642 5.91215C59.1643 7.84797 59.5894 10.4635 59.5894 13.06H61.5894C61.5894 10.3105 61.1505 7.25603 59.6641 4.85835C58.1305 2.38469 55.5472 0.719997 51.5714 0.719997V2.72ZM59.5894 13.06C59.5894 13.1529 59.6002 13.2428 59.6042 13.278C59.6101 13.3303 59.6152 13.3723 59.6209 13.4316C59.6314 13.5424 59.6434 13.7133 59.6434 13.978H61.6434C61.6434 13.6487 61.6283 13.4146 61.6119 13.2419C61.604 13.1595 61.5957 13.0901 61.5915 13.053C61.5853 12.9987 61.5894 13.0211 61.5894 13.06H59.5894ZM59.6434 13.978C59.6434 14.3735 59.5937 14.9533 59.5369 15.9745L61.5338 16.0855C61.5851 15.1627 61.6434 14.4465 61.6434 13.978H59.6434ZM59.5403 15.9305C59.5264 16.0704 59.4977 16.0817 59.5228 16.0487C59.5518 16.0106 59.5757 16.0128 59.5225 16.0314C59.4548 16.0552 59.3308 16.0808 59.1107 16.0953C58.8925 16.1096 58.6406 16.11 58.3214 16.11V18.11C58.8735 18.11 59.6019 18.1231 60.1847 17.9186C60.5164 17.8022 60.8541 17.6019 61.1143 17.26C61.3705 16.9233 61.4904 16.5296 61.5304 16.1295L59.5403 15.9305ZM58.3214 16.11C57.6515 16.11 56.8942 16.0712 56.2139 16.0308C55.5649 15.9922 54.9318 15.948 54.5954 15.948V17.948C54.853 17.948 55.3809 17.9848 56.0953 18.0272C56.7785 18.0678 57.5872 18.11 58.3214 18.11V16.11ZM54.5954 15.948C54.5175 15.948 54.4639 15.9479 54.4161 15.9462C54.3696 15.9446 54.3472 15.9419 54.3391 15.9406C54.3258 15.9385 54.4122 15.9498 54.5081 16.0315C54.6056 16.1145 54.6193 16.1901 54.6079 16.1499C54.6016 16.1281 54.5915 16.0833 54.5832 16.0075C54.575 15.932 54.5694 15.8333 54.5694 15.706H52.5694C52.5694 16.3552 52.6623 17.0865 53.2112 17.554C53.4893 17.7909 53.795 17.8798 54.0299 17.9166C54.2457 17.9503 54.467 17.948 54.5954 17.948V15.948ZM54.5694 15.706C54.5694 15.4599 54.5818 15.1602 54.5957 14.792C54.6092 14.4333 54.6234 14.0255 54.6234 13.6H52.6234C52.6234 13.9845 52.6106 14.3597 52.5971 14.7165C52.584 15.0638 52.5694 15.4121 52.5694 15.706H54.5694ZM54.6234 13.6C54.6234 12.6139 54.5596 11.4116 54.207 10.4277C54.0274 9.92632 53.7497 9.41418 53.3047 9.02231C52.839 8.61217 52.2505 8.388 51.5714 8.388V10.388C51.7833 10.388 51.8967 10.4473 51.9828 10.5232C52.0897 10.6173 52.2136 10.7937 52.3242 11.1023C52.5521 11.7383 52.6234 12.6421 52.6234 13.6H54.6234ZM51.5714 8.388C50.5874 8.388 49.9512 9.05789 49.5778 9.72636C49.2035 10.3966 48.9604 11.2764 48.7917 12.2148C48.4509 14.1101 48.3574 16.5883 48.3574 19H50.3574C50.3574 16.6057 50.4528 14.2779 50.7601 12.5687C50.9154 11.7049 51.111 11.0828 51.3239 10.7017C51.4275 10.5162 51.5106 10.4331 51.5526 10.4013C51.571 10.3873 51.5784 10.3856 51.5752 10.3867C51.571 10.3881 51.568 10.388 51.5714 10.388V8.388ZM48.3574 19V34.336H50.3574V19H48.3574ZM48.3574 34.336C48.3574 35.1671 48.4873 36.4693 48.869 37.5991C49.0592 38.1622 49.3351 38.7529 49.7463 39.2194C50.1743 39.705 50.7841 40.088 51.5714 40.088V38.088C51.4947 38.088 51.3957 38.066 51.2466 37.8969C51.0806 37.7086 50.911 37.3948 50.7638 36.9589C50.4705 36.0907 50.3574 35.0169 50.3574 34.336H48.3574ZM51.5714 40.088C52.3615 40.088 52.9892 39.733 53.4367 39.2069C53.856 38.7139 54.1116 38.0828 54.2783 37.4654C54.6123 36.2283 54.6774 34.6969 54.6774 33.418H52.6774C52.6774 34.6771 52.6075 35.9807 52.3474 36.9441C52.2171 37.4269 52.061 37.7374 51.9133 37.911C51.7938 38.0515 51.6993 38.088 51.5714 38.088V40.088ZM54.6774 33.418C54.6774 32.8626 54.6635 32.324 54.6499 31.8694C54.636 31.4023 54.6234 31.0493 54.6234 30.826H52.6234C52.6234 31.0887 52.6378 31.4917 52.6508 31.9291C52.6643 32.379 52.6774 32.8934 52.6774 33.418H54.6774ZM54.6234 30.826C54.6234 30.684 54.6486 30.6896 54.6125 30.7538C54.5637 30.8407 54.489 30.8866 54.4618 30.8979C54.4605 30.8985 54.5127 30.8786 54.6768 30.8665C54.8375 30.8546 55.0304 30.854 55.2974 30.854V28.854C55.0514 28.854 54.7785 28.8534 54.5291 28.8719C54.2831 28.8901 53.981 28.931 53.6895 29.0531C53.372 29.1859 53.0712 29.414 52.8688 29.7743C52.6792 30.1119 52.6234 30.482 52.6234 30.826H54.6234ZM55.2974 30.854C55.9893 30.854 56.7905 30.8673 57.582 30.8809C58.3685 30.8943 59.1479 30.908 59.7794 30.908V28.908C59.1689 28.908 58.4093 28.8947 57.6162 28.8811C56.8283 28.8677 56.0095 28.854 55.2974 28.854V30.854ZM59.7794 30.908C59.6789 30.908 59.5679 30.8589 59.5008 30.7914C59.4603 30.7505 59.483 30.7504 59.5213 30.8714C59.6004 31.1212 59.6434 31.5443 59.6434 32.122H61.6434C61.6434 31.5117 61.6054 30.8278 61.428 30.2676C61.338 29.9836 61.1886 29.6527 60.9202 29.3824C60.6254 29.0853 60.2308 28.908 59.7794 28.908V30.908ZM59.6434 32.122C59.6434 32.5753 59.6181 33.0486 59.5912 33.4925C59.5657 33.9142 59.5354 34.3506 59.5354 34.66H61.5354C61.5354 34.4294 61.5591 34.0828 61.5875 33.6135C61.6146 33.1664 61.6434 32.6407 61.6434 32.122H59.6434ZM82.2446 3.664H81.2446C81.2446 3.6741 81.2448 3.68419 81.2451 3.69429L82.2446 3.664ZM71.3906 45.298L72.3875 45.3778L72.3883 45.3668L71.3906 45.298ZM64.4246 3.664L65.4246 3.67634V3.664H64.4246ZM81.2451 3.69429C81.2985 5.4576 81.2986 7.81589 81.2986 10.522H83.2986C83.2986 7.82811 83.2988 5.43439 83.2442 3.63371L81.2451 3.69429ZM81.2986 10.522C81.2986 16.4563 81.2312 24.0116 81.1637 30.6674C81.0963 37.3168 81.0286 43.0772 81.0286 45.406H83.0286C83.0286 43.0908 83.096 37.3492 83.1636 30.6876C83.2311 24.0324 83.2986 16.4677 83.2986 10.522H81.2986ZM81.0286 45.406C81.0286 45.347 81.0712 45.2946 81.0674 45.2978C81.0316 45.3287 80.9176 45.3993 80.6686 45.4682C80.1724 45.6054 79.4772 45.648 78.7886 45.648V47.648C79.5041 47.648 80.4289 47.6096 81.2017 47.3958C81.5872 47.2892 82.0199 47.1168 82.3722 46.8135C82.7566 46.4827 83.0286 46.005 83.0286 45.406H81.0286ZM78.7886 45.648C78.4629 45.648 78.1722 45.6355 77.9314 45.6225C77.7202 45.611 77.4746 45.594 77.3306 45.594V47.594C77.4027 47.594 77.5351 47.604 77.8234 47.6195C78.082 47.6335 78.4124 47.648 78.7886 47.648V45.648ZM77.3306 45.594C77.0246 45.594 76.8227 45.5804 76.6855 45.5565C76.5499 45.5329 76.5438 45.5098 76.5806 45.5375C76.6353 45.5785 76.649 45.6248 76.6416 45.6021C76.6269 45.5568 76.6026 45.4388 76.6026 45.19H74.6026C74.6026 45.8425 74.7074 46.6326 75.3806 47.1375C75.6875 47.3677 76.0323 47.4728 76.3422 47.5268C76.6506 47.5806 76.9887 47.594 77.3306 47.594V45.594ZM76.6026 45.19C76.6026 42.9822 76.6296 40.3282 76.6566 37.7756C76.6836 35.2267 76.7106 32.7766 76.7106 30.988H74.7106C74.7106 32.7634 74.6837 35.2002 74.6567 37.7544C74.6297 40.3048 74.6026 42.9698 74.6026 45.19H76.6026ZM76.7106 30.988C76.7106 30.1779 76.7111 29.5203 76.6801 29.0141C76.6508 28.5366 76.5888 28.0255 76.3612 27.6038C76.0765 27.0764 75.6207 26.8261 75.15 26.723C74.7632 26.6384 74.297 26.64 73.8746 26.64V28.64C74.3703 28.64 74.5926 28.6484 74.7222 28.6768C74.7678 28.6867 74.6562 28.6558 74.6011 28.5537C74.5951 28.5425 74.6121 28.5699 74.6326 28.6742C74.653 28.7774 74.6709 28.9247 74.6838 29.1364C74.7102 29.5667 74.7106 30.1511 74.7106 30.988H76.7106ZM73.8746 26.64C73.5521 26.64 73.2193 26.6546 72.9132 26.6679C72.5983 26.6816 72.3101 26.694 72.0386 26.694V28.694C72.3612 28.694 72.6939 28.6794 73.0001 28.6661C73.3149 28.6524 73.6032 28.64 73.8746 28.64V26.64ZM72.0386 26.694C71.7163 26.694 71.3611 26.7911 71.0678 27.0642C70.8019 27.3118 70.6821 27.6173 70.6206 27.8466C70.5056 28.2751 70.4986 28.8344 70.4986 29.368H72.4986C72.4986 29.0883 72.5021 28.8668 72.5129 28.6882C72.524 28.5037 72.5408 28.4075 72.5522 28.3649C72.565 28.3174 72.5498 28.4171 72.4307 28.528C72.2842 28.6644 72.118 28.694 72.0386 28.694V26.694ZM70.4986 29.368C70.4986 30.265 70.5122 31.5544 70.5257 33.0088C70.5392 34.4665 70.5526 36.096 70.5526 37.684H72.5526C72.5526 36.086 72.5391 34.4485 72.5256 32.9902C72.5121 31.5286 72.4986 30.253 72.4986 29.368H70.4986ZM70.5526 37.684C70.5526 40.7616 70.4984 43.701 70.393 45.2292L72.3883 45.3668C72.4989 43.763 72.5526 40.7624 72.5526 37.684H70.5526ZM70.3938 45.2183C70.3924 45.2357 70.3904 45.2316 70.3956 45.223C70.3987 45.2179 70.391 45.2339 70.3479 45.2647C70.2467 45.337 70.0411 45.4272 69.6862 45.4993C68.9745 45.6439 68.0444 45.648 67.1246 45.648V47.648C67.9869 47.648 69.1358 47.6521 70.0846 47.4592C70.5599 47.3626 71.0799 47.1996 71.5104 46.8922C71.976 46.5596 72.3333 46.0551 72.3875 45.3777L70.3938 45.2183ZM67.1246 45.648H66.4226V47.648H67.1246V45.648ZM66.4226 45.648C66.1871 45.648 65.997 45.6383 65.8426 45.6152C65.6867 45.5918 65.6077 45.5603 65.5742 45.5419C65.5601 45.5342 65.5579 45.5309 65.5612 45.5341C65.5651 45.538 65.5671 45.5415 65.5664 45.5402C65.5651 45.5378 65.5326 45.4763 65.5326 45.298H63.5326C63.5326 45.7137 63.6082 46.1179 63.801 46.4801C63.999 46.8519 64.2877 47.1172 64.6116 47.2951C65.202 47.6192 65.9101 47.648 66.4226 47.648V45.648ZM65.5326 45.298C65.5326 43.5611 65.4784 40.2813 65.4246 36.2666C65.3706 32.2448 65.3166 27.4711 65.3166 22.726H63.3166C63.3166 27.4849 63.3707 32.2692 63.4247 36.2934C63.4788 40.3247 63.5326 43.5789 63.5326 45.298H65.5326ZM65.3166 22.726C65.3166 15.3861 65.3706 8.04618 65.4246 3.67634L63.4247 3.65165C63.3707 8.02982 63.3166 15.3779 63.3166 22.726H65.3166ZM65.4246 3.664C65.4246 3.68372 65.4229 3.66912 65.4336 3.62641C65.4434 3.58717 65.4568 3.55233 65.4676 3.53071C65.4816 3.50261 65.4737 3.53081 65.4219 3.57867C65.3661 3.63012 65.2095 3.746 64.9646 3.746V1.746C64.5578 1.746 64.2527 1.93613 64.0653 2.10907C63.8818 2.27844 63.7592 2.47539 63.6787 2.63628C63.5231 2.94757 63.4246 3.32923 63.4246 3.664H65.4246ZM64.9646 3.746C65.7299 3.746 66.6156 3.73235 67.4844 3.71888C68.3575 3.70534 69.213 3.692 69.9326 3.692V1.692C69.1943 1.692 68.3217 1.70565 67.4534 1.71912C66.5806 1.73265 65.7114 1.746 64.9646 1.746V3.746ZM69.9326 3.692C70.1469 3.692 70.3259 3.69857 70.4755 3.7158C70.6285 3.73344 70.7119 3.75822 70.7493 3.77415C70.7792 3.78685 70.7378 3.77557 70.6951 3.71325C70.65 3.64759 70.6606 3.60907 70.6606 3.664H72.6606C72.6606 3.28692 72.57 2.91091 72.3444 2.58199C72.1211 2.25643 71.8199 2.05615 71.5324 1.93384C71.0062 1.70991 70.3838 1.692 69.9326 1.692V3.692ZM70.6606 3.664C70.6606 4.75253 70.6074 6.40504 70.553 8.32699C70.499 10.2379 70.4446 12.3967 70.4446 14.464H72.4446C72.4446 12.4273 72.4983 10.2931 72.5522 8.38351C72.6059 6.48496 72.6606 4.78947 72.6606 3.664H70.6606ZM70.4446 14.464C70.4446 15.1626 70.4726 15.8573 70.4995 16.51C70.5267 17.1707 70.5526 17.7828 70.5526 18.352H72.5526C72.5526 17.7332 72.5245 17.0763 72.4978 16.4275C72.4707 15.7707 72.4446 15.1154 72.4446 14.464H70.4446ZM70.5526 18.352C70.5526 19.0734 70.7645 19.7994 71.4727 20.214C72.0205 20.5347 72.7053 20.54 73.1726 20.54V18.54C72.9251 18.54 72.7509 18.5329 72.6205 18.5152C72.4888 18.4975 72.4631 18.4763 72.4831 18.488C72.5248 18.5124 72.5622 18.5575 72.5759 18.5884C72.5799 18.5974 72.5526 18.5397 72.5526 18.352H70.5526ZM73.1726 20.54H73.9826V18.54H73.1726V20.54ZM73.9826 20.54C74.4657 20.54 75.239 20.5006 75.8356 19.9179C76.4235 19.3437 76.6026 18.4806 76.6026 17.488H74.6026C74.6026 17.8902 74.5634 18.1476 74.5176 18.3065C74.4955 18.3834 74.4739 18.4299 74.4595 18.4556C74.4524 18.4684 74.4468 18.4764 74.4435 18.4808C74.4402 18.4852 74.4383 18.4869 74.4382 18.4871C74.438 18.4873 74.4383 18.487 74.4386 18.4868C74.4389 18.4865 74.4381 18.4872 74.4354 18.4886C74.43 18.4914 74.4136 18.4991 74.3795 18.5077C74.303 18.5269 74.183 18.54 73.9826 18.54V20.54ZM76.6026 17.488C76.6026 15.5913 76.5756 13.0743 76.5486 10.6257C76.5216 8.17275 76.4946 5.79009 76.4946 4.15H74.4946C74.4946 5.80391 74.5217 8.20025 74.5487 10.6478C74.5757 13.0997 74.6026 15.6047 74.6026 17.488H76.6026ZM76.4946 4.15C76.4946 3.95641 76.4979 3.7897 76.5064 3.6485C76.515 3.5036 76.5278 3.41002 76.5396 3.35558C76.5547 3.2854 76.5539 3.34757 76.4805 3.44669C76.4372 3.5051 76.3618 3.5854 76.2444 3.6498C76.1224 3.71676 75.992 3.746 75.8726 3.746V1.746C75.4241 1.746 75.0802 1.97701 74.8733 2.25624C74.6987 2.49205 74.6236 2.75334 74.5847 2.93292C74.5054 3.30002 74.4946 3.7505 74.4946 4.15H76.4946ZM75.8726 3.746C75.9868 3.746 76.1064 3.75547 76.2856 3.76981C76.4532 3.78322 76.665 3.8 76.8986 3.8V1.8C76.7542 1.8 76.6151 1.78978 76.4451 1.77618C76.2869 1.76352 76.0824 1.746 75.8726 1.746V3.746ZM76.8986 3.8C77.6059 3.8 78.3898 3.7577 79.1204 3.71749C79.8663 3.67642 80.5504 3.638 81.1106 3.638V1.638C80.4829 1.638 79.7359 1.68057 79.0104 1.72051C78.2695 1.7613 77.5414 1.8 76.8986 1.8V3.8ZM81.1106 3.638C81.1905 3.638 81.2545 3.6407 81.3056 3.64512C81.3568 3.64957 81.3892 3.65526 81.4072 3.65937C81.4433 3.66759 81.3978 3.66374 81.3329 3.60849C81.3011 3.58137 81.275 3.55047 81.2558 3.52028C81.2373 3.49123 81.2303 3.47088 81.2291 3.4674C81.2283 3.46482 81.2326 3.4775 81.2369 3.51154C81.2411 3.54558 81.2446 3.5951 81.2446 3.664H83.2446C83.2446 3.16879 83.1534 2.53198 82.6299 2.08601C82.1523 1.67917 81.5393 1.638 81.1106 1.638V3.638ZM98.5476 45.568L97.5817 45.8271L97.5846 45.8376L98.5476 45.568ZM94.3896 27.208L93.4194 27.4505C93.4213 27.4581 93.4233 27.4656 93.4254 27.4732L94.3896 27.208ZM86.5056 3.988L85.509 3.90495L85.5086 3.91011L86.5056 3.988ZM94.6056 3.88L93.6217 4.05888C93.623 4.06616 93.6244 4.07341 93.6259 4.08065L94.6056 3.88ZM105.378 3.88C105.378 5.73782 105.31 13.7089 105.243 22.3942C105.175 31.0731 105.108 40.4602 105.108 45.136H107.108C107.108 40.4698 107.175 31.0919 107.243 22.4098C107.31 13.7341 107.378 5.74818 107.378 3.88H105.378ZM105.108 45.136C105.108 45.4076 105.05 45.5329 105.014 45.5882C104.98 45.6418 104.918 45.705 104.776 45.7684C104.435 45.9203 103.883 45.972 103.084 45.972V47.972C103.85 47.972 104.81 47.9427 105.59 47.5951C106.008 47.4088 106.409 47.1176 106.696 46.67C106.983 46.2241 107.108 45.7014 107.108 45.136H105.108ZM103.084 45.972H102.328V47.972H103.084V45.972ZM102.328 45.972C101.527 45.972 100.803 45.9535 100.243 45.8083C99.7012 45.6676 99.5613 45.4797 99.5105 45.2984L97.5846 45.8376C97.9119 47.0063 98.8789 47.5204 99.7408 47.7442C100.586 47.9635 101.562 47.972 102.328 47.972V45.972ZM99.5134 45.3089C98.9272 43.1238 98.0419 39.1015 97.2231 35.3256C96.4125 31.5872 95.6604 28.0579 95.3538 26.9428L93.4254 27.4732C93.7127 28.5181 94.4457 31.9548 95.2685 35.7494C96.0832 39.5065 96.98 43.5842 97.5817 45.8271L99.5134 45.3089ZM95.3597 26.9655C95.2943 26.7038 95.1334 26.3905 94.9688 26.1528C94.8806 26.0254 94.757 25.869 94.5984 25.7336C94.4615 25.6168 94.1627 25.398 93.7416 25.398V27.398C93.591 27.398 93.4775 27.3568 93.4129 27.3259C93.349 27.2953 93.3116 27.2648 93.2999 27.2548C93.2797 27.2375 93.2911 27.2431 93.3244 27.2912C93.3537 27.3336 93.383 27.3843 93.4056 27.4305C93.4165 27.4528 93.4235 27.4692 93.427 27.478C93.4317 27.4899 93.4266 27.4794 93.4194 27.4505L95.3597 26.9655ZM93.7416 25.398C92.9814 25.398 92.6676 26.0431 92.5738 26.3139C92.459 26.6458 92.4176 27.0602 92.4176 27.532H94.4176C94.4176 27.3455 94.4264 27.208 94.4382 27.1101C94.4441 27.0617 94.4503 27.0262 94.4555 27.0016C94.4608 26.9767 94.4643 26.9666 94.4638 26.9681C94.4635 26.9691 94.4569 26.9881 94.4399 27.0184C94.4231 27.0484 94.3912 27.098 94.3374 27.153C94.2174 27.2756 94.0104 27.398 93.7416 27.398V25.398ZM92.4176 27.532C92.4176 29.0953 92.4041 31.9268 92.3906 35.1756C92.3771 38.4223 92.3636 42.0827 92.3636 45.298H94.3636C94.3636 42.0873 94.3771 38.4307 94.3906 35.1839C94.4041 31.9392 94.4176 29.1007 94.4176 27.532H92.4176ZM92.3636 45.298C92.3636 45.3656 92.3508 45.39 92.3092 45.4309C92.2416 45.4975 92.0935 45.5933 91.8162 45.6823C91.2556 45.8621 90.4809 45.918 89.7456 45.918V47.918C90.5222 47.918 91.5565 47.8659 92.427 47.5867C92.8652 47.4462 93.338 47.2248 93.7125 46.856C94.1131 46.4615 94.3636 45.9324 94.3636 45.298H92.3636ZM89.7456 45.918H89.4216V47.918H89.7456V45.918ZM89.4216 45.918C88.5592 45.918 87.9289 45.9089 87.5044 45.7835C87.3138 45.7272 87.2631 45.6729 87.2594 45.6686C87.2589 45.6681 87.2565 45.6663 87.2522 45.6536C87.247 45.6385 87.2356 45.5965 87.2356 45.514H85.2356C85.2356 46.0641 85.395 46.5736 85.7518 46.9828C86.0923 47.3734 86.5343 47.5823 86.9377 47.7015C87.7012 47.9271 88.664 47.918 89.4216 47.918V45.918ZM87.2356 45.514C87.2356 43.8558 87.1948 41.7919 87.1544 39.489C87.1139 37.1812 87.0736 34.6236 87.0736 31.96H85.0736C85.0736 34.6424 85.1142 37.2148 85.1547 39.524C85.1953 41.8381 85.2356 43.8782 85.2356 45.514H87.2356ZM87.0736 31.96C87.0736 20.6029 87.2363 7.4736 87.5025 4.06588L85.5086 3.91011C85.2348 7.4144 85.0736 20.6371 85.0736 31.96H87.0736ZM87.5021 4.07104C87.5257 3.78785 87.562 3.65353 87.5837 3.59881C87.596 3.56784 87.5786 3.62059 87.5096 3.66544C87.4629 3.6958 87.46 3.6761 87.5977 3.65945C87.7383 3.64243 87.93 3.638 88.2336 3.638V1.638C87.9432 1.638 87.6353 1.64031 87.3575 1.67392C87.0766 1.7079 86.7363 1.7827 86.4196 1.98855C85.7234 2.44109 85.5656 3.22589 85.509 3.90495L87.5021 4.07104ZM88.2336 3.638C89.2169 3.638 90.2436 3.66459 91.1885 3.69159C92.1239 3.71831 92.9942 3.746 93.6336 3.746V1.746C93.031 1.746 92.2003 1.71968 91.2456 1.69241C90.3005 1.6654 89.2483 1.638 88.2336 1.638V3.638ZM93.6336 3.746C93.5945 3.746 93.5496 3.73442 93.513 3.71413C93.4815 3.69664 93.4769 3.68437 93.4909 3.70242C93.5053 3.72105 93.5301 3.76012 93.5564 3.82562C93.5824 3.89013 93.6054 3.96925 93.6217 4.05888L95.5895 3.70111C95.5164 3.29949 95.361 2.85096 95.0723 2.47808C94.7691 2.08645 94.284 1.746 93.6336 1.746V3.746ZM93.6259 4.08065C94.0844 6.31896 95.0181 10.9065 95.9321 14.935C96.3886 16.9468 96.8437 18.8351 97.2347 20.2265C97.429 20.9177 97.6148 21.5132 97.784 21.9468C97.8663 22.1576 97.9607 22.3724 98.0686 22.5497C98.1209 22.6356 98.2028 22.7573 98.3199 22.8692C98.4188 22.9636 98.6827 23.186 99.0876 23.186V21.186C99.4453 21.186 99.6579 21.3814 99.7017 21.4233C99.7638 21.4826 99.7869 21.5261 99.7769 21.5096C99.7602 21.4822 99.7158 21.3956 99.6472 21.2197C99.5145 20.8798 99.3498 20.3603 99.1601 19.6854C98.7834 18.3448 98.3373 16.4969 97.8825 14.4925C96.9741 10.4885 96.0448 5.92303 95.5852 3.67934L93.6259 4.08065ZM99.0876 23.186C99.5764 23.186 99.8808 22.8846 100.019 22.6866C100.151 22.4961 100.217 22.2916 100.253 22.145C100.33 21.8391 100.358 21.4607 100.358 21.052H98.3576C98.3576 21.3993 98.3312 21.5879 98.3132 21.66C98.3026 21.7024 98.3107 21.6396 98.3775 21.5436C98.4496 21.4401 98.6798 21.186 99.0876 21.186V23.186ZM100.358 21.052C100.358 18.5537 100.29 15.6793 100.222 12.894C100.155 10.1016 100.088 7.4021 100.088 5.23H98.0876C98.0876 7.4319 98.1555 10.1594 98.2229 12.9425C98.2904 15.7327 98.3576 18.5823 98.3576 21.052H100.358ZM100.088 5.23C100.088 4.52966 100.133 4.04308 100.231 3.7549C100.276 3.62208 100.306 3.61171 100.276 3.63853C100.224 3.68484 100.165 3.692 100.168 3.692V1.692C99.7116 1.692 99.2879 1.8409 98.9472 2.14371C98.6285 2.42703 98.4464 2.78792 98.3361 3.11409C98.123 3.74392 98.0876 4.52634 98.0876 5.23H100.088ZM100.168 3.692C100.349 3.692 100.548 3.70341 100.792 3.71737C101.026 3.7307 101.296 3.746 101.572 3.746V1.746C101.361 1.746 101.146 1.7343 100.906 1.72063C100.678 1.70758 100.418 1.692 100.168 1.692V3.692ZM101.572 3.746C102.1 3.746 102.639 3.73211 103.15 3.71865C103.667 3.70505 104.152 3.692 104.596 3.692V1.692C104.121 1.692 103.607 1.70594 103.098 1.71934C102.583 1.73289 102.069 1.746 101.572 1.746V3.746ZM104.596 3.692C104.8 3.692 104.972 3.70131 105.114 3.72248C105.259 3.74402 105.339 3.77302 105.376 3.79201C105.404 3.80616 105.387 3.803 105.37 3.77469C105.355 3.74896 105.378 3.76561 105.378 3.88H107.378C107.378 3.48139 107.293 3.09303 107.087 2.74837C106.879 2.40112 106.588 2.16509 106.285 2.01049C105.726 1.72505 105.069 1.692 104.596 1.692V3.692ZM125.592 38.008C125.592 40.8897 124.978 42.8605 123.824 44.1147C122.687 45.3516 120.847 46.08 117.952 46.08V48.08C121.159 48.08 123.64 47.2694 125.296 45.4688C126.937 43.6855 127.592 41.1203 127.592 38.008H125.592ZM117.952 46.08C115.017 46.08 113.297 45.3726 112.27 44.1798C111.213 42.9511 110.69 40.9853 110.69 38.008H108.69C108.69 41.1327 109.221 43.7029 110.755 45.4847C112.32 47.3024 114.731 48.08 117.952 48.08V46.08ZM110.69 38.008V13.006H108.69V38.008H110.69ZM110.69 13.006C110.69 8.87881 111.575 6.58401 112.801 5.30854C114.012 4.04761 115.748 3.584 117.952 3.584V1.584C115.512 1.584 113.117 2.09239 111.359 3.92296C109.614 5.73899 108.69 8.65519 108.69 13.006H110.69ZM117.952 3.584C120.325 3.584 122.159 3.95073 123.424 5.09419C124.671 6.22228 125.592 8.32142 125.592 12.358H127.592C127.592 8.07857 126.623 5.29072 124.765 3.61081C122.925 1.94627 120.439 1.584 117.952 1.584V3.584ZM125.592 12.358V38.008H127.592V12.358H125.592ZM120.734 35.578V13.708H118.734V35.578H120.734ZM120.734 13.708C120.734 12.2775 120.599 11.2256 120.18 10.5273C119.943 10.1317 119.618 9.85173 119.222 9.69092C118.858 9.54305 118.495 9.522 118.222 9.522V11.522C118.31 11.522 118.37 11.526 118.413 11.532C118.455 11.5378 118.47 11.544 118.469 11.5438C118.443 11.5331 118.439 11.513 118.465 11.5562C118.572 11.7354 118.734 12.2765 118.734 13.708H120.734ZM118.222 9.522C117.812 9.522 117.387 9.60065 116.992 9.82246C116.592 10.0472 116.293 10.3801 116.08 10.7762C115.679 11.5199 115.548 12.5432 115.548 13.762H117.548C117.548 12.6048 117.688 12.0081 117.84 11.7258C117.903 11.6089 117.952 11.5773 117.972 11.5658C117.998 11.5513 118.065 11.522 118.222 11.522V9.522ZM115.548 13.762V35.632H117.548V13.762H115.548ZM115.548 35.632C115.548 36.3137 115.59 36.881 115.686 37.3482C115.781 37.8129 115.943 38.2439 116.23 38.5913C116.856 39.3482 117.762 39.332 118.222 39.332V37.332C117.962 37.332 117.841 37.3219 117.767 37.3038C117.741 37.2972 117.739 37.2935 117.749 37.2996C117.754 37.3024 117.759 37.3062 117.764 37.3104C117.769 37.3146 117.771 37.3172 117.771 37.3167C117.768 37.3131 117.703 37.2311 117.645 36.9466C117.587 36.6645 117.548 36.2463 117.548 35.632H115.548ZM118.222 39.332C118.757 39.332 119.584 39.2599 120.143 38.458C120.6 37.8017 120.734 36.8263 120.734 35.578H118.734C118.734 36.8137 118.571 37.2153 118.502 37.315C118.493 37.3269 118.494 37.3229 118.505 37.3144C118.517 37.3061 118.524 37.3043 118.518 37.3063C118.493 37.3149 118.418 37.332 118.222 37.332V39.332ZM146.697 45.352L147.693 45.435C147.695 45.4074 147.697 45.3797 147.697 45.352H146.697ZM131.037 45.028L132.037 45.028L132.037 45.0161L131.037 45.028ZM137.679 2.422V1.422C137.661 1.422 137.644 1.42246 137.626 1.42338L137.679 2.422ZM145.7 45.269C145.703 45.2366 145.717 45.2067 145.727 45.1918C145.734 45.1826 145.726 45.1976 145.683 45.2235C145.64 45.2492 145.578 45.2758 145.503 45.2956C145.427 45.3154 145.353 45.324 145.293 45.324V47.324C145.749 47.324 146.269 47.2041 146.712 46.9385C147.163 46.6674 147.631 46.1754 147.693 45.435L145.7 45.269ZM145.293 45.324C143.603 45.324 141.536 45.3785 139.488 45.4323C137.432 45.4865 135.395 45.54 133.737 45.54V47.54C135.427 47.54 137.493 47.4855 139.541 47.4317C141.597 47.3775 143.635 47.324 145.293 47.324V45.324ZM133.737 45.54C132.982 45.54 132.499 45.4779 132.226 45.3562C132.113 45.306 132.084 45.266 132.078 45.2563C132.073 45.2488 132.037 45.195 132.037 45.028H130.037C130.037 45.509 130.149 45.9682 130.414 46.3657C130.677 46.761 131.04 47.018 131.413 47.1838C132.112 47.4941 132.979 47.54 133.737 47.54V45.54ZM132.037 45.0161C131.875 31.3571 131.767 13.3792 131.767 5.878H129.767C129.767 13.3888 129.875 31.3749 130.037 45.0399L132.037 45.0161ZM131.767 5.878C131.767 4.82066 131.81 4.06406 131.922 3.5899C131.978 3.35127 132.03 3.28515 132.022 3.29504C131.98 3.34783 131.865 3.422 131.739 3.422V1.422C131.207 1.422 130.769 1.66491 130.468 2.03664C130.202 2.36547 130.061 2.76848 129.976 3.1306C129.804 3.85794 129.767 4.82934 129.767 5.878H131.767ZM131.739 3.422C132.056 3.422 132.395 3.45614 132.797 3.49769C133.178 3.53714 133.622 3.584 134.061 3.584V1.584C133.743 1.584 133.404 1.54986 133.002 1.50831C132.621 1.46886 132.177 1.422 131.739 1.422V3.422ZM134.061 3.584C135.445 3.584 136.748 3.47235 137.731 3.42062L137.626 1.42338C136.557 1.47964 135.376 1.584 134.061 1.584V3.584ZM137.679 3.422C137.777 3.422 137.805 3.43286 137.79 3.42834C137.768 3.42173 137.696 3.39418 137.619 3.3181C137.542 3.24104 137.507 3.15997 137.494 3.11423C137.483 3.07738 137.489 3.07226 137.489 3.124H139.489C139.489 2.8162 139.437 2.30756 139.034 1.90389C138.635 1.50545 138.107 1.422 137.679 1.422V3.422ZM137.489 3.124C137.489 3.19584 137.482 3.26496 137.468 3.39157C137.455 3.50796 137.435 3.68184 137.435 3.88H139.435C139.435 3.80816 139.441 3.73904 139.455 3.61243C139.468 3.49604 139.489 3.32216 139.489 3.124H137.489ZM137.435 3.88C137.435 4.45648 137.448 5.23769 137.462 6.16913C137.475 7.10566 137.489 8.20711 137.489 9.442H139.489C139.489 8.19288 139.475 7.08033 139.461 6.14036C139.448 5.1953 139.435 4.43751 139.435 3.88H137.435ZM137.489 9.442C137.489 11.8963 137.475 14.8502 137.462 17.9899C137.448 21.1285 137.435 24.4516 137.435 27.64H139.435C139.435 24.4564 139.448 21.1375 139.462 17.9985C139.475 14.8608 139.489 11.9017 139.489 9.442H137.489ZM137.435 27.64C137.435 29.3774 137.462 31.0861 137.489 32.6923C137.516 34.3022 137.543 35.8044 137.543 37.144H139.543C139.543 35.7836 139.515 34.2618 139.488 32.6587C139.461 31.0519 139.435 29.3586 139.435 27.64H137.435ZM137.543 37.144C137.543 37.6194 137.659 38.0689 137.926 38.4516C138.191 38.8301 138.547 39.064 138.895 39.2082C139.541 39.4768 140.312 39.494 140.865 39.494V37.494C140.283 37.494 139.893 37.4572 139.662 37.3613C139.571 37.3233 139.559 37.2973 139.566 37.3062C139.575 37.3194 139.543 37.2896 139.543 37.144H137.543ZM140.865 39.494C141.658 39.494 142.409 39.4803 143.151 39.4668C143.894 39.4533 144.628 39.44 145.401 39.44V37.44C144.607 37.44 143.856 37.4537 143.114 37.4672C142.371 37.4807 141.637 37.494 140.865 37.494V39.494ZM145.401 39.44C145.481 39.44 145.556 39.4503 145.619 39.467C145.682 39.4839 145.72 39.504 145.737 39.5151C145.752 39.5252 145.739 39.5203 145.721 39.4906C145.701 39.4564 145.697 39.4238 145.697 39.412H147.697C147.697 38.7001 147.32 38.1666 146.846 37.8509C146.402 37.5551 145.873 37.44 145.401 37.44V39.44ZM145.697 39.412C145.697 40.1521 145.71 40.8636 145.724 41.5642C145.737 42.2676 145.751 42.9601 145.751 43.678H147.751C147.751 42.9379 147.737 42.2264 147.723 41.5258C147.71 40.8224 147.697 40.1299 147.697 39.412H145.697ZM145.751 43.678C145.751 43.9191 145.739 44.1638 145.725 44.446C145.711 44.7208 145.697 45.0273 145.697 45.352H147.697C147.697 45.0827 147.709 44.8222 147.722 44.5435C147.736 44.2722 147.751 43.9769 147.751 43.678H145.751ZM165.324 38.008C165.324 40.8897 164.71 42.8605 163.557 44.1147C162.419 45.3516 160.579 46.08 157.684 46.08V48.08C160.891 48.08 163.372 47.2694 165.028 45.4688C166.669 43.6855 167.324 41.1203 167.324 38.008H165.324ZM157.684 46.08C154.749 46.08 153.03 45.3726 152.003 44.1798C150.945 42.9511 150.422 40.9853 150.422 38.008H148.422C148.422 41.1327 148.953 43.7029 150.487 45.4847C152.052 47.3024 154.463 48.08 157.684 48.08V46.08ZM150.422 38.008V13.006H148.422V38.008H150.422ZM150.422 13.006C150.422 8.87881 151.308 6.58401 152.533 5.30854C153.744 4.04761 155.481 3.584 157.684 3.584V1.584C155.244 1.584 152.849 2.09239 151.091 3.92296C149.346 5.73899 148.422 8.65519 148.422 13.006H150.422ZM157.684 3.584C160.057 3.584 161.892 3.95073 163.156 5.09419C164.403 6.22228 165.324 8.32142 165.324 12.358H167.324C167.324 8.07857 166.355 5.29072 164.498 3.61081C162.657 1.94627 160.172 1.584 157.684 1.584V3.584ZM165.324 12.358V38.008H167.324V12.358H165.324ZM160.466 35.578V13.708H158.466V35.578H160.466ZM160.466 13.708C160.466 12.2775 160.331 11.2256 159.912 10.5273C159.675 10.1317 159.35 9.85173 158.954 9.69092C158.59 9.54305 158.228 9.522 157.954 9.522V11.522C158.042 11.522 158.102 11.526 158.145 11.532C158.187 11.5378 158.202 11.544 158.201 11.5438C158.175 11.5331 158.171 11.513 158.197 11.5562C158.305 11.7354 158.466 12.2765 158.466 13.708H160.466ZM157.954 9.522C157.544 9.522 157.119 9.60065 156.724 9.82246C156.324 10.0472 156.026 10.3801 155.812 10.7762C155.411 11.5199 155.28 12.5432 155.28 13.762H157.28C157.28 12.6048 157.42 12.0081 157.572 11.7258C157.635 11.6089 157.684 11.5773 157.704 11.5658C157.73 11.5513 157.798 11.522 157.954 11.522V9.522ZM155.28 13.762V35.632H157.28V13.762H155.28ZM155.28 35.632C155.28 36.3137 155.322 36.881 155.418 37.3482C155.513 37.8129 155.675 38.2439 155.962 38.5913C156.588 39.3482 157.494 39.332 157.954 39.332V37.332C157.694 37.332 157.573 37.3219 157.5 37.3038C157.473 37.2972 157.471 37.2935 157.481 37.2996C157.486 37.3024 157.492 37.3062 157.497 37.3104C157.501 37.3146 157.504 37.3172 157.503 37.3167C157.5 37.3131 157.436 37.2311 157.377 36.9466C157.319 36.6645 157.28 36.2463 157.28 35.632H155.28ZM157.954 39.332C158.489 39.332 159.317 39.2599 159.875 38.458C160.332 37.8017 160.466 36.8263 160.466 35.578H158.466C158.466 36.8137 158.303 37.2153 158.234 37.315C158.226 37.3269 158.226 37.3229 158.238 37.3144C158.249 37.3061 158.256 37.3043 158.25 37.3063C158.225 37.3149 158.15 37.332 157.954 37.332V39.332ZM187.131 43.948L187.327 42.9674C187.067 42.9154 186.797 42.9688 186.576 43.1159C186.355 43.2631 186.202 43.4918 186.15 43.7519L187.131 43.948ZM171.309 35.902L170.309 35.8972V35.902H171.309ZM171.417 13.6L170.417 13.5942L170.417 13.5952L171.417 13.6ZM190.425 12.736L189.425 12.7549L189.425 12.7677L190.425 12.736ZM189.587 45.082C189.587 45.388 189.573 45.5797 189.553 45.7006C189.533 45.8244 189.517 45.7959 189.571 45.724C189.601 45.6839 189.641 45.6464 189.685 45.6174C189.728 45.5899 189.76 45.5801 189.765 45.5785C189.769 45.5774 189.753 45.5822 189.706 45.5867C189.66 45.5911 189.596 45.594 189.507 45.594V47.594C189.928 47.594 190.686 47.5707 191.171 46.924C191.387 46.6361 191.479 46.3106 191.526 46.0294C191.573 45.7453 191.587 45.424 191.587 45.082H189.587ZM189.507 45.594C189.391 45.594 189.255 45.5841 189.08 45.5702C188.928 45.558 188.719 45.54 188.535 45.54V47.54C188.621 47.54 188.736 47.549 188.921 47.5638C189.084 47.5769 189.299 47.594 189.507 47.594V45.594ZM188.535 45.54C188.894 45.54 188.981 45.8082 188.861 45.6145C188.777 45.4795 188.682 45.2531 188.578 44.945C188.529 44.7988 188.482 44.6494 188.436 44.4987C188.392 44.3536 188.345 44.1981 188.3 44.0625C188.258 43.9344 188.202 43.7764 188.135 43.6374C188.102 43.5699 188.046 43.4637 187.96 43.3578C187.893 43.2751 187.689 43.0399 187.327 42.9674L186.935 44.9286C186.606 44.8629 186.436 44.6538 186.404 44.6142C186.376 44.5792 186.358 44.5511 186.35 44.5371C186.341 44.5222 186.337 44.5131 186.336 44.5124C186.336 44.5124 186.343 44.5262 186.356 44.5605C186.368 44.5933 186.383 44.6355 186.401 44.6891C186.437 44.799 186.476 44.9274 186.524 45.085C186.571 45.237 186.624 45.4091 186.683 45.5835C186.795 45.9166 186.949 46.3281 187.162 46.6707C187.339 46.9546 187.771 47.54 188.535 47.54V45.54ZM187.131 43.948C186.15 43.7519 186.15 43.751 186.151 43.75C186.151 43.7497 186.151 43.7488 186.151 43.7482C186.151 43.7471 186.151 43.7459 186.152 43.7448C186.152 43.7426 186.153 43.7406 186.153 43.7386C186.154 43.7348 186.155 43.7316 186.155 43.7289C186.156 43.7236 186.157 43.7205 186.157 43.7195C186.158 43.7175 186.156 43.7238 186.152 43.7373C186.142 43.7643 186.121 43.8197 186.08 43.8947C186.001 44.0427 185.842 44.276 185.538 44.5246C184.94 45.0147 183.674 45.648 181.083 45.648V47.648C183.999 47.648 185.757 46.9313 186.806 46.0714C187.326 45.645 187.647 45.2033 187.84 44.845C187.936 44.667 188 44.5114 188.042 44.3908C188.063 44.3304 188.078 44.2787 188.089 44.2372C188.095 44.2164 188.099 44.1981 188.103 44.1826C188.105 44.1748 188.106 44.1677 188.108 44.1613C188.108 44.1581 188.109 44.155 188.11 44.1522C188.11 44.1507 188.11 44.1493 188.111 44.148C188.111 44.1473 188.111 44.1464 188.111 44.146C188.111 44.1451 188.111 44.1441 187.131 43.948ZM181.083 45.648C177.392 45.648 175.307 44.7521 174.093 43.273C172.839 41.745 172.309 39.3611 172.309 35.902H170.309C170.309 39.4629 170.832 42.452 172.547 44.542C174.303 46.6809 177.106 47.648 181.083 47.648V45.648ZM172.309 35.9068L172.417 13.6048L170.417 13.5952L170.309 35.8972L172.309 35.9068ZM172.417 13.6058C172.444 8.96108 173.156 6.51192 174.375 5.18361C175.558 3.89334 177.445 3.422 180.597 3.422V1.422C177.377 1.422 174.701 1.86866 172.901 3.83188C171.135 5.75708 170.444 8.89691 170.417 13.5942L172.417 13.6058ZM180.597 3.422C184.81 3.422 186.856 4.52258 187.941 6.01927C189.088 7.6014 189.371 9.88094 189.425 12.7549L191.425 12.7171C191.371 9.86705 191.114 6.98959 189.561 4.84572C187.945 2.61642 185.132 1.422 180.597 1.422V3.422ZM190.425 12.736C189.425 12.7677 189.425 12.7677 189.425 12.7677C189.425 12.7678 189.425 12.7678 189.425 12.7678C189.425 12.7679 189.425 12.7681 189.425 12.7683C189.425 12.7686 189.425 12.7692 189.425 12.77C189.425 12.7716 189.425 12.774 189.426 12.7772C189.426 12.7836 189.426 12.7931 189.426 12.8058C189.427 12.8311 189.428 12.8686 189.43 12.9173C189.433 13.0147 189.437 13.1568 189.442 13.3354C189.452 13.6927 189.466 14.1955 189.479 14.7774C189.506 15.9426 189.533 17.4186 189.533 18.676H191.533C191.533 17.3954 191.506 15.9014 191.479 14.7311C191.465 14.1452 191.451 13.6389 191.441 13.279C191.436 13.099 191.432 12.9556 191.429 12.857C191.427 12.8077 191.426 12.7697 191.426 12.7439C191.425 12.731 191.425 12.7211 191.425 12.7145C191.425 12.7112 191.424 12.7086 191.424 12.7069C191.424 12.7061 191.424 12.7054 191.424 12.705C191.424 12.7048 191.424 12.7046 191.424 12.7045C191.424 12.7044 191.424 12.7044 191.424 12.7043C191.424 12.7043 191.424 12.7043 190.425 12.736ZM189.533 18.676C189.533 19.1304 189.503 19.4287 189.46 19.6243C189.417 19.8146 189.375 19.846 189.391 19.8291C189.414 19.8036 189.422 19.8208 189.323 19.8443C189.204 19.8723 189.016 19.89 188.697 19.89V21.89C189.34 21.89 190.233 21.8566 190.852 21.1949C191.437 20.5685 191.533 19.6342 191.533 18.676H189.533ZM188.697 19.89H187.725V21.89H188.697V19.89ZM187.725 19.89C186.827 19.89 185.778 19.8749 184.964 19.7526C184.548 19.69 184.281 19.611 184.143 19.5416C183.992 19.4654 184.243 19.5433 184.243 19.864H182.243C182.243 20.6707 182.831 21.1198 183.242 21.3272C183.666 21.5413 184.185 21.658 184.667 21.7304C185.649 21.8781 186.841 21.89 187.725 21.89V19.89ZM184.243 19.864V18.838H182.243V19.864H184.243ZM184.243 18.838C184.243 17.2267 184.231 14.755 183.936 12.6765C183.79 11.6469 183.564 10.6288 183.189 9.84204C182.829 9.08642 182.164 8.226 181.029 8.226V10.226C181.038 10.226 181.039 10.227 181.039 10.2273C181.042 10.2282 181.058 10.2352 181.089 10.2616C181.157 10.3206 181.263 10.4509 181.383 10.7025C181.626 11.2117 181.818 11.9891 181.956 12.9575C182.228 14.875 182.243 17.2093 182.243 18.838H184.243ZM181.029 8.226C179.912 8.226 179.142 9.03134 178.705 9.92946C178.259 10.8465 178.031 12.0771 178.031 13.492H180.031C180.031 12.2609 180.234 11.3585 180.504 10.804C180.783 10.2307 181.012 10.226 181.029 10.226V8.226ZM178.031 13.492V36.226H180.031V13.492H178.031ZM178.031 36.226C178.031 36.7769 178.251 37.7929 178.635 38.667C178.832 39.114 179.102 39.5961 179.467 39.9814C179.834 40.3698 180.376 40.736 181.083 40.736V38.736C181.115 38.736 181.062 38.758 180.919 38.6063C180.772 38.4517 180.614 38.198 180.466 37.862C180.162 37.1701 180.031 36.4311 180.031 36.226H178.031ZM181.083 40.736C181.946 40.736 182.606 40.3169 183.056 39.73C183.478 39.1807 183.727 38.4795 183.886 37.7956C184.205 36.4219 184.243 34.7365 184.243 33.418H182.243C182.243 34.7455 182.199 36.219 181.938 37.3429C181.807 37.9078 181.64 38.29 181.47 38.5118C181.329 38.6961 181.219 38.736 181.083 38.736V40.736ZM184.243 33.418V32.554H182.243V33.418H184.243ZM184.243 32.554C184.243 31.9892 184.231 31.4099 184.165 30.9588C184.134 30.7433 184.079 30.4699 183.959 30.2247C183.849 29.9979 183.524 29.502 182.865 29.502V31.502C182.368 31.502 182.171 31.1209 182.162 31.1016C182.143 31.064 182.163 31.0909 182.186 31.2467C182.228 31.538 182.243 31.9848 182.243 32.554H184.243ZM182.865 29.502C182.673 29.502 182.516 29.5358 182.453 29.5484C182.381 29.5628 182.403 29.556 182.433 29.556V31.556C182.625 31.556 182.782 31.5222 182.845 31.5096C182.917 31.4952 182.895 31.502 182.865 31.502V29.502ZM182.433 29.556C182.109 29.556 181.921 29.542 181.81 29.5224C181.699 29.5027 181.767 29.4937 181.865 29.5819C181.981 29.6855 181.999 29.7945 181.994 29.7686C181.99 29.7516 181.985 29.7135 181.98 29.6417C181.976 29.5706 181.975 29.4826 181.975 29.368H179.975C179.975 29.6088 179.979 29.8944 180.032 30.1588C180.089 30.4468 180.219 30.792 180.53 31.0711C180.824 31.3348 181.172 31.4406 181.461 31.4917C181.75 31.543 182.081 31.556 182.433 31.556V29.556ZM181.975 29.368C181.975 29.0008 181.961 28.4975 181.947 27.9724C181.934 27.4388 181.921 26.8698 181.921 26.344H179.921C179.921 26.8982 179.935 27.4902 179.948 28.0231C179.962 28.5645 179.975 29.0332 179.975 29.368H181.975ZM181.921 26.344C181.921 25.7069 181.964 25.2445 182.051 24.9683C182.092 24.835 182.12 24.828 182.084 24.8641C182.02 24.9272 181.919 24.968 181.839 24.968V22.968C181.38 22.968 180.975 23.1438 180.669 23.4499C180.39 23.729 180.235 24.073 180.142 24.3717C179.958 24.9595 179.921 25.6851 179.921 26.344H181.921ZM181.839 24.968C182.312 24.968 182.906 24.9812 183.58 24.9948C184.249 25.0083 184.987 25.022 185.727 25.022V23.022C185.009 23.022 184.289 23.0087 183.621 22.9952C182.958 22.9818 182.338 22.968 181.839 22.968V24.968ZM185.727 25.022C186.15 25.022 186.611 25.0079 187.059 24.9946C187.514 24.981 187.958 24.968 188.373 24.968V22.968C187.923 22.968 187.449 22.982 187 22.9954C186.543 23.0091 186.114 23.022 185.727 23.022V25.022ZM188.373 24.968C188.955 24.968 189.362 25.0124 189.595 25.0941C189.702 25.1316 189.697 25.1519 189.661 25.1108C189.605 25.048 189.587 24.9704 189.587 24.94H191.587C191.587 24.5046 191.441 24.103 191.155 23.782C190.889 23.4827 190.554 23.3107 190.256 23.2064C189.679 23.0046 188.978 22.968 188.373 22.968V24.968ZM189.587 24.94C189.587 25.3365 189.574 26.1327 189.56 27.202C189.546 28.2636 189.533 29.5779 189.533 30.988H191.533C191.533 29.5901 191.546 28.2854 191.56 27.2275C191.573 26.1773 191.587 25.3535 191.587 24.94H189.587ZM189.533 30.988C189.533 33.8526 189.546 37.1756 189.56 39.8827C189.573 42.5944 189.587 44.6802 189.587 45.082H191.587C191.587 44.6738 191.573 42.5746 191.56 39.8728C191.546 37.1664 191.533 33.8474 191.533 30.988H189.533ZM213.487 4.204L214.418 4.57052C214.424 4.55392 214.43 4.53715 214.436 4.52023L213.487 4.204ZM200.149 22.888L199.184 23.1476L199.185 23.1511L200.149 22.888ZM194.209 3.502H193.209C193.209 3.61103 193.227 3.71932 193.262 3.82259L194.209 3.502ZM202.039 3.718L203.029 3.57144L203.027 3.56001L202.039 3.718ZM205.981 3.718L206.955 3.94849L206.958 3.93493L205.981 3.718ZM212.557 3.83747C212.194 4.75944 210.728 8.92901 209.357 13.1781C208.67 15.3067 208.001 17.4702 207.504 19.2693C207.256 20.1683 207.047 20.986 206.9 21.6682C206.758 22.3262 206.655 22.9332 206.655 23.374H208.655C208.655 23.1668 208.713 22.7444 208.855 22.0902C208.991 21.4601 209.188 20.6828 209.432 19.8022C209.918 18.0425 210.577 15.9095 211.26 13.7924C212.629 9.54998 214.079 5.43056 214.418 4.57052L212.557 3.83747ZM206.655 23.374C206.655 23.8403 206.686 24.1581 206.711 24.6341C206.737 25.1325 206.763 25.8977 206.763 27.37H208.763C208.763 25.8723 208.736 25.0715 208.708 24.5304C208.679 23.9669 208.655 23.7717 208.655 23.374H206.655ZM206.763 27.37C206.763 29.2027 206.75 31.6835 206.736 34.2227C206.723 36.7599 206.709 39.3548 206.709 41.41H208.709C208.709 39.3612 208.723 36.7721 208.736 34.2333C208.75 31.6965 208.763 29.2093 208.763 27.37H206.763ZM206.709 41.41C206.709 42.1777 206.723 42.8618 206.737 43.4383C206.75 44.0229 206.763 44.4765 206.763 44.812H208.763C208.763 44.4455 208.749 43.9541 208.736 43.3912C208.723 42.8202 208.709 42.1543 208.709 41.41H206.709ZM206.763 44.812C206.763 45.379 206.669 45.4593 206.686 45.441C206.718 45.4067 206.64 45.54 205.981 45.54V47.54C206.78 47.54 207.594 47.4033 208.152 46.802C208.695 46.2167 208.763 45.433 208.763 44.812H206.763ZM205.981 45.54C205.327 45.54 204.506 45.4765 203.644 45.4081C202.809 45.3419 201.926 45.27 201.229 45.27V47.27C201.829 47.27 202.62 47.3331 203.486 47.4019C204.325 47.4685 205.232 47.54 205.981 47.54V45.54ZM201.229 45.27C201.13 45.27 201.153 45.2486 201.202 45.2888C201.236 45.3168 201.206 45.3147 201.164 45.1797C201.064 44.8627 201.041 44.3412 201.041 43.516H199.041C199.041 44.2568 199.046 45.1123 199.256 45.7808C199.369 46.1385 199.566 46.5313 199.929 46.831C200.306 47.1429 200.762 47.27 201.229 47.27V45.27ZM201.041 43.516C201.041 41.2869 201.109 37.6667 201.176 34.1459C201.244 30.6358 201.311 27.2204 201.311 25.426H199.311C199.311 27.1956 199.244 30.5842 199.177 34.1076C199.109 37.6203 199.041 41.2631 199.041 43.516H201.041ZM201.311 25.426V24.184H199.311V25.426H201.311ZM201.311 24.184C201.311 23.9283 201.313 23.6938 201.285 23.4458C201.256 23.1878 201.2 22.9412 201.114 22.6249L199.185 23.1511C199.26 23.4288 199.285 23.5602 199.297 23.6667C199.31 23.7832 199.311 23.8997 199.311 24.184H201.311ZM201.115 22.6284C199.758 17.5798 196.349 6.70451 195.157 3.1814L193.262 3.82259C194.446 7.31949 197.841 18.1522 199.184 23.1476L201.115 22.6284ZM195.209 3.502C195.209 3.32468 195.166 3.18599 195.137 3.11037C195.122 3.07052 195.108 3.03798 195.098 3.01681C195.088 2.99665 195.079 2.97854 195.077 2.97378C195.072 2.96504 195.075 2.96965 195.078 2.97631C195.082 2.98398 195.09 3.00302 195.1 3.02937C195.118 3.07799 195.155 3.18968 195.155 3.34H193.155C193.155 3.51731 193.199 3.65601 193.228 3.73163C193.242 3.77148 193.257 3.80402 193.267 3.82519C193.277 3.84534 193.286 3.86346 193.288 3.86822C193.292 3.87696 193.29 3.87234 193.287 3.86569C193.283 3.85802 193.275 3.83898 193.265 3.81262C193.246 3.76401 193.209 3.65231 193.209 3.502H195.209ZM195.155 3.34C195.155 3.31158 195.155 3.35506 195.12 3.39065C195.112 3.39989 195.154 3.35278 195.334 3.29882C195.714 3.18489 196.301 3.152 197.071 3.152V1.152C196.33 1.152 195.459 1.1731 194.759 1.38317C194.399 1.49122 193.996 1.67361 193.676 2.00684C193.332 2.36644 193.155 2.82842 193.155 3.34H195.155ZM197.071 3.152H198.475V1.152H197.071V3.152ZM198.475 3.152C199.239 3.152 199.94 3.20829 200.447 3.37743C200.937 3.54071 201.027 3.72135 201.052 3.87599L203.027 3.56001C202.836 2.36465 201.927 1.76228 201.08 1.48006C200.251 1.2037 199.278 1.152 198.475 1.152V3.152ZM201.05 3.86455C201.273 5.36744 201.767 7.66998 202.228 9.58191C202.46 10.5409 202.686 11.4168 202.87 12.0587C202.962 12.3764 203.047 12.6537 203.122 12.8595C203.157 12.9575 203.201 13.0697 203.251 13.1696C203.274 13.2145 203.319 13.3006 203.389 13.3895C203.423 13.4334 203.49 13.5125 203.592 13.5883C203.688 13.6593 203.899 13.79 204.199 13.79V11.79C204.493 11.79 204.697 11.9177 204.785 11.9827C204.879 12.0526 204.937 12.1228 204.962 12.155C204.991 12.1921 205.01 12.2224 205.019 12.2377C205.029 12.2544 205.035 12.2663 205.038 12.2707C205.042 12.279 205.03 12.2561 205.003 12.1801C204.951 12.0378 204.88 11.8114 204.793 11.5065C204.619 10.9029 204.4 10.0576 204.173 9.11308C203.716 7.21802 203.238 4.98455 203.029 3.57145L201.05 3.86455ZM204.199 13.79C204.692 13.79 204.958 13.4558 205.007 13.3937C205.091 13.2873 205.138 13.1847 205.16 13.136C205.207 13.0278 205.241 12.9137 205.264 12.829C205.313 12.6467 205.363 12.4056 205.415 12.1373C205.518 11.594 205.646 10.8298 205.793 9.95986C206.09 8.20276 206.477 5.96475 206.955 3.94846L205.008 3.48753C204.514 5.57525 204.118 7.87324 203.821 9.62614C203.671 10.5112 203.549 11.2455 203.45 11.7619C203.4 12.0236 203.361 12.2026 203.333 12.308C203.317 12.3672 203.314 12.3638 203.329 12.3304C203.334 12.3191 203.366 12.2449 203.435 12.1576C203.469 12.1145 203.721 11.79 204.199 11.79V13.79ZM206.958 3.93493C206.996 3.76168 207.104 3.56348 207.743 3.41705C208.406 3.26541 209.292 3.26 210.355 3.26V1.26C209.367 1.26 208.228 1.25459 207.297 1.46744C206.344 1.68552 205.291 2.21631 205.005 3.50107L206.958 3.93493ZM210.355 3.26H210.895V1.26H210.355V3.26ZM210.895 3.26C211.587 3.26 212.067 3.32014 212.349 3.44173C212.471 3.49424 212.504 3.53693 212.51 3.54511C212.511 3.54601 212.541 3.58221 212.541 3.718H214.541C214.541 3.23279 214.417 2.77624 214.141 2.38732C213.87 2.00569 213.504 1.7615 213.14 1.60476C212.451 1.30786 211.608 1.26 210.895 1.26V3.26ZM212.541 3.718C212.541 3.76023 212.541 3.79032 212.541 3.81867C212.54 3.84583 212.539 3.86443 212.538 3.87795C212.536 3.90411 212.534 3.90254 212.539 3.88777L214.436 4.52023C214.549 4.18059 214.541 3.85745 214.541 3.718H212.541ZM234.542 9.064L235.542 9.07343V9.064H234.542ZM234.434 20.512L235.434 20.5221L235.434 20.5214L234.434 20.512ZM229.196 28.774L229.072 27.7817C229.059 27.7834 229.045 27.7854 229.032 27.7876L229.196 28.774ZM226.496 21.16L225.824 20.42L225.814 20.4289L226.496 21.16ZM217.56 15.058C217.56 14.5057 217.113 14.058 216.56 14.058C216.008 14.058 215.56 14.5057 215.56 15.058H217.56ZM216.668 10.468L215.669 10.4421C215.668 10.4508 215.668 10.4594 215.668 10.468L216.668 10.468ZM233.542 9.05457L233.434 20.5026L235.434 20.5214L235.542 9.07343L233.542 9.05457ZM233.434 20.5019C233.41 22.9508 232.61 24.7476 231.66 25.9454C230.676 27.185 229.595 27.7164 229.072 27.7817L229.32 29.7663C230.526 29.6156 232.036 28.689 233.227 27.1881C234.45 25.6454 235.405 23.4192 235.434 20.5221L233.434 20.5019ZM229.032 27.7876C228.386 27.8952 228.05 28.4153 227.917 28.6714C227.759 28.9758 227.656 29.3485 227.656 29.692H229.656C229.656 29.7139 229.654 29.7057 229.663 29.6719C229.671 29.6411 229.682 29.6119 229.693 29.5921C229.705 29.5687 229.702 29.5834 229.668 29.6155C229.635 29.6477 229.534 29.7316 229.361 29.7604L229.032 27.7876ZM227.656 29.692C227.656 30.1903 227.67 30.877 227.684 31.548C227.697 32.227 227.71 32.8903 227.71 33.364H229.71C229.71 32.8657 229.697 32.179 229.683 31.508C229.67 30.829 229.656 30.1657 229.656 29.692H227.656ZM227.71 33.364C227.71 33.1203 227.88 33.0067 227.861 33.0181C227.812 33.0478 227.664 33.109 227.362 33.1622C226.773 33.2662 225.968 33.282 225.146 33.282V35.282C225.945 35.282 226.922 35.2708 227.71 35.1318C228.096 35.0635 228.535 34.9492 228.902 34.7257C229.298 34.4841 229.71 34.0397 229.71 33.364H227.71ZM225.146 33.282H224.93V35.282H225.146V33.282ZM224.93 33.282C224.452 33.282 224.168 33.2764 223.969 33.2461C223.788 33.2186 223.824 33.1901 223.884 33.2526C223.931 33.3013 223.881 33.2939 223.836 33.0241C223.792 32.757 223.77 32.3584 223.77 31.744H221.77C221.77 32.3716 221.79 32.9113 221.863 33.3529C221.936 33.7918 222.083 34.2637 222.44 34.6364C222.81 35.0229 223.272 35.1631 223.668 35.2234C224.046 35.2808 224.491 35.282 224.93 35.282V33.282ZM223.77 31.744C223.77 30.4532 223.784 28.8106 223.797 27.2843C223.811 25.7623 223.824 24.3518 223.824 23.536H221.824C221.824 24.3402 221.811 25.7377 221.797 27.2667C221.784 28.7914 221.77 30.4428 221.77 31.744H223.77ZM223.824 23.536C223.824 23.5342 223.824 23.5459 223.819 23.5671C223.814 23.5888 223.805 23.6131 223.792 23.6367C223.765 23.6855 223.741 23.6981 223.763 23.6814C223.843 23.6228 224.006 23.5485 224.39 23.4108C225.072 23.1666 226.193 22.8109 227.179 21.8911L225.814 20.4289C225.18 21.0211 224.465 21.2594 223.715 21.5282C223.384 21.647 222.933 21.809 222.577 22.071C222.147 22.3879 221.824 22.871 221.824 23.536H223.824ZM227.169 21.8999C227.689 21.4275 227.971 20.7023 228.149 20.0393C228.337 19.3368 228.455 18.5119 228.532 17.6659C228.685 15.9725 228.684 14.0495 228.684 12.574H226.684C226.684 14.0685 226.684 15.8985 226.54 17.4856C226.468 18.2799 226.363 18.977 226.217 19.5217C226.061 20.1057 225.898 20.3525 225.824 20.4201L227.169 21.8999ZM228.684 12.574C228.684 11.6635 228.609 10.5703 228.169 9.68016C227.938 9.21399 227.596 8.7801 227.099 8.46867C226.601 8.15697 226.014 8.01 225.362 8.01V10.01C225.71 10.01 225.913 10.0858 226.037 10.1639C226.163 10.2423 226.276 10.3653 226.376 10.5673C226.597 11.0137 226.684 11.7025 226.684 12.574H228.684ZM225.362 8.01C224.668 8.01 224.035 8.14655 223.5 8.47769C222.955 8.8144 222.602 9.29664 222.376 9.82728C221.959 10.8108 221.932 12.1051 221.932 13.33H223.932C223.932 12.0169 223.987 11.1512 224.217 10.6092C224.316 10.3771 224.428 10.2552 224.552 10.1785C224.685 10.0962 224.923 10.01 225.362 10.01V8.01ZM221.932 13.33V14.896H223.932V13.33H221.932ZM221.932 14.896C221.932 14.8089 221.98 14.6766 222.078 14.5908C222.132 14.5432 222.133 14.5717 221.967 14.6096C221.626 14.6876 221.072 14.706 220.232 14.706V16.706C221.013 16.706 221.809 16.6974 222.413 16.5594C222.719 16.4893 223.092 16.3626 223.399 16.0922C223.75 15.7836 223.932 15.3611 223.932 14.896H221.932ZM220.232 14.706H219.908V16.706H220.232V14.706ZM219.908 14.706C219.104 14.706 218.338 14.7043 217.772 14.6329C217.481 14.596 217.337 14.5508 217.293 14.5296C217.242 14.5054 217.56 14.6478 217.56 15.058H215.56C215.56 15.7921 216.101 16.1776 216.434 16.3356C216.772 16.4967 217.172 16.5729 217.522 16.6171C218.239 16.7077 219.147 16.706 219.908 16.706V14.706ZM215.56 15.058C215.56 15.0606 215.56 15.0652 215.56 15.0709C215.56 15.0735 215.561 15.0889 215.562 15.1084C215.562 15.1214 215.566 15.1615 215.569 15.1887C215.585 15.2816 216.286 16.0215 217.202 15.8268C217.41 15.5876 217.542 15.2493 217.55 15.2026C217.553 15.1842 217.556 15.156 217.557 15.1462C217.558 15.1303 217.559 15.1177 217.559 15.1147C217.559 15.1096 217.559 15.1054 217.56 15.1029C217.56 15.0979 217.56 15.0935 217.56 15.0908C217.56 15.0806 217.561 15.0668 217.561 15.053C217.562 15.0234 217.563 14.9778 217.565 14.9193C217.568 14.8019 217.572 14.6286 217.577 14.418C217.587 13.9967 217.601 13.4243 217.614 12.8471C217.641 11.7073 217.668 10.5106 217.668 10.468H215.668C215.668 10.4662 215.662 10.7451 215.652 11.2002C215.642 11.6413 215.628 12.2234 215.615 12.8004C215.601 13.3774 215.588 13.9492 215.578 14.3699C215.572 14.5804 215.568 14.7526 215.565 14.8687C215.564 14.927 215.563 14.9701 215.562 14.9967C215.562 15.0033 215.562 15.0085 215.562 15.0124C215.561 15.0167 215.561 15.0183 215.561 15.0182C215.561 15.018 215.561 15.0175 215.561 15.0168C215.561 15.0161 215.561 15.0147 215.562 15.0128C215.562 15.0112 215.562 15.0077 215.562 15.0032C215.562 15.0008 215.563 14.9887 215.564 14.973C215.565 14.9633 215.568 14.9353 215.571 14.917C215.579 14.8704 215.711 14.5321 215.919 14.293C216.835 14.0983 217.536 14.8381 217.552 14.931C217.555 14.9581 217.558 14.9981 217.559 15.0109C217.56 15.0301 217.56 15.0452 217.56 15.0472C217.56 15.0523 217.56 15.0563 217.56 15.058H215.56ZM217.668 10.4939C217.746 7.49183 218.477 5.86995 219.663 4.93559C220.906 3.95673 222.886 3.53 225.956 3.53V1.53C222.816 1.53 220.234 1.94026 218.426 3.3644C216.561 4.83305 215.753 7.18016 215.669 10.4421L217.668 10.4939ZM225.956 3.53C227.993 3.53 229.931 4.11618 231.332 5.10804C232.721 6.09101 233.542 7.43166 233.542 9.01H235.542C235.542 6.64633 234.284 4.74699 232.487 3.47545C230.703 2.21281 228.348 1.53 225.956 1.53V3.53ZM233.542 9.01V9.064H235.542V9.01H233.542ZM228.196 42.544V45.136H230.196V42.544H228.196ZM228.196 45.136C228.196 45.3394 228.149 45.4272 228.121 45.4668C228.088 45.5135 228.019 45.5809 227.86 45.6496C227.505 45.8036 226.946 45.864 226.226 45.864V47.864C226.965 47.864 227.891 47.8164 228.656 47.4844C229.058 47.3101 229.458 47.04 229.754 46.6209C230.055 46.1948 230.196 45.6886 230.196 45.136H228.196ZM226.226 45.864H225.362V47.864H226.226V45.864ZM225.362 45.864C224.501 45.864 223.962 45.8372 223.631 45.7088C223.501 45.6585 223.469 45.615 223.458 45.5988C223.445 45.5796 223.392 45.4921 223.392 45.244H221.392C221.392 45.7789 221.509 46.2854 221.799 46.7168C222.092 47.1512 222.498 47.4148 222.909 47.5737C223.657 47.8638 224.604 47.864 225.362 47.864V45.864ZM223.392 45.244C223.392 44.7577 223.364 44.15 223.337 43.5401C223.31 42.9174 223.284 42.2764 223.284 41.68H221.284C221.284 42.3256 221.312 43.0076 221.339 43.6269C221.367 44.259 221.392 44.8123 221.392 45.244H223.392ZM223.284 41.68C223.284 40.7748 223.341 40.0259 223.478 39.5301C223.546 39.2816 223.613 39.183 223.631 39.1618C223.635 39.1578 223.618 39.1777 223.578 39.1973C223.535 39.2181 223.495 39.224 223.472 39.224V37.224C222.907 37.224 222.446 37.477 222.122 37.8498C221.826 38.1898 221.657 38.6109 221.55 38.9969C221.336 39.7701 221.284 40.7492 221.284 41.68H223.284ZM223.472 39.224C223.585 39.224 223.716 39.2403 223.956 39.2703C224.172 39.2973 224.457 39.332 224.768 39.332V37.332C224.594 37.332 224.42 37.3127 224.204 37.2857C224.011 37.2617 223.738 37.224 223.472 37.224V39.224ZM224.768 39.332C225.285 39.332 225.838 39.3034 226.34 39.2766C226.857 39.249 227.312 39.224 227.684 39.224V37.224C227.246 37.224 226.729 37.253 226.234 37.2794C225.724 37.3066 225.224 37.332 224.768 37.332V39.332ZM227.684 39.224C227.771 39.224 227.815 39.2349 227.832 39.2403C227.841 39.243 227.844 39.2449 227.844 39.245C227.845 39.2451 227.845 39.245 227.845 39.2457C227.846 39.246 227.914 39.303 227.988 39.5534C228.148 40.0973 228.196 41.0237 228.196 42.544H230.196C230.196 41.0943 230.164 39.8607 229.906 38.9871C229.77 38.5287 229.545 38.0626 229.135 37.717C228.708 37.3564 228.196 37.224 227.684 37.224V39.224Z" fill="#CFAD86"/>
</svg>
