<svg width="450" height="312" viewBox="0 0 450 312" fill="none" xmlns="http://www.w3.org/2000/svg">
<path d="M444.963 308.543L444.513 305.614L442 306C444.513 305.614 444.513 305.613 444.513 305.613L444.513 305.612L444.512 305.607L444.509 305.588L444.498 305.518C444.489 305.457 444.474 305.366 444.456 305.248C444.443 305.168 444.428 305.075 444.411 304.969C444.378 304.764 444.337 304.513 444.289 304.218C444.142 303.324 443.924 302.029 443.638 300.42C443.066 297.201 442.224 292.719 441.139 287.658C438.979 277.582 435.823 265.049 431.879 255.66C422.958 234.423 409.169 212.796 395.497 194.51C387.579 183.92 380.732 177.71 372.36 170.116C370.078 168.047 367.684 165.875 365.124 163.484C359.165 157.918 356.631 156.488 352.6 154.212C350.759 153.172 348.605 151.956 345.67 150.089C335.91 143.88 328.267 142.051 318.775 139.778C316.569 139.25 314.263 138.698 311.807 138.062C299.3 134.82 292.025 133.505 279.144 132.344C265.257 131.092 257.291 131.235 243.448 132.342L243.407 132.345L243.376 132.347C234.431 133.063 229.211 133.48 220.258 135.424C210.043 137.642 203.672 140.203 195.402 143.528C193.502 144.292 191.502 145.096 189.332 145.945C187.758 146.561 186.266 147.14 184.836 147.695C175.092 151.473 168.218 154.138 157.994 159.959C150.482 164.235 146.18 167.334 139.827 171.911C139.103 172.434 138.351 172.975 137.565 173.54C136.538 174.278 135.544 174.99 134.579 175.681C123.496 183.62 116.196 188.849 105.815 199.387C94.2569 211.12 87.978 218.454 79.6151 232.832C73.2152 243.835 70.4902 251.466 66.7178 262.03C66.1051 263.746 65.4646 265.539 64.7764 267.437C62.1257 274.745 59.3132 284.245 57.1726 291.876C56.0999 295.701 55.1915 299.072 54.5511 301.488C54.2309 302.696 53.9776 303.665 53.8041 304.333C53.7174 304.667 53.6506 304.926 53.6055 305.102L53.5541 305.302L53.5409 305.354L53.5375 305.367L53.5366 305.37L53.5364 305.371C53.5363 305.372 53.5363 305.372 56 306L53.5363 305.372L52.7277 308.543H56H442H444.963Z" fill="#90402D" stroke="#D9AA76" stroke-width="5.08515"/>
<path d="M130.981 288.44C124.562 290.487 118.234 292.917 111.697 294.461C106.316 295.732 100.684 295.936 95.1745 296.69C94.9389 296.722 94.8103 297.537 94.2209 298.262C88.0789 298.788 82.2983 298.659 76.632 299.402C71.6702 300.053 66.837 301.683 61.7228 303.022C60.8928 303.991 60.287 304.818 59.5297 305.78C59.1882 306.107 58.9984 306.3 58.8085 306.492C57.1923 306.49 55.5761 306.488 53.4856 306.284C52.3529 305.408 51.6944 304.735 51.0981 303.906C51.1604 303.752 51.2797 303.438 51.5394 303.355C64.2379 296.918 77.6512 294.715 91.736 293.981C93.8401 293.667 95.6032 293.214 97.393 293.044C107.96 292.042 118.426 290.586 128.629 286.784C129.571 287.411 130.276 287.925 130.981 288.44Z" fill="#504264"/>
<path d="M59.6814 305.645C60.2872 304.818 60.893 303.99 61.8666 303.317C63.5217 303.943 64.8042 304.809 66.097 304.824C75.5842 304.94 85.0746 304.955 94.561 304.808C95.947 304.786 97.3172 303.737 98.6946 303.163C101.096 303.884 103.498 304.605 106.176 305.45C98.3239 305.789 90.1964 306.004 81.4942 306.096C73.8401 305.863 66.7607 305.754 59.6814 305.645Z" fill="#5C4144"/>
<path d="M59.5292 305.78C66.7601 305.755 73.8395 305.864 81.2008 306.211C74.1736 306.465 66.8644 306.481 59.1816 306.495C58.9979 306.3 59.1877 306.107 59.5292 305.78Z" fill="#CEAD92"/>
<path d="M1.60544 50.6606C1.82737 51.3687 1.92129 52.2831 1.87706 53.3939C1.65175 52.6826 1.56459 51.7748 1.60544 50.6606Z" fill="#CBAA88"/>
<path d="M1.72713 44.1748C1.93625 45.3671 1.99187 46.8231 1.96477 48.6376C1.77925 47.4769 1.67643 45.9577 1.72713 44.1748Z" fill="#CBAA88"/>
<path d="M1.75134 91.8359C1.75714 91.6098 2.06105 91.6965 2.22962 91.8955C2.39819 92.0944 2.43588 92.3734 2.43588 92.3734C2.43588 92.3734 2.09851 92.4322 1.93184 92.4731C1.75862 92.3633 1.75208 92.2126 1.75134 91.8359Z" fill="#CBAA88"/>
<path d="M1.63888 21.1814C1.67816 21.2221 1.67224 21.3645 1.65163 21.72C1.54663 21.7206 1.53221 21.5039 1.63888 21.1814Z" fill="#CBAA88"/>
<path d="M1.55496 25.1384C1.59685 25.1773 1.5995 25.3206 1.60001 25.6785C1.49768 25.685 1.47029 25.4682 1.55496 25.1384Z" fill="#CBAA88"/>
<path d="M1.73766 54.6078C1.99119 54.573 2.05249 54.7658 1.83446 55.0778C1.74124 55.15 1.73155 54.7885 1.73766 54.6078Z" fill="#CBAA88"/>
<path d="M1.56696 27.4985C1.61034 27.5386 1.61225 27.686 1.60911 28.0539C1.50229 28.0598 1.47611 27.8369 1.56696 27.4985Z" fill="#CBAA88"/>
<path d="M122.938 197.722C123.136 198.729 122.876 199.823 122.838 200.878C122.658 205.86 120.205 211.157 124.875 215.477C125.106 215.691 125.098 216.165 125.284 216.802C130.77 213.559 134.353 218.604 137.928 220.573C141.403 222.486 142.995 227.818 145.793 232.248C151.403 231.496 158.149 230.647 164.876 229.671C169.123 229.055 173.343 228.251 177.587 227.779C177.673 230.369 177.747 232.711 177.588 235.192C175.616 237.1 173.878 238.872 171.851 240.656C168.8 242.801 166.038 244.933 162.849 247.394C164.519 248.65 165.623 249.48 166.843 250.43C167.12 250.701 167.293 250.839 167.454 250.972C167.433 250.978 167.476 250.955 167.599 251.183C168.295 251.769 168.868 252.127 169.626 252.527C170.086 252.815 170.362 253.061 170.802 253.448C171.357 253.77 171.748 253.951 172.18 254.13C172.221 254.128 172.231 254.209 172.289 254.378C172.827 254.708 173.308 254.868 174.06 255.038C174.691 255.076 175.052 255.105 175.626 255.239C176.455 255.471 177.071 255.599 177.867 255.917C179.775 256.542 181.503 256.977 183.346 257.609C183.933 258.178 184.405 258.549 184.876 258.92C190.221 261.023 195.686 262.871 200.873 265.309C205.033 267.264 206.694 271.095 205.771 275.012C204.766 279.275 201.424 280.614 197.594 281.217C195.91 281.482 194.191 281.976 192.529 281.845C188.491 281.525 185.607 281.971 183.837 286.647C183.08 288.646 178.932 289.325 176.372 290.69C174.404 291.74 172.503 292.919 170.586 294.062C170.374 294.188 170.266 294.475 170.079 294.656C165.995 298.606 151.306 299.67 146.568 296.069C147.731 295.42 148.898 295.065 150.376 294.688C157.439 293.43 165.289 294.921 169.41 287.115C169.543 286.864 170.131 286.852 170.854 286.714C178.28 286.592 180.735 284.176 179.593 278.507C181.399 278.189 182.958 278.171 184.478 277.922C188.006 277.344 191.516 276.655 195.335 276.101C197.167 275.449 198.697 274.706 200.226 273.963C199.371 272.517 198.861 270.369 197.6 269.75C192.439 267.213 187.126 264.931 181.722 262.958C175.572 260.712 168.937 259.627 163.883 254.968C158.882 250.358 159.074 246.598 164.26 242.245C167.033 239.918 169.547 237.283 172.177 234.786C172.037 234.36 171.896 233.934 171.756 233.508C170.256 233.508 168.735 233.342 167.263 233.542C164.024 233.982 160.803 235.106 157.59 235.054C150.612 234.941 144.452 237.062 138.485 240.408C132.774 243.611 127.008 245.789 120.127 243.196C109.816 239.31 99.0012 237.806 87.958 238.322C85.1751 238.451 82.7798 238.15 81.2644 235.285C80.8899 234.577 79.3204 234.154 78.3169 234.183C71.4662 234.379 64.6199 234.731 57.5372 235.043C58.9746 230.878 56.5492 230.202 53.063 230.305C51.9628 230.338 50.8431 229.709 49.8348 229.114C51.6026 226.997 53.2678 225.148 54.9108 223.284C54.8887 223.269 54.8645 223.316 55.059 223.232C55.412 222.919 55.5705 222.69 55.6926 222.458C55.6561 222.454 55.6492 222.527 55.8901 222.451C56.3777 222.152 56.6245 221.929 56.9745 221.718C57.0777 221.731 57.247 221.61 57.5204 221.571C59.5666 220.564 61.3395 219.594 63.247 218.611C63.3815 218.597 63.6066 218.447 63.9083 218.392C69.3277 216.054 74.1654 216.348 79.2595 218.943C87.9982 223.394 96.8722 227.626 105.904 231.441C112.626 234.28 119.671 236.368 126.619 238.645C127.56 238.953 129.57 238.699 129.744 238.218C131.142 234.371 132.217 230.406 133.292 226.239C133.094 224.808 132.995 223.615 132.833 221.668C130.634 223.489 128.888 224.934 127.094 226.096C126.963 225.439 126.881 225.066 126.847 224.379C126.824 222.601 126.751 221.135 126.679 219.67C126.292 219.482 125.904 219.294 125.517 219.106C124.138 220.746 122.759 222.386 121.21 223.965C120.148 223.721 119.257 223.54 118.171 223.279C118.851 220.764 119.725 218.33 120.811 215.303C118.227 216.566 116.25 217.533 114.051 218.634C112.141 220.784 110.453 222.798 108.595 224.63C109.262 222.127 109.438 219.082 111.051 217.612C117.695 211.554 117.113 204.694 114.725 197.095C113.705 193.85 114.346 190.073 113.278 186.855C110.879 179.626 109.693 171.853 102.514 166.79C100.269 165.206 100.216 160.515 99.4202 157.375C103.193 161.594 106.705 165.685 110.335 169.888C110.645 170.106 110.848 170.183 111.145 170.405C111.385 170.793 111.591 170.939 111.93 171.192C112.171 171.588 112.379 171.736 112.765 172.05C114.685 174.98 116.478 177.674 118.495 180.514C119.644 181.891 120.568 183.122 121.484 184.371C121.475 184.389 121.508 184.366 121.613 184.591C122.29 187.187 122.354 194.752 122.938 197.722Z" fill="#D5AC77"/>
<path d="M185.07 258.745C184.404 258.55 183.932 258.179 183.562 257.45C187.277 254.023 190.303 250.599 190.943 245.509C191.903 245.142 192.57 244.818 193.516 244.422C200.791 240.251 204.958 233.547 209.762 227.089C215.623 218.873 221.261 210.794 227.144 202.604C230.908 199.453 234.469 196.46 237.932 193.357C240.889 190.708 244.892 188.669 244.132 183.629C246.338 183.77 247.236 184.937 246.435 187.116C245.87 188.651 244.821 190.007 243.57 191.699C242.721 192.319 242.288 192.683 241.855 193.047C237.756 197.085 233.604 201.073 229.597 205.201C228.76 206.064 228.454 207.444 227.777 209.04C226.893 210.622 226.135 211.749 225.377 212.876C224.905 213.41 224.433 213.944 223.959 214.701C217.675 222.66 211.638 230.612 205.04 238.067C198.753 245.171 191.88 251.756 185.07 258.745Z" fill="#BF432F"/>
<path d="M98.5305 302.95C97.3172 303.737 95.9471 304.787 94.561 304.808C85.0746 304.955 75.5843 304.94 66.0971 304.825C64.8043 304.809 63.5218 303.944 62.0908 303.176C66.8372 301.683 71.6705 300.053 76.6322 299.402C82.2985 298.659 88.0791 298.788 94.1845 298.546C94.5589 298.554 94.5189 298.581 94.6089 298.713C94.8874 299.153 95.0759 299.461 95.2643 299.769C96.2983 300.758 97.3323 301.747 98.5305 302.95Z" fill="#514261"/>
<path d="M150.065 294.711C148.898 295.066 147.731 295.421 146.332 295.896C142.735 294.143 139.387 292.242 135.998 290.415C134.568 289.644 133.053 289.03 131.279 288.392C130.276 287.925 129.571 287.411 128.658 286.512C122.648 280.144 116.38 275.147 107.261 276.601C103.768 277.158 100.308 277.924 96.9801 278.384C98.3802 277.343 99.6333 276.512 101.21 275.642C104.484 274.768 107.434 273.932 111.82 272.69C114.491 274.212 118.703 276.623 122.925 279.014C132.019 284.165 139 292.969 150.065 294.711Z" fill="#909BA4"/>
<path d="M95.1842 299.605C95.0759 299.461 94.8874 299.152 94.5981 298.691C94.6995 298.838 94.9017 299.139 95.1842 299.605Z" fill="#D0A77F"/>
<path d="M96.8298 21.9383C99.1384 19.144 113.015 7.36259 115.624 5.76865C130.909 -3.56873 149.324 2.56866 165.526 7.6344C165.781 7.71397 161.853 16.6689 157.305 23.1433C158.139 25.8966 158.311 27.9079 158.992 30.7836C156.634 29.9142 155.259 29.4074 153.097 28.6102C154.237 32.0316 157.286 36.1628 150.124 34.3709C150.918 36.2775 151.478 37.6191 152.166 39.2709C150.407 39.5387 149.006 39.752 146.998 40.0576C152.557 45.2495 146.977 44.2048 144.775 44.8506C145.448 46.4291 145.992 47.7078 146.629 49.2031C144.55 49.361 143.16 49.4665 141.689 49.5781C142.467 51.3113 143.017 52.5357 143.566 53.7601C142.169 53.9611 140.772 54.1622 139.088 54.4044C139.776 55.9014 140.414 57.2912 141.114 58.8156C139.164 58.9897 137.64 59.1257 135.634 59.3047C136.938 61.1721 137.669 62.2196 138.93 64.0268C136.585 63.7266 135.319 63.5646 133.178 63.2905C134.364 65.1677 135.098 66.3293 136.182 68.0462C134.775 68.0462 133.969 67.9881 133.175 68.0623C132.365 68.1381 131.566 68.3436 131.199 68.4116C131.759 70.3554 132.138 71.6695 132.517 72.9837C131.103 73.1569 129.688 73.3301 127.348 73.6165C133.766 79.3748 127.662 77.9924 125.201 78.5816C127.623 82.9023 127.623 82.9024 122.646 83.7768C123.377 84.9924 124.066 86.1374 125.171 87.9735C122.901 87.9735 121.319 87.9735 119.104 87.9735C120.384 89.6844 121.178 90.7455 122.466 92.4662C120.217 92.4662 118.725 92.4662 116.681 92.4662C117.726 94.3182 118.44 95.5823 119.281 97.0717C118.341 97.4461 117.774 97.7142 117.181 97.8967C116.458 98.1192 115.714 98.2696 114.94 98.4606C116.732 102.488 116.732 102.488 111.048 102.654C112.065 104.198 112.881 105.439 114.077 107.256C111.755 107.376 110.07 107.464 107.859 107.578C109.096 109.372 109.874 110.5 111.038 112.188C108.786 112.067 107.461 111.996 105.301 111.879C106.531 113.719 107.313 114.889 108.44 116.574C106.448 116.403 105.072 116.285 102.782 116.088C107.261 120.615 106.201 125.393 105.884 130.067C105.353 137.914 109.288 144.635 116.037 147.367C116.602 147.604 117.007 147.702 117.632 147.871C117.997 147.997 118.141 148.051 118.145 148.378C117.518 151.626 117.03 154.601 116.322 157.437C112.897 154.865 109.692 152.433 106.497 149.799C106.464 149.33 106.422 149.064 106.25 148.64C105.914 148.305 105.709 148.127 105.365 147.852C105.053 147.607 104.91 147.433 104.668 147.077C104.334 146.742 104.129 146.565 103.745 146.308C103.217 146.053 102.868 145.877 102.339 145.816C101.157 145.836 100.156 145.742 98.9821 145.406C96.5156 132.456 89.5641 122.981 78.5013 116.029C75.4077 114.604 72.5278 113.361 69.6479 112.118C69.4501 112.541 69.2523 112.963 69.0546 113.385C71.7065 114.878 74.3584 116.371 77.1345 118.109C80.1055 122.37 82.9523 126.386 85.9225 130.561C86.237 130.909 86.4282 131.098 86.5975 131.274C86.5756 131.263 86.6112 131.228 86.6789 131.494C87.9705 132.671 89.1945 133.581 90.4581 134.651C90.4978 134.81 90.5562 135.132 90.679 135.295C90.9939 135.652 91.1859 135.845 91.3553 136.032C91.3326 136.026 91.3706 135.998 91.4286 136.219C91.7086 136.836 91.9306 137.231 92.1371 137.622C92.1216 137.617 92.1545 137.609 92.1321 137.812C92.0961 138.149 92.0825 138.285 91.9129 138.638C90.5546 139.507 89.3525 140.158 87.9107 140.806C87.3514 140.801 87.0317 140.798 86.6538 140.619C86.5954 140.442 86.5139 140.079 86.4892 139.838C85.9306 137.862 85.224 137.51 84.2403 139.286C84.2332 139.251 84.3017 139.238 84.0776 139.404C82.8302 141.418 81.8069 143.264 80.3924 145.817C79.8567 144.376 79.2436 143.561 79.4469 143.144C81.5435 138.855 79.7491 134.882 78.3792 130.986C77.7768 129.272 77.063 125.967 73.9245 128.95C73.8939 128.915 73.9613 128.981 73.7027 129.131C73.3502 133.142 73.2562 137.003 73.1379 141.123C73.0793 141.728 73.0451 142.074 72.8876 142.545C72.6063 142.844 72.4617 143.029 72.3453 143.209C72.3603 143.194 72.3696 143.235 72.1264 143.367C71.7292 146.552 71.5754 149.606 71.4604 152.841C71.4994 153.023 71.5573 153.39 71.4823 153.644C70.9139 154.819 70.4205 155.74 69.6653 156.741C67.9904 158.355 66.5773 159.891 64.848 161.41C62.8561 161.17 61.1804 160.945 59.3651 160.729C59.2255 160.736 58.9462 160.753 58.7142 160.757C58.0617 161.099 57.6414 161.437 57.221 161.775C57.7809 162.171 58.3408 162.567 58.8837 162.983C58.8668 163.002 58.8675 162.951 58.9064 163.222C59.7263 164.114 60.5072 164.734 61.4584 165.377C61.6287 165.4 61.9654 165.468 62.0299 165.729C64.4625 168.152 66.8305 170.314 69.1847 172.499C69.1708 172.522 69.1772 172.469 69.1663 172.821C69.1606 174.818 69.1657 176.463 69.1532 178.092C69.1357 178.077 69.1818 178.072 69.038 178.258C68.7228 178.88 68.5513 179.316 68.3588 179.939C68.3378 180.126 68.2714 180.498 68.1498 180.673C67.8661 181.242 67.7039 181.636 67.2807 182.098C66.3917 183.281 65.6775 184.359 65.1634 185.525C64.7702 186.416 64.6302 187.419 64.2582 188.133C63.1395 186.742 62.1402 185.589 61.1655 184.429C61.1901 184.42 61.1983 184.471 61.0846 184.319C60.8121 183.968 60.6367 183.786 60.4217 183.614C60.3986 183.609 60.424 183.569 60.3528 183.356C60.0348 182.771 59.7881 182.398 59.569 182.037C59.5967 182.05 59.5714 182.105 59.568 181.801C58.4962 180.367 57.4278 179.238 56.1768 178.08C55.9942 178.052 55.64 177.948 55.5672 177.796C55.0239 177.738 54.5534 177.831 54.0979 177.978C54.1129 178.032 54.0224 178.096 53.8544 178.241C54.1131 179.852 54.5398 181.32 55.1581 182.985C58.9253 187.668 58.2681 192.839 57.5907 197.937C56.9812 202.523 56.0791 207.071 55.0716 213.02C60.272 208.863 64.7982 208.829 69.2972 212.404C69.606 212.681 69.7991 212.818 70.1882 212.99C70.3713 213.045 70.7271 213.184 70.6606 213.443C69.5086 214.484 68.4402 215.292 67.333 216.042C66.1094 216.872 64.8502 217.648 63.6064 218.448C63.6064 218.448 63.3814 218.598 62.938 218.557C60.8522 218.053 59.2099 217.589 57.0396 216.975C57.1259 218.905 57.1864 220.258 57.2469 221.611C57.2469 221.611 57.0776 221.732 56.7589 221.84C56.1765 222.142 55.9128 222.335 55.6491 222.528C55.6491 222.528 55.656 222.455 55.5367 222.59C55.2331 222.922 55.0487 223.119 54.8643 223.317C54.8643 223.317 54.8885 223.27 54.6209 223.305C50.3915 224.566 47.567 226.854 46.9634 231.226C46.9422 231.217 46.9801 231.191 46.8299 231.326C46.5059 231.667 46.3321 231.873 46.015 232.295C41.6045 236.212 37.3122 239.883 33.0882 243.631C32.0555 244.547 31.2462 245.715 30.3341 246.768C30.6693 247.069 31.0044 247.371 31.3395 247.673C32.1092 247.275 32.8417 246.763 33.6546 246.496C39.0463 244.73 43.7057 238.668 50.3076 243.675C50.8879 244.116 52.1415 243.897 53.0119 243.689C59.7361 242.084 66.4489 240.431 73.1519 238.739C75.4927 238.148 77.2063 238.277 78.0423 241.096C78.3037 241.977 79.893 243.088 80.8181 243.039C84.4535 242.845 88.0554 242.04 91.6911 241.828C94.9006 241.642 98.2545 241.424 101.344 242.117C114.484 245.062 127.361 249.147 141.125 248.721C148.6 248.49 155.041 251.478 160.556 256.93C163.324 259.666 167.186 261.591 170.885 263.03C178.101 265.837 185.569 267.99 192.893 270.529C195.564 271.454 196.53 273.322 195.033 276.012C191.515 276.656 188.006 277.345 184.478 277.923C182.957 278.172 181.399 278.19 179.296 278.558C176.89 282.114 174.245 284.53 170.748 286.018C170.594 286.083 170.584 286.485 170.506 286.731C170.131 286.854 169.543 286.865 169.41 287.116C165.289 294.923 157.438 293.431 150.376 294.689C139 292.97 132.019 284.165 122.925 279.014C118.703 276.623 114.491 274.212 111.819 272.69C107.434 273.932 104.484 274.768 100.851 275.605C91.5218 276.124 82.875 276.63 74.2297 277.162C69.6351 277.444 65.0361 277.691 60.4517 278.096C50.4043 278.983 40.3585 279.984 33.5387 270.074C33.5051 270.025 33.301 270.094 32.6605 270.164C32.6605 271.466 32.658 272.857 32.661 274.248C32.6726 279.699 33.144 280.507 38.3387 281.359C42.6032 282.059 46.9408 282.56 51.2567 282.653C64.9537 282.949 78.641 282.779 92.4563 280.183C92.937 280.25 93.1285 280.282 93.2509 280.604C90.9613 285.032 86.4765 288.864 91.4078 293.973C77.6516 294.715 64.2383 296.918 51.3382 303.437C50.6284 303.753 50.3801 303.904 50.1318 304.055C50.1318 304.055 49.9115 304.22 49.7755 304.241C33.8911 304.242 18.1428 304.22 2.07388 304.105C1.69783 288.824 1.6219 273.636 1.59458 258.448C1.57821 249.347 1.63782 240.245 1.7588 230.685C1.93852 230.025 1.93958 229.822 1.8575 229.617C1.82356 229.275 1.78962 228.933 1.90138 228.032C2.21099 226.313 2.51534 225.153 2.5176 223.992C2.54796 208.37 2.55147 192.747 2.50668 177.124C2.503 175.842 2.09967 174.561 1.88203 173.279C1.88203 173.279 1.84356 172.9 2.005 172.41C2.26864 162.913 2.37084 153.905 2.47304 144.896C2.47304 144.896 2.55687 144.75 2.84773 144.599C11.4657 134.675 20.9744 126.282 32.1879 119.956C42.7035 114.024 53.214 108.19 61.506 99.0584C64.045 96.2622 63.4774 94.5002 61.9554 92.6732C57.7176 94.7181 53.8809 96.566 50.0471 98.4203C46.3108 100.227 44.1603 105.317 38.502 104.028C40.8719 99.9108 43.0777 96.0791 45.4432 91.9697C50.8128 93.7673 54.3627 91.6832 56.6864 86.5689C58.0893 83.4814 60.2435 80.7439 61.817 77.7225C63.091 75.2762 64.6251 73.9854 67.6105 74.1374C71.6804 74.3446 74.7431 72.386 75.9503 68.3651C76.8109 65.4986 77.4089 62.5261 77.8242 59.5589C78.735 53.0529 79.6307 46.7475 83.9306 41.195C88.6499 35.1009 92.5646 28.3839 96.8298 21.9383ZM42.5251 206.942C41.1563 208.328 39.5577 209.559 38.4836 211.146C37.4232 212.712 36.4201 214.689 39.5713 216.19C43.3185 214.173 47.158 212.303 50.7464 210.036C51.6155 209.486 52.3816 207.077 51.9301 206.48C50.9232 205.15 49.0503 203.566 47.6558 203.676C46.0334 203.804 44.5452 205.631 42.5251 206.942ZM61.8361 174.17C62.0636 174.488 62.2911 174.806 62.5187 175.124C62.6843 174.964 62.85 174.805 63.0157 174.645C62.7044 174.409 62.393 174.172 61.8361 174.17ZM64.5327 156.149C64.2715 156.337 64.0104 156.525 63.7492 156.712C64.0442 156.851 64.3391 156.989 64.634 157.128C64.698 156.841 64.7621 156.553 64.5327 156.149Z" fill="#504264"/>
<path d="M50.3585 304.061C50.3807 303.903 50.6291 303.752 51.0791 303.519C51.2807 303.437 51.1615 303.751 51.0992 303.906C50.8861 304.063 50.7354 304.066 50.3585 304.061Z" fill="#5C4144"/>
<path d="M1.83684 173.651C2.09932 174.56 2.50265 175.841 2.50633 177.124C2.55113 192.746 2.54761 208.369 2.51725 223.992C2.51499 225.152 2.21065 226.312 1.9021 227.774C1.7111 227.927 1.66475 227.779 1.58447 227.402C1.63103 209.456 1.71151 191.74 1.83684 173.651Z" fill="#56424D"/>
<path d="M1.78806 229.808C1.93929 229.821 1.93823 230.025 1.79992 230.316C1.73684 230.271 1.72787 230.136 1.78806 229.808Z" fill="#56424D"/>
<path d="M2.22616 145.105C2.37102 153.905 2.26883 162.913 2.03423 172.222C1.92759 163.453 1.95334 154.384 2.22616 145.105Z" fill="#524045"/>
<path d="M195.335 276.102C196.53 273.321 195.563 271.454 192.893 270.528C185.569 267.989 178.1 265.836 170.884 263.029C167.185 261.59 163.324 259.666 160.555 256.929C155.04 251.478 148.599 248.489 141.124 248.721C127.361 249.147 114.484 245.062 101.343 242.116C98.254 241.424 94.9001 241.641 91.6906 241.828C88.0549 242.04 84.453 242.844 80.8176 243.038C79.8925 243.088 78.3032 241.977 78.0418 241.095C77.2058 238.277 75.4922 238.148 73.1514 238.739C66.4484 240.43 59.7356 242.084 53.0114 243.689C52.1409 243.897 50.8873 244.115 50.3071 243.675C43.7052 238.667 39.0457 244.73 33.6541 246.496C32.8411 246.762 32.1087 247.274 31.339 247.672C31.0039 247.371 30.6687 247.069 30.3336 246.767C31.2456 245.715 32.055 244.547 33.0877 243.631C37.3117 239.883 41.6039 236.211 46.182 232.177C46.6551 231.624 46.8173 231.407 46.9796 231.19C46.9796 231.19 46.9417 231.216 47.1715 231.11C48.1781 230.464 48.9549 229.923 49.7317 229.383C50.8424 229.709 51.9622 230.338 53.0623 230.306C56.5485 230.202 58.9739 230.879 57.5366 235.044C64.6193 234.732 71.4655 234.38 78.3162 234.183C79.3197 234.155 80.8893 234.578 81.2638 235.286C82.7792 238.151 85.1744 238.452 87.9573 238.322C99.0005 237.807 109.816 239.311 120.126 243.196C127.007 245.789 132.773 243.611 138.485 240.408C144.451 237.062 150.611 234.942 157.589 235.054C160.803 235.106 164.024 233.983 167.262 233.543C168.734 233.343 170.256 233.509 171.755 233.509C171.896 233.935 172.036 234.361 172.177 234.787C169.546 237.283 167.032 239.919 164.26 242.246C159.073 246.599 158.881 250.358 163.882 254.969C168.936 259.628 175.571 260.713 181.721 262.959C187.125 264.932 192.438 267.214 197.6 269.75C198.86 270.37 199.37 272.518 200.225 273.963C198.696 274.707 197.167 275.45 195.335 276.102ZM160.281 236.909C153.337 236.455 147.35 239.243 140.419 242.39C157.324 243.512 163.678 242.061 166.381 237.067C164.51 237.067 162.713 237.067 160.281 236.909Z" fill="#8A7E4D"/>
<path d="M63.9084 218.392C64.8504 217.648 66.1097 216.871 67.3333 216.042C68.4405 215.291 69.5089 214.483 70.6769 213.35C70.7595 212.999 70.7412 212.812 70.9883 212.952C73.9489 213.859 76.6624 214.626 79.6307 215.407C80.9493 216.765 81.7468 218.601 83.1318 219.349C86.1615 220.985 89.4895 222.069 92.6957 223.379C92.9954 223.152 93.2952 222.926 93.595 222.699C92.4305 220.678 91.5112 218.452 90.0394 216.686C88.2084 214.49 88.7657 213.54 91.2822 213.242C92.0156 218.933 96.1005 222.168 99.3323 225.898C99.8544 226.5 101.323 226.283 102.478 226.155C103.192 222.558 103.652 219.221 104.401 215.949C105.709 210.227 108.021 204.566 104.373 198.83C103.932 198.137 104.265 196.997 103.986 196.148C103.181 193.702 102.55 191.127 101.298 188.917C98.9882 184.84 96.3301 180.956 93.7047 177.068C93.2078 176.333 92.1881 175.95 91.9558 175.787C91.2083 172.216 90.4195 168.773 89.7902 165.3C89.4966 163.68 89.4458 162.005 89.3993 160.352C89.2604 155.412 89.178 150.471 89.3058 145.655C90.4483 147.079 91.3586 148.378 92.6849 150.272C93.4435 148.968 94.0024 148.008 94.7755 147.22C95.2066 147.717 95.6569 148.085 95.6062 148.361C94.5482 154.107 96.5295 159.19 98.8632 164.243C99.2272 165.032 98.9141 166.132 98.9141 167.52C96.8744 166.585 95.3626 165.892 93.7976 165.149C93.7444 165.099 93.5075 165.184 93.5075 165.184C93.5075 165.184 93.6096 165.433 93.6591 165.708C97.6324 170.683 101.551 175.386 105.485 180.076C106.321 181.073 108.125 182.293 107.93 182.95C106.812 186.725 109.965 188.272 111.452 190.677C111.863 191.344 112.146 192.09 112.677 193.192C110.989 192.588 109.881 192.191 107.669 191.398C109.376 194.933 110.441 197.454 111.774 199.825C113.692 203.236 113.456 206.683 112.083 210.081C110.555 213.864 108.576 217.471 107.142 221.285C106.492 223.012 106.683 225.055 106.492 226.954C106.889 227.014 107.285 227.075 107.681 227.135C108.042 226.361 108.404 225.587 108.765 224.813C110.453 222.798 112.141 220.784 114.33 218.66C115.174 219.629 115.894 220.753 115.768 221.773C115.596 223.167 114.78 224.481 114.241 225.829C114.53 226.018 114.819 226.207 115.107 226.396C116.193 225.383 117.279 224.371 118.365 223.359C119.257 223.54 120.149 223.721 121.108 224.218C120.767 225.902 120.358 227.271 119.63 229.71C121.761 227.718 122.878 226.49 124.189 225.525C124.885 225.012 125.918 224.955 126.799 224.693C126.881 225.066 126.964 225.439 127.044 226.383C126.863 228.152 126.685 229.351 126.506 230.551C126.802 230.769 127.097 230.987 127.393 231.205C129.393 229.629 131.392 228.053 133.391 226.477C132.217 230.406 131.142 234.371 129.745 238.219C129.57 238.7 127.56 238.954 126.619 238.645C119.671 236.369 112.627 234.281 105.905 231.441C96.8724 227.627 87.9984 223.395 79.2596 218.943C74.1656 216.348 69.3278 216.054 63.9084 218.392ZM91.5544 156.575C92.4064 156.702 93.9637 157.052 94.0044 156.923C94.5894 155.069 94.8857 153.191 91.7291 152.448C91.6137 153.841 91.5237 154.929 91.5544 156.575Z" fill="#554559"/>
<path d="M93.8501 165.199C95.362 165.892 96.8739 166.585 98.9135 167.52C98.9135 166.132 99.2266 165.032 98.8626 164.243C96.5289 159.19 94.5476 154.107 95.6056 148.361C95.6563 148.085 95.2061 147.717 94.7372 147.032C94.4853 146.672 94.3999 146.299 94.4235 145.986C93.9516 143.492 93.4561 141.311 92.9206 138.963C92.8806 138.796 92.7817 138.467 92.7163 138.298C92.5258 137.917 92.3603 137.744 92.1542 137.609C92.1542 137.609 92.1213 137.617 92.0948 137.393C91.8356 136.779 91.6029 136.388 91.3703 135.998C91.3703 135.998 91.3323 136.025 91.2484 135.855C90.9616 135.5 90.7588 135.316 90.5559 135.132C90.5559 135.132 90.4975 134.809 90.361 134.411C89.0199 133.085 87.8154 132.156 86.6109 131.228C86.6109 131.228 86.5753 131.262 86.4902 131.101C86.203 130.76 86.0009 130.581 85.7988 130.401C82.952 126.385 80.1052 122.369 77.2466 117.891C77.7281 117.022 78.2214 116.617 78.7147 116.211C89.5638 122.98 96.5153 132.455 99.0119 145.728C99.1958 149.945 99.1773 153.596 99.1588 157.247C100.215 160.516 100.269 165.207 102.514 166.79C109.692 171.853 110.879 179.626 113.277 186.855C114.345 190.074 113.705 193.85 114.725 197.096C117.112 204.694 117.695 211.555 111.05 217.612C109.438 219.082 109.261 222.128 108.594 224.63C108.403 225.587 108.042 226.361 107.681 227.135C107.284 227.075 106.888 227.014 106.492 226.954C106.682 225.054 106.492 223.012 107.141 221.285C108.576 217.471 110.554 213.864 112.083 210.081C113.456 206.683 113.691 203.236 111.773 199.825C110.44 197.454 109.375 194.933 107.669 191.398C109.88 192.19 110.989 192.587 112.677 193.192C112.146 192.09 111.863 191.344 111.451 190.677C109.965 188.272 106.812 186.725 107.93 182.949C108.124 182.292 106.32 181.073 105.484 180.076C101.55 175.386 97.6318 170.682 93.7199 165.651C93.7319 165.318 93.8501 165.199 93.8501 165.199ZM107.737 174.679C106.576 173.5 105.415 172.322 104.254 171.143C103.973 171.416 103.692 171.689 103.411 171.962C104.668 173.928 105.924 175.893 107.181 177.859C107.452 177.728 107.724 177.596 107.996 177.464C107.952 176.703 107.908 175.943 107.737 174.679Z" fill="#8A7E50"/>
<path d="M183.602 233.874C182.857 234.289 182.113 234.703 180.77 235.167C179.388 235.162 178.605 235.109 177.821 235.055C177.747 232.712 177.672 230.369 177.586 227.78C182.701 223.732 187.827 219.931 193.358 216.23C193.969 216.783 194.176 217.235 194.243 217.869C193.65 218.461 193.199 218.87 192.605 219.386C192.281 219.649 192.124 219.826 191.989 220.043C191.987 220.061 191.951 220.049 191.742 220.151C191.162 220.729 190.791 221.205 190.273 221.909C189.76 223.499 189.393 224.862 188.865 226.448C188.468 227.167 188.232 227.662 187.72 228.074C185.046 229.222 183.043 230.712 183.602 233.874Z" fill="#55415D"/>
<path d="M190.652 245.552C190.303 250.598 187.278 254.023 183.447 257.252C181.503 256.977 179.775 256.542 177.943 255.653C179.409 252.841 180.718 250.241 182.618 248.189C184.669 245.975 187.065 243.619 190.652 245.552Z" fill="#594459"/>
<path d="M99.4195 157.375C99.177 153.596 99.1955 149.945 99.184 145.97C100.155 145.742 101.157 145.836 102.327 146.165C101.839 152.945 103.359 158.771 107.911 163.732C109.207 165.144 110.062 166.962 110.958 168.783C110.603 169.239 110.41 169.508 110.217 169.776C106.705 165.685 103.193 161.594 99.4195 157.375Z" fill="#564753"/>
<path d="M177.588 235.193C178.605 235.109 179.389 235.162 180.462 235.265C177.013 240.477 173.275 245.639 169.062 250.924C168.217 251.016 167.847 250.986 167.476 250.956C167.476 250.956 167.432 250.979 167.378 250.763C167.253 250.415 167.183 250.283 167.238 249.891C168.955 246.635 170.547 243.64 172.14 240.644C173.878 238.873 175.616 237.101 177.588 235.193Z" fill="#BF432F"/>
<path d="M190.944 245.51C187.065 243.62 184.669 245.976 182.618 248.19C180.718 250.241 179.409 252.841 177.764 255.464C177.071 255.6 176.455 255.472 175.626 255.24C176.263 254.052 177.04 252.9 177.978 251.899C180.77 248.918 183.634 246.005 186.45 243.046C187.195 242.264 187.869 241.412 188.936 240.584C190.612 241.882 191.925 243.188 193.239 244.494C192.571 244.818 191.904 245.142 190.944 245.51Z" fill="#D0A77F"/>
<path d="M171.851 240.657C170.547 243.64 168.955 246.635 167.139 249.923C166.915 250.214 166.727 250.312 166.727 250.312C165.623 249.481 164.518 248.651 162.849 247.395C166.037 244.934 168.799 242.802 171.851 240.657Z" fill="#67434B"/>
<path d="M133.292 226.24C131.392 228.053 129.393 229.63 127.393 231.206C127.098 230.988 126.802 230.769 126.506 230.551C126.685 229.352 126.863 228.152 127.092 226.667C128.888 224.935 130.634 223.49 132.833 221.669C132.995 223.616 133.094 224.809 133.292 226.24Z" fill="#8A7E4E"/>
<path d="M126.848 224.38C125.918 224.956 124.885 225.012 124.189 225.525C122.878 226.49 121.761 227.719 119.63 229.711C120.358 227.272 120.767 225.903 121.278 224.281C122.759 222.387 124.138 220.747 125.517 219.107C125.904 219.295 126.292 219.483 126.679 219.671C126.752 221.136 126.824 222.602 126.848 224.38Z" fill="#8C7C55"/>
<path d="M170.854 286.715C170.584 286.484 170.594 286.082 170.748 286.017C174.245 284.529 176.89 282.113 179.031 278.752C180.735 284.177 178.28 286.593 170.854 286.715Z" fill="#8A7D50"/>
<path d="M118.171 223.279C117.28 224.371 116.194 225.384 115.108 226.396C114.819 226.207 114.53 226.018 114.241 225.829C114.781 224.481 115.597 223.167 115.768 221.774C115.894 220.754 115.174 219.629 114.552 218.525C116.25 217.533 118.227 216.567 120.812 215.304C119.725 218.33 118.851 220.765 118.171 223.279Z" fill="#8C7C55"/>
<path d="M49.8344 229.115C48.9551 229.923 48.1783 230.464 47.1929 231.119C47.5667 226.854 50.3912 224.566 54.6428 223.319C53.2674 225.148 51.6022 226.997 49.8344 229.115Z" fill="#554559"/>
<path d="M57.5201 221.572C57.1862 220.258 57.1257 218.905 57.0394 216.975C59.2097 217.589 60.8521 218.053 62.8033 218.571C61.3392 219.595 59.5663 220.565 57.5201 221.572Z" fill="#554559"/>
<path d="M118.27 180.367C116.477 177.674 114.684 174.98 112.783 172.031C112.676 171.776 112.718 171.744 112.995 171.757C116.262 173.253 118.084 175.566 118.353 179.195C118.307 179.742 118.289 180.055 118.27 180.367Z" fill="#664D40"/>
<path d="M118.494 180.514C118.289 180.055 118.307 179.742 118.583 179.274C119.456 179.3 120.072 179.481 120.689 179.662C120.937 181.029 121.186 182.396 121.464 184.059C120.568 183.123 119.643 181.892 118.494 180.514Z" fill="#C5AD87"/>
<path d="M167.599 251.184C167.847 250.986 168.217 251.016 168.863 251.107C169.199 251.461 169.261 251.754 169.382 252.266C168.868 252.127 168.294 251.77 167.599 251.184Z" fill="#D0A77F"/>
<path d="M172.289 254.379C172.64 254.383 173.047 254.556 173.622 254.879C173.308 254.869 172.828 254.709 172.289 254.379Z" fill="#D0A77F"/>
<path d="M110.335 169.888C110.411 169.508 110.604 169.239 110.995 169.041C111.171 169.457 111.15 169.803 111.113 170.171C111.098 170.193 111.061 170.233 111.061 170.233C110.848 170.183 110.645 170.106 110.335 169.888Z" fill="#664D40"/>
<path d="M170.802 253.449C171.054 253.459 171.47 253.611 172.012 253.948C171.748 253.952 171.357 253.771 170.802 253.449Z" fill="#D0A77F"/>
<path d="M112.657 171.795C112.378 171.737 112.171 171.588 111.951 171.173C111.888 170.978 111.93 170.941 112.106 171.025C112.5 171.271 112.646 171.482 112.718 171.744C112.718 171.744 112.676 171.776 112.657 171.795Z" fill="#664D40"/>
<path d="M111.868 170.997C111.591 170.94 111.386 170.794 111.145 170.406C111.061 170.233 111.098 170.193 111.291 170.253C111.708 170.469 111.857 170.678 111.931 170.941C111.931 170.941 111.889 170.978 111.868 170.997Z" fill="#664D40"/>
<path d="M166.842 250.431C166.727 250.312 166.915 250.214 167.014 250.183C167.183 250.283 167.253 250.415 167.399 250.756C167.293 250.84 167.12 250.702 166.842 250.431Z" fill="#D0A77F"/>
<path d="M55.0589 223.233C55.0488 223.119 55.2331 222.922 55.5732 222.593C55.5704 222.691 55.4119 222.92 55.0589 223.233Z" fill="#554559"/>
<path d="M55.8903 222.452C55.9131 222.335 56.1768 222.142 56.656 221.827C56.6247 221.929 56.3779 222.152 55.8903 222.452Z" fill="#554559"/>
<path d="M193.516 244.422C191.925 243.188 190.611 241.881 189.076 240.391C188.372 239.199 187.889 238.192 187.594 236.973C189.317 235.724 190.853 234.685 192.743 233.632C194.864 233.107 196.63 232.598 198.68 232.027C201.875 230.326 204.786 228.685 208.005 227.077C208.721 227.148 209.13 227.186 209.54 227.225C204.958 233.547 200.792 240.25 193.516 244.422Z" fill="#55415D"/>
<path d="M96.9799 278.383C96.8329 278.594 96.458 278.689 96.0495 278.77C95.2614 279.079 94.8818 279.308 94.5022 279.537C94.5022 279.537 94.5004 279.539 94.2542 279.543C93.3944 279.748 92.7806 279.948 92.1669 280.148C78.6409 282.779 64.9536 282.949 51.2566 282.653C46.9407 282.56 42.6031 282.058 38.3385 281.359C33.1439 280.506 32.6725 279.699 32.6609 274.248C32.6579 272.857 32.6604 271.466 32.6604 270.164C33.3009 270.093 33.505 270.025 33.5386 270.074C40.3584 279.984 50.4042 278.983 60.4516 278.095C65.036 277.69 69.635 277.444 74.2296 277.161C82.8748 276.63 91.5217 276.124 100.527 275.644C99.6331 276.511 98.38 277.342 96.9799 278.383Z" fill="#82A4B6"/>
<path d="M119.058 147.853C118.928 147.892 118.798 147.93 118.477 148.038C118.141 148.051 117.997 147.996 117.456 147.765C116.666 147.468 116.272 147.348 115.878 147.228C109.288 144.635 105.353 137.913 105.884 130.067C106.201 125.393 107.262 120.615 102.782 116.088C105.073 116.285 106.448 116.403 108.44 116.574C107.313 114.889 106.531 113.719 105.301 111.879C107.462 111.995 108.786 112.067 111.038 112.188C109.874 110.5 109.096 109.372 107.859 107.578C110.07 107.464 111.755 107.376 114.077 107.256C112.881 105.439 112.065 104.198 111.049 102.654C116.732 102.488 116.732 102.488 114.941 98.4606C115.714 98.2696 116.459 98.1192 117.181 97.8967C117.774 97.7143 118.341 97.4461 119.281 97.0718C118.44 95.5823 117.727 94.3181 116.681 92.4661C118.725 92.4661 120.217 92.4661 122.466 92.4661C121.179 90.7454 120.385 89.6844 119.104 87.9735C121.32 87.9735 122.901 87.9735 125.171 87.9735C124.066 86.1373 123.378 84.9923 122.646 83.7767C127.623 82.9023 127.623 82.9023 125.201 78.5816C127.663 77.9924 133.766 79.3749 127.348 73.6166C129.688 73.3301 131.103 73.1569 132.517 72.9838C132.139 71.6696 131.76 70.3555 131.199 68.4117C131.567 68.3437 132.365 68.1381 133.176 68.0624C133.969 67.9882 134.776 68.0462 136.182 68.0462C135.098 66.3294 134.364 65.1678 133.178 63.2906C135.319 63.5646 136.585 63.7267 138.931 64.0269C137.669 62.2197 136.938 61.1721 135.634 59.3048C137.64 59.1258 139.164 58.9897 141.115 58.8157C140.414 57.2913 139.776 55.9014 139.088 54.4045C140.772 54.1623 142.169 53.9612 143.567 53.7602C143.017 52.5358 142.468 51.3115 141.69 49.5782C143.16 49.4666 144.55 49.3611 146.63 49.2032C145.993 47.7079 145.448 46.4292 144.776 44.8507C146.977 44.205 152.557 45.2496 146.998 40.0578C149.006 39.7522 150.407 39.5389 152.166 39.2711C151.478 37.6193 150.919 36.2777 150.124 34.3711C157.286 36.1629 154.238 32.0318 153.097 28.6104C155.259 29.4076 156.634 29.9144 158.992 30.7838C158.311 27.908 157.769 25.617 157.192 23.0316C157.661 21.9876 159.927 16.8774 160.727 15.2399C161.707 13.2336 164.982 8.52335 166.859 5.50171C168.694 6.03529 168.637 5.94607 170.859 7.99014C175.218 12.0006 177.089 32.7596 175.139 38.4642C174.279 39.2563 173.658 39.9683 173.055 40.963C173.073 42.5528 173.073 43.8599 173.073 45.3157C171.172 44.9089 169.937 44.6446 167.389 44.0993C172.295 49.5384 169.807 50.4417 164.769 50.2628C165.378 51.0191 166.03 51.0859 166.313 51.4443C166.858 52.1342 167.194 52.9891 167.617 53.7756C166.793 53.9269 165.959 54.0378 165.148 54.239C163.964 54.5327 162.797 54.8914 161.344 55.2394C160.207 55.6952 158.97 55.91 158.553 56.6118C156.855 59.4691 155.409 62.4756 153.654 65.5861C151.766 68.8532 150.096 71.9613 148.413 75.0399C148.4 75.0105 148.459 74.9858 148.283 75.1817C147.943 75.8749 147.779 76.3722 147.463 77.1055C146.707 78.255 146.104 79.1685 145.389 80.2281C143.261 82.0321 144.897 82.8532 146.112 84.0346C151.971 89.9553 143.775 87.2034 143.341 88.5881C143.954 90.2703 144.411 91.5238 144.868 92.7772C143.517 92.9349 142.166 93.0927 140.513 93.2858C140.358 94.9139 146.078 100.053 137.164 97.3615C138.566 99.2368 139.347 100.281 140.796 102.218C138.558 102.431 136.915 102.588 134.915 102.779C139.569 107.641 135.602 107.731 132.546 107.739C133.006 109.556 133.4 111.117 133.846 112.878C131.774 112.552 130.707 112.384 129.64 112.216C129.987 113.133 130.374 114.036 130.663 114.97C130.838 115.534 131.138 116.404 130.885 116.677C130.456 117.142 129.643 117.418 128.976 117.452C128.248 117.488 127.501 117.158 126.454 116.917C127.235 118.957 127.822 120.489 128.625 122.588C126.284 122.179 125.117 121.976 123.58 121.707C123.876 122.607 123.882 123.076 124.117 123.272C130.548 128.661 136.985 134.044 143.483 139.353C144.085 139.845 145.094 139.839 145.915 140.064C145.246 140.894 144.577 141.725 143.588 142.26C139.913 139.034 136.813 135.721 133.141 133.264C128.168 129.936 122.897 126.965 117.477 124.433C114.564 123.073 113.348 124.53 114.081 127.704C114.51 129.565 115.125 131.382 115.835 133.838C113.867 132.613 112.452 131.733 110.199 130.33C111.221 137.767 115.302 142.369 119.104 147.294C119.085 147.48 119.058 147.853 119.058 147.853Z" fill="#897F4A"/>
<path d="M175.376 38.3834C177.089 32.7589 173.569 14.2994 171.658 8.87817C174.413 11.1 179.227 16.1218 182.076 22.0279C185.983 30.1203 190.256 37.9708 190.989 46.9501C191.28 50.5157 190.747 54.1485 190.418 57.9668C190.246 58.1828 190.237 58.166 190.283 57.8659C188.325 48.848 184.574 41.4925 175.376 38.3834Z" fill="#D4AD7A"/>
<path d="M89.073 145.531C89.1775 150.471 89.2599 155.413 89.3989 160.352C89.4454 162.005 89.4961 163.68 89.7898 165.3C90.4191 168.773 91.2078 172.217 91.9553 175.787C92.1876 175.95 93.2073 176.333 93.7042 177.069C96.3296 180.957 98.9878 184.84 101.297 188.917C102.549 191.128 103.181 193.702 103.985 196.148C104.265 196.997 103.932 198.138 104.372 198.831C108.02 204.566 105.709 210.227 104.4 215.949C103.652 219.221 103.192 222.559 102.287 225.978C97.1907 221.544 93.5069 216.714 97.9042 209.672C98.1734 208.821 98.2829 208.123 98.3925 207.426C98.2552 207.412 98.1179 207.399 97.9806 207.386C97.7411 208.071 97.5017 208.755 97.0372 209.331C96.6014 208.637 96.281 208.067 96.1966 207.465C95.2777 200.905 94.3957 194.339 93.3989 187.005C92.1638 189.353 91.407 190.792 90.6196 191.905C89.7308 188.493 88.8352 185.415 88.0261 182.314C87.33 179.647 86.6501 176.969 86.1181 174.265C85.7094 172.188 85.5419 170.064 85.2672 167.96C85.0049 168.014 84.7427 168.067 84.4804 168.121C84.1043 169.865 83.7282 171.61 83.1581 173.546C79.5374 178.456 76.1108 183.175 72.5492 188.08C72.1957 187.451 71.7748 186.702 71.4943 185.691C72.0902 184.063 72.4208 182.64 73.0259 181.345C74.5122 178.164 75.5244 174.447 77.87 172.077C79.8731 170.053 80.7245 168.329 79.9567 165.983C79.0831 163.314 79.1996 159.615 75.2062 159.703C73.2817 153.296 72.8885 147.216 75.2281 140.985C75.9072 139.176 74.7932 136.694 74.5073 134.205C74.3293 132.253 74.1452 130.617 73.9611 128.981C73.9611 128.981 73.8937 128.915 74.218 128.944C75.5105 130.08 77.1111 131.077 77.3238 132.313C77.875 135.517 78.4882 138.967 77.8402 142.06C76.8865 146.611 78.8748 149.817 81.7654 153.32C82.6107 148.626 83.4561 143.932 84.3015 139.237C84.3015 139.237 84.2331 139.251 84.4881 139.268C85.3334 139.549 85.9235 139.814 86.5137 140.079C86.5137 140.079 86.5953 140.442 86.6477 140.87C87.1759 141.955 87.6517 142.612 88.1602 143.446C88.1929 143.622 88.294 143.967 88.2959 144.174C88.5067 144.552 88.7157 144.723 88.9488 145.057C88.973 145.219 89.073 145.531 89.073 145.531Z" fill="#D4AC77"/>
<path d="M91.2236 212.944C88.765 213.54 88.2078 214.491 90.0387 216.687C91.5105 218.452 92.4298 220.678 93.5943 222.7C93.2945 222.926 92.9947 223.152 92.695 223.379C89.4888 222.069 86.1609 220.986 83.1311 219.349C81.7461 218.601 80.9487 216.765 79.6339 215.399C79.3831 215.374 79.3625 215.376 79.3771 215.06C79.4681 211.446 78.1071 209.346 74.6431 209.007C74.6675 208.993 74.6403 209.042 74.6745 208.761C75.6311 204.773 73.1141 204.977 70.7386 205.017C70.7228 205.03 70.7171 204.989 70.5877 204.85C70.2752 204.535 70.0781 204.377 69.8935 204.232C69.9199 204.23 69.919 204.283 69.7921 204.129C69.4689 203.797 69.2727 203.618 69.1001 203.444C69.1237 203.449 69.092 203.486 69.0902 203.181C68.6071 201.537 68.4858 199.841 67.5783 198.921C64.5963 195.898 64.0121 192.32 64.3772 188.372C64.6298 187.419 64.7698 186.416 65.163 185.524C65.6771 184.359 66.3913 183.281 67.3803 182.31C68.2148 182.835 68.6884 183.215 69.1557 183.608C69.1494 183.622 69.1402 183.594 69.261 183.739C69.5517 184.072 69.7374 184.241 69.9319 184.401C69.925 184.408 69.9397 184.393 70.0429 184.533C70.2918 184.853 70.452 185.019 70.6646 185.356C70.7025 185.54 70.7608 185.911 70.7604 186.212C71.8287 190.341 72.0259 190.381 76.4501 187.487C77.1918 185.267 78.0847 183.084 79.5475 181.395C79.9876 180.887 82.0129 181.752 83.3459 182.17C83.3798 182.352 83.4239 182.719 83.5178 182.873C83.7463 183.225 83.8977 183.41 84.1006 183.833C84.1688 184.424 84.2024 184.762 84.1856 185.373C84.0451 191.158 84.8584 192.122 89.7532 192.323C89.7492 192.332 89.7657 192.315 89.7602 192.619C90.3007 194.306 90.8468 195.69 91.3688 197.083C91.3447 197.093 91.3738 197.05 91.3381 197.331C91.5852 199.305 91.8681 200.999 92.131 202.953C92.0744 203.56 92.0377 203.906 91.881 204.372C91.6072 204.658 91.4693 204.837 91.3411 205.026C91.3349 205.025 91.3372 205.037 91.1935 205.157C90.8656 205.448 90.6986 205.633 90.556 205.828C90.5632 205.821 90.5642 205.844 90.298 205.884C86.7815 208.412 87.0708 209.492 91.4526 211.633C91.3504 212.246 91.287 212.595 91.2236 212.944ZM67.5036 189.791C67.5484 189.794 67.5933 189.796 67.5036 189.791V189.791Z" fill="#504265"/>
<path d="M70.7608 185.91C70.7608 185.91 70.7025 185.539 70.5902 185.195C70.338 184.651 70.1586 184.499 69.9397 184.393C69.9397 184.393 69.9251 184.407 69.8311 184.238C69.5735 183.865 69.3746 183.707 69.1402 183.594C69.1402 183.594 69.1494 183.622 69.108 183.342C68.8013 182.208 68.5362 181.352 68.271 180.497C68.271 180.497 68.3375 180.126 68.5141 179.759C68.8543 178.952 69.0178 178.512 69.1814 178.072C69.1814 178.072 69.1353 178.077 69.3411 177.902C69.4235 175.975 69.3002 174.222 69.1768 172.468C69.1768 172.468 69.1705 172.521 69.1172 172.23C67.6019 168.79 65.6266 166.204 61.9651 165.467C61.9651 165.467 61.6283 165.399 61.2932 165.194C60.2611 164.309 59.5641 163.63 58.8671 162.95C58.8671 162.95 58.8664 163.002 58.8777 162.705C58.9079 161.856 58.9269 161.304 58.9458 160.752C58.9458 160.752 59.2251 160.736 59.5572 160.953C61.6423 161.484 63.3953 161.798 65.3237 162.166C65.4991 162.221 65.8553 162.311 66.0483 162.494C68.3944 164.388 70.5474 166.101 72.7005 167.814C73.1459 167.577 73.5913 167.341 74.0368 167.104C73.2101 162.533 72.3835 157.961 71.5569 153.39C71.5569 153.39 71.499 153.022 71.4876 152.499C71.7738 149.062 72.0716 146.148 72.3693 143.235C72.3693 143.235 72.3599 143.193 72.4948 143.108C72.8188 142.86 72.9457 142.659 73.0104 142.419C73.0447 142.073 73.0789 141.728 73.3118 140.871C73.8406 138.414 74.1708 136.467 74.501 134.52C74.793 136.693 75.907 139.175 75.2279 140.984C72.8883 147.216 73.2816 153.296 75.206 159.703C79.1994 159.615 79.0829 163.314 79.9565 165.983C80.7243 168.328 79.8729 170.053 77.8698 172.077C75.5242 174.447 74.512 178.164 73.0257 181.345C72.4206 182.64 72.09 184.063 71.3458 185.685C71.0572 185.941 70.7608 185.91 70.7608 185.91Z" fill="#8A7D50"/>
<path d="M69.1686 212.283C64.7983 208.828 60.2721 208.863 55.0717 213.019C56.0792 207.07 56.9813 202.523 57.5907 197.937C58.2681 192.839 58.9253 187.667 55.1331 182.68C54.883 181.565 54.8497 180.952 55.0241 180.515C59.9386 185.014 60.9568 190.543 60.4338 196.579C60.1417 199.95 61.678 202.27 64.3388 204.259C67.2583 206.441 70.4242 208.609 70.7409 212.812C70.7409 212.812 70.7592 212.999 70.7432 213.091C70.7272 213.183 70.3714 213.044 70.0723 212.851C69.6058 212.478 69.4043 212.353 69.1686 212.283Z" fill="#8A7E4E"/>
<path d="M70.9887 212.953C70.4249 208.609 67.2589 206.441 64.3394 204.259C61.6786 202.271 60.1423 199.95 60.4344 196.579C60.9575 190.544 59.9392 185.015 54.9364 180.297C54.4345 179.3 54.2288 178.698 54.0231 178.096C54.0231 178.096 54.1136 178.032 54.3583 177.965C54.9489 177.915 55.2948 177.931 55.6407 177.947C55.6407 177.947 55.9949 178.052 56.3015 178.307C57.596 179.743 58.5841 180.924 59.5721 182.105C59.5721 182.105 59.5974 182.049 59.6231 182.26C59.9075 182.836 60.1661 183.202 60.4248 183.568C60.4248 183.568 60.3993 183.608 60.4679 183.813C60.7573 184.169 60.9782 184.32 61.199 184.471C61.199 184.471 61.1908 184.42 61.2537 184.728C61.7379 186.396 62.5454 187.765 62.5135 189.114C62.3741 195.025 65.573 199.307 69.0931 203.485C69.0931 203.485 69.1248 203.449 69.1794 203.639C69.4627 203.981 69.6914 204.132 69.9202 204.283C69.9202 204.283 69.921 204.23 69.971 204.423C70.2534 204.74 70.4858 204.865 70.7183 204.989C70.7183 204.989 70.7239 205.03 70.8971 205.217C72.2607 206.617 73.4511 207.829 74.6414 209.042C74.6414 209.042 74.6686 208.993 74.7234 209.27C76.3067 211.49 77.8352 213.433 79.3636 215.376C79.3636 215.376 79.3842 215.374 79.3803 215.383C76.6628 214.626 73.9494 213.859 70.9887 212.953Z" fill="#D1AC7C"/>
<path d="M112.106 171.026C111.856 170.679 111.707 170.47 111.306 170.231C111.15 169.803 111.171 169.457 111.156 168.853C110.063 166.963 109.208 165.145 107.912 163.732C103.359 158.771 101.839 152.946 102.508 146.051C102.868 145.878 103.217 146.053 103.866 146.473C104.377 146.89 104.587 147.062 104.797 147.235C104.91 147.433 105.053 147.607 105.49 148.015C105.963 148.448 106.172 148.622 106.38 148.797C106.422 149.064 106.464 149.33 106.482 150.135C107.252 157.768 110.914 163.435 115.364 169.364C116.015 167.662 116.432 166.574 116.848 165.487C118.135 169.998 119.423 174.509 120.7 179.341C120.073 179.481 119.457 179.3 118.611 179.04C118.084 175.566 116.262 173.254 112.996 171.758C112.646 171.483 112.5 171.272 112.106 171.026Z" fill="#887E52"/>
<path d="M116.827 165.122C116.432 166.574 116.016 167.662 115.364 169.364C110.914 163.435 107.252 157.768 106.473 150.337C109.692 152.433 112.897 154.865 116.322 157.437C116.631 159.97 116.719 162.363 116.827 165.122Z" fill="#D2AD7A"/>
<path d="M84.077 139.404C83.4557 143.932 82.6104 148.626 81.765 153.32C78.8744 149.817 76.8861 146.611 77.8398 142.06C78.4878 138.967 77.8746 135.517 77.3234 132.313C77.1108 131.077 75.5101 130.08 74.2482 128.98C77.0625 125.967 77.7762 129.272 78.3786 130.985C79.7485 134.882 81.543 138.855 79.4464 143.144C79.243 143.56 79.8561 144.375 80.3919 145.817C81.8063 143.264 82.8296 141.418 84.077 139.404Z" fill="#554559"/>
<path d="M42.9983 206.721C44.5448 205.631 46.033 203.804 47.6554 203.676C49.0499 203.566 50.9228 205.15 51.9297 206.48C52.3812 207.077 51.6151 209.486 50.746 210.036C47.1576 212.303 43.3181 214.173 39.3256 215.873C42.4492 212.676 45.8181 209.795 49.187 206.914C49.0199 206.67 48.8528 206.426 48.6856 206.182C46.7898 206.362 44.8941 206.542 42.9983 206.721Z" fill="#CBAF82"/>
<path d="M42.7622 206.831C44.8948 206.541 46.7906 206.361 48.6863 206.181C48.8535 206.425 49.0206 206.669 49.1877 206.913C45.8188 209.794 42.4499 212.675 39.026 215.823C36.4204 214.689 37.4235 212.711 38.4839 211.145C39.558 209.559 41.1566 208.328 42.7622 206.831Z" fill="#8A7D50"/>
<path d="M71.482 153.644C72.3837 157.961 73.2103 162.533 74.0369 167.104C73.5915 167.341 73.146 167.577 72.7006 167.814C70.5476 166.101 68.3945 164.389 66.2888 162.386C67.82 162.297 69.3038 162.497 70.607 162.673C70.382 160.684 70.1545 158.673 69.9269 156.661C70.4203 155.74 70.9137 154.818 71.482 153.644Z" fill="#554559"/>
<path d="M89.3046 145.655C89.0722 145.531 88.9723 145.219 88.8601 144.891C88.619 144.347 88.4675 144.148 88.2932 143.966C88.2932 143.966 88.1922 143.622 88.1686 143.138C88.1465 142.039 88.1479 141.424 88.1494 140.809C89.3516 140.158 90.5537 139.507 92.0904 138.651C92.4249 138.447 92.781 138.467 92.781 138.467C92.781 138.467 92.8799 138.796 92.8569 139.24C93.3557 141.889 93.8775 144.094 94.3992 146.299C94.3992 146.299 94.4847 146.672 94.5224 146.86C94.0012 148.008 93.4423 148.968 92.6837 150.272C91.3574 148.378 90.4471 147.079 89.3046 145.655Z" fill="#504265"/>
<path d="M69.0903 203.182C65.572 199.308 62.373 195.026 62.5125 189.115C62.5443 187.766 61.7369 186.397 61.2281 184.737C62.1399 185.59 63.1392 186.742 64.2579 188.133C64.0122 192.32 64.5964 195.898 67.5784 198.921C68.4859 199.841 68.6072 201.537 69.0903 203.182Z" fill="#554559"/>
<path d="M69.6651 156.74C70.1545 158.673 70.3821 160.684 70.6071 162.673C69.3039 162.497 67.8201 162.296 66.0959 162.204C65.8555 162.311 65.4993 162.221 65.3293 161.995C65.1594 161.769 65.1641 161.425 65.1641 161.425C66.5771 159.89 67.9902 158.355 69.6651 156.74Z" fill="#504265"/>
<path d="M74.507 134.205C74.1707 136.467 73.8405 138.414 73.336 140.612C73.2557 137.003 73.3497 133.142 73.7022 129.131C74.1449 130.617 74.329 132.253 74.507 134.205Z" fill="#554559"/>
<path d="M78.5015 116.029C78.2218 116.617 77.7285 117.023 77.1228 117.647C74.3585 116.371 71.7066 114.878 69.0547 113.385C69.2525 112.963 69.4502 112.541 69.648 112.118C72.5279 113.361 75.4078 114.604 78.5015 116.029Z" fill="#877B64"/>
<path d="M62.03 165.729C65.627 166.204 67.6024 168.79 69.1315 172.207C66.8306 170.313 64.4626 168.152 62.03 165.729Z" fill="#554559"/>
<path d="M72.1256 143.366C72.0712 146.148 71.7734 149.062 71.4482 152.317C71.5746 149.605 71.7284 146.552 72.1256 143.366Z" fill="#554559"/>
<path d="M53.854 178.241C54.2277 178.698 54.4335 179.3 54.7275 180.12C54.8492 180.952 54.8826 181.565 54.9411 182.483C54.5395 181.32 54.1127 179.852 53.854 178.241Z" fill="#554559"/>
<path d="M59.568 181.8C58.5833 180.924 57.5953 179.743 56.4833 178.335C57.4277 179.237 58.4962 180.367 59.568 181.8Z" fill="#554559"/>
<path d="M86.6783 131.494C87.8152 132.156 89.0197 133.085 90.3211 134.252C89.194 133.581 87.97 132.67 86.6783 131.494Z" fill="#554559"/>
<path d="M69.1663 172.821C69.3006 174.221 69.4239 175.975 69.3591 177.917C69.1657 176.462 69.1606 174.818 69.1663 172.821Z" fill="#554559"/>
<path d="M61.9589 174.053C62.393 174.172 62.7043 174.409 63.0156 174.645C62.8499 174.804 62.6843 174.964 62.5186 175.123C62.2911 174.805 62.0636 174.488 61.9589 174.053Z" fill="#554559"/>
<path d="M64.8477 161.41C65.1639 161.425 65.1592 161.769 65.1538 161.94C63.3953 161.798 61.6423 161.484 59.6969 160.945C61.1801 160.945 62.8558 161.17 64.8477 161.41Z" fill="#554559"/>
<path d="M64.6792 156.207C64.7619 156.553 64.6978 156.84 64.6338 157.128C64.3388 156.989 64.0439 156.85 63.749 156.712C64.0102 156.524 64.2713 156.336 64.6792 156.207Z" fill="#504265"/>
<path d="M58.7141 160.756C58.9272 161.304 58.9083 161.857 58.895 162.686C58.3407 162.567 57.7808 162.171 57.2209 161.775C57.6413 161.437 58.0617 161.098 58.7141 160.756Z" fill="#554559"/>
<path d="M86.4884 139.838C85.9229 139.814 85.3328 139.549 84.4946 139.302C85.2233 137.509 85.9298 137.861 86.4884 139.838Z" fill="#554559"/>
<path d="M68.1498 180.672C68.5365 181.352 68.8017 182.208 69.1146 183.329C68.6888 183.215 68.2152 182.835 67.6416 182.242C67.7038 181.636 67.866 181.241 68.1498 180.672Z" fill="#554559"/>
<path d="M58.907 163.222C59.5651 163.63 60.2621 164.309 61.1239 165.172C60.5078 164.734 59.7269 164.114 58.907 163.222Z" fill="#554559"/>
<path d="M87.9115 140.806C88.1497 141.424 88.1483 142.039 88.1376 142.962C87.6527 142.612 87.1769 141.955 86.707 141.047C87.0326 140.798 87.3522 140.801 87.9115 140.806Z" fill="#554559"/>
<path d="M55.567 177.796C55.2939 177.931 54.948 177.915 54.3424 177.912C54.5532 177.831 55.0237 177.738 55.567 177.796Z" fill="#554559"/>
<path d="M92.4563 280.182C92.7808 279.948 93.3945 279.748 94.2531 279.543C94.215 279.755 93.932 279.972 93.4846 280.251C93.1286 280.281 92.9371 280.249 92.4563 280.182Z" fill="#909BA4"/>
<path d="M60.3528 183.356C60.1654 183.202 59.9067 182.836 59.5947 182.247C59.7881 182.397 60.0348 182.77 60.3528 183.356Z" fill="#554559"/>
<path d="M116.037 147.367C116.271 147.348 116.665 147.468 117.235 147.694C117.006 147.702 116.601 147.604 116.037 147.367Z" fill="#877B64"/>
<path d="M91.4279 136.22C91.6025 136.389 91.8351 136.779 92.1098 137.398C91.9298 137.231 91.7078 136.836 91.4279 136.22Z" fill="#554559"/>
<path d="M69.0379 178.258C69.0181 178.512 68.8545 178.953 68.5353 179.572C68.5511 179.315 68.7226 178.88 69.0379 178.258Z" fill="#554559"/>
<path d="M106.249 148.64C106.171 148.622 105.963 148.447 105.629 148.11C105.709 148.126 105.914 148.305 106.249 148.64Z" fill="#564753"/>
<path d="M61.0843 184.318C60.9771 184.32 60.7563 184.169 60.49 183.818C60.6364 183.785 60.8118 183.968 61.0843 184.318Z" fill="#554559"/>
<path d="M104.668 147.077C104.587 147.062 104.377 146.889 104.045 146.552C104.129 146.565 104.334 146.742 104.668 147.077Z" fill="#564753"/>
<path d="M46.8306 231.325C46.8185 231.407 46.6563 231.624 46.3265 231.96C46.3328 231.872 46.5066 231.666 46.8306 231.325Z" fill="#554559"/>
<path d="M90.6797 135.295C90.7597 135.316 90.9626 135.5 91.272 135.861C91.1866 135.845 90.9945 135.652 90.6797 135.295Z" fill="#554559"/>
<path d="M92.7164 138.298C92.7818 138.467 92.4257 138.447 92.2472 138.433C92.0823 138.284 92.0959 138.149 92.1319 137.811C92.3603 137.744 92.5259 137.917 92.7164 138.298Z" fill="#554559"/>
<path d="M72.8871 142.544C72.9456 142.659 72.8187 142.86 72.4797 143.123C72.4612 143.029 72.6059 142.844 72.8871 142.544Z" fill="#554559"/>
<path d="M69.297 212.404C69.404 212.353 69.6055 212.478 69.8889 212.797C69.7989 212.817 69.6059 212.681 69.297 212.404Z" fill="#554559"/>
<path d="M85.9216 130.561C86.0003 130.581 86.2024 130.76 86.5115 131.112C86.4273 131.097 86.2362 130.909 85.9216 130.561Z" fill="#554559"/>
<path d="M94.7336 279.519C94.8819 279.308 95.2615 279.079 95.8581 278.797C95.7051 278.996 95.335 279.249 94.7336 279.519Z" fill="#909BA4"/>
<path d="M46.2373 44.1094C45.1069 43.4878 44.2439 42.9559 43.3618 42.4123C46.5016 38.3663 49.2859 38.2013 52.1772 41.9381C53.9438 44.2212 55.4109 46.7361 57.0125 49.147C56.7262 49.4276 56.4399 49.7082 56.1537 49.9889C52.9373 48.0589 49.7209 46.129 46.2373 44.1094Z" fill="#474462"/>
<path d="M17.8567 35.2756C19.4043 36.2771 20.9262 36.9198 22.004 38.0041C22.8592 38.8646 23.1703 40.2657 23.7231 41.4268C23.3398 41.7406 22.9566 42.0545 22.5734 42.3683C19.9279 40.6677 17.2824 38.9671 13.5209 36.549C15.6663 35.7981 16.6529 35.4528 17.8567 35.2756Z" fill="#474462"/>
<path d="M71.4943 57.6518C71.0467 55.4389 69.7854 53.1857 73.9962 52.8479C73.7267 55.5827 73.4798 58.089 73.2328 60.5953C72.8463 60.6088 72.4597 60.6222 72.0732 60.6356C71.884 59.7462 71.6949 58.8568 71.4943 57.6518Z" fill="#474462"/>
<path d="M5.72294 74.8199C5.61694 74.8599 5.42382 74.7254 5.10278 74.4669C5.24606 74.3268 5.46637 74.4276 5.72294 74.8199Z" fill="#494561"/>
<path d="M146.07 139.827C145.095 139.839 144.085 139.845 143.483 139.353C136.986 134.044 130.548 128.661 124.117 123.272C123.882 123.076 123.876 122.607 123.58 121.707C125.118 121.975 126.284 122.179 128.625 122.588C127.822 120.489 127.235 118.957 126.454 116.916C127.502 117.158 128.248 117.488 128.976 117.452C129.644 117.418 130.456 117.142 130.885 116.677C131.138 116.404 130.838 115.534 130.663 114.97C130.375 114.036 129.987 113.133 129.641 112.216C130.707 112.384 131.774 112.552 133.846 112.878C133.401 111.116 133.006 109.556 132.547 107.739C135.602 107.73 139.569 107.641 134.915 102.779C136.915 102.588 138.558 102.431 140.796 102.218C139.347 100.281 138.566 99.2367 137.164 97.3614C146.078 100.053 140.359 94.9138 140.513 93.2857C142.166 93.0926 143.517 92.9348 144.868 92.7771C144.411 91.5237 143.954 90.2702 143.341 88.588C143.775 87.2033 151.971 89.9552 146.397 84.0295C156.206 88.7864 161.782 97.009 165.211 106.952C158.883 117.831 152.554 128.711 146.07 139.827Z" fill="#D7AC75"/>
<path d="M161.622 55.2222C162.797 54.8912 163.964 54.5326 165.148 54.2389C165.959 54.0376 166.793 53.9267 167.617 53.7755C167.194 52.989 166.858 52.134 166.313 51.4441C166.03 51.0857 165.378 51.0189 164.769 50.2626C169.807 50.4416 172.295 49.5383 167.389 44.0992C169.937 44.6444 171.172 44.9087 173.073 45.3156C173.073 43.8597 173.073 42.5526 173.346 41.0215C176.079 42.4137 179.006 43.6144 180.899 45.7369C184.336 49.5908 187.159 53.9932 190.238 58.1666C190.238 58.1666 190.247 58.1834 190.253 58.1899C189.075 61.2706 187.891 64.345 186.431 67.7972C185.982 68.3692 185.831 68.58 185.704 68.8074C185.651 68.9559 185.599 69.1044 185.254 69.5826C184.165 71.5546 183.369 73.1968 182.572 74.839C182.487 75.0698 182.402 75.3007 182.131 75.8677C181.945 76.204 181.916 76.315 181.916 76.315C181.916 76.315 181.79 76.5124 181.585 76.7338C181.218 77.2841 181.057 77.6131 180.897 77.9421C180.841 78.0855 180.784 78.229 180.444 78.4526C178.92 76.0212 178.009 73.263 176.355 71.0626C174.417 68.4843 171.834 66.3915 169.275 64.0419C167.959 63.4286 166.899 62.8614 165.791 62.0102C164.369 59.5583 162.996 57.3902 161.622 55.2222Z" fill="#D6AC76"/>
<path d="M119.122 147.108C115.302 142.37 111.221 137.768 110.199 130.33C112.452 131.733 113.867 132.613 115.835 133.838C115.124 131.383 114.51 129.565 114.081 127.705C113.348 124.531 114.564 123.073 117.477 124.434C122.897 126.965 128.168 129.937 133.141 133.264C136.813 135.721 139.913 139.034 143.393 142.192C142.167 142.902 140.816 143.386 138.951 143.961C137.791 144.299 137.144 144.546 136.496 144.793C136.496 144.793 136.51 144.761 136.217 144.775C134.143 145.335 132.361 145.881 130.579 146.427C130.579 146.427 130.576 146.373 130.249 146.382C128.935 146.649 127.947 146.907 126.96 147.165C126.96 147.165 127.002 147.15 126.661 147.144C123.92 147.127 121.521 147.117 119.122 147.108Z" fill="#D7AD75"/>
<path d="M145.5 80.082C146.103 79.1685 146.707 78.255 147.696 76.9522C148.207 76.0372 148.333 75.5114 148.459 74.9857C148.459 74.9857 148.4 75.0104 148.636 75.0131C149.235 74.7666 149.599 74.5173 150.08 74.5392C150.772 76.5451 151.346 78.2799 151.946 80.2087C152.153 80.7416 152.334 81.0804 152.748 81.5459C155.176 81.248 157.37 80.8235 159.73 80.3513C159.896 80.3036 160.232 80.3782 160.422 80.538C161.061 80.9002 161.511 81.1026 161.934 81.3147C161.908 81.3244 161.889 81.2717 162.02 81.4274C162.349 81.766 162.548 81.949 162.724 82.1257C162.7 82.1193 162.731 82.0812 162.915 82.2477C163.845 83.4137 164.823 84.3153 165.293 85.4309C166.726 88.8358 168.758 91.2172 172.971 91.0613C173.834 92.3869 174.43 93.6183 175.371 94.4704C175.872 94.924 176.967 94.721 177.972 94.9062C178.361 95.6732 178.571 96.3482 178.781 97.0232C177.928 100.927 175.803 103.067 171.505 102.891C169.939 102.826 168.335 103.705 166.329 104.06C161.328 94.8512 156.497 85.965 146.294 81.7946C145.868 81.62 145.757 80.6705 145.5 80.082Z" fill="#D5AC78"/>
<path d="M172.848 90.8092C168.759 91.2169 166.726 88.8356 165.293 85.4307C164.823 84.315 163.845 83.4135 163.177 82.2753C162.666 78.2868 165.156 75.5923 166.847 72.6039C167.816 70.8909 169.052 69.2923 169.76 67.4828C170.134 66.5276 169.635 65.2306 169.53 64.0879C171.834 66.3913 174.417 68.4841 176.355 71.0624C178.009 73.2628 178.92 76.021 180.344 78.6609C180.83 79.5171 181.035 80.306 181.448 80.963C185.345 87.149 184.756 91.4881 179.009 96.975C178.571 96.3479 178.361 95.6729 178.05 94.645C178.944 92.5966 180.046 90.9523 180.891 89.1851C181.348 88.2289 181.916 86.7232 181.497 86.046C178.343 80.9543 174.955 76.0073 171.311 70.5185C169.797 72.9875 168.792 74.8125 167.607 76.512C166.153 78.5962 166.178 80.2279 167.88 82.3771C169.886 84.9105 171.222 87.975 172.848 90.8092Z" fill="#CBAA85"/>
<path d="M145.388 80.2275C145.758 80.6699 145.868 81.6195 146.295 81.794C156.497 85.9645 161.328 94.8507 166.029 104.191C165.909 105.165 165.671 105.915 165.322 106.808C161.781 97.0085 156.206 88.786 146.343 83.7776C144.897 82.8526 143.26 82.0315 145.388 80.2275Z" fill="#664D40"/>
<path d="M182.771 74.6967C183.368 73.1967 184.165 71.5545 185.154 69.7964C184.554 71.3052 183.762 72.9298 182.771 74.6967Z" fill="#CBAA85"/>
<path d="M119.103 147.293C121.521 147.117 123.919 147.126 126.681 147.135C124.615 147.411 122.186 147.688 119.407 147.909C119.057 147.853 119.084 147.48 119.103 147.293Z" fill="#877B64"/>
<path d="M130.923 146.493C132.36 145.881 134.142 145.335 136.234 144.78C134.785 145.367 133.027 145.963 130.923 146.493Z" fill="#877B64"/>
<path d="M127.27 147.195C127.947 146.906 128.935 146.648 130.249 146.405C129.577 146.688 128.579 146.957 127.27 147.195Z" fill="#877B64"/>
<path d="M136.76 144.842C137.144 144.545 137.791 144.298 138.712 144.091C138.332 144.385 137.678 144.638 136.76 144.842Z" fill="#877B64"/>
<path d="M181.032 77.8153C181.057 77.6133 181.218 77.2843 181.505 76.8198C181.477 77.019 181.323 77.3537 181.032 77.8153Z" fill="#CBAA85"/>
<path d="M185.869 68.6935C185.831 68.5795 185.982 68.3688 186.291 68.0354C186.295 68.1241 186.165 68.3521 185.869 68.6935Z" fill="#CBAA85"/>
<path d="M181.951 76.3161C181.915 76.3158 181.945 76.204 181.973 76.2015C182.002 76.199 181.986 76.3165 181.951 76.3161Z" fill="#CBAA85"/>
<path d="M194.384 217.687C194.177 217.235 193.969 216.782 193.613 216.126C196.137 213.705 198.584 211.115 201.526 209.348C208.448 205.193 215.594 201.409 222.687 197.544C223.448 197.13 224.461 197.179 225.659 197.002C226.195 197.672 226.43 198.354 226.451 199.275C223.613 200.63 220.823 201.466 218.395 202.911C210.321 207.718 202.378 212.744 194.384 217.687Z" fill="#673D4D"/>
<path d="M194.243 217.869C202.377 212.745 210.321 207.719 218.395 202.911C220.823 201.466 223.613 200.63 226.534 199.53C226.831 199.545 226.804 199.842 226.798 199.991C226.367 200.577 225.942 201.014 225.122 201.715C217.697 206.075 210.437 209.829 203.713 214.375C198.664 217.788 194.303 222.217 189.484 226.2C189.331 226.205 189.026 226.225 189.026 226.225C189.393 224.862 189.76 223.499 190.468 221.79C191.19 220.979 191.571 220.514 191.951 220.049C191.951 220.049 191.987 220.061 192.136 219.942C192.472 219.669 192.625 219.488 192.747 219.28C193.199 218.87 193.65 218.461 194.243 217.869Z" fill="#B64235"/>
<path d="M160.599 236.988C162.714 237.067 164.511 237.067 166.381 237.067C163.678 242.061 157.324 243.511 140.419 242.389C147.35 239.243 153.337 236.455 160.599 236.988Z" fill="#514455"/>
<path d="M92.0016 204.253C92.0382 203.907 92.0749 203.56 92.2904 202.734C92.1042 200.519 91.7393 198.785 91.3743 197.05C91.3743 197.05 91.3452 197.093 91.3545 196.785C91.0422 195.141 90.7207 193.806 90.462 192.411C90.5247 192.351 90.6506 192.231 90.6506 192.231C91.4073 190.792 92.1641 189.353 93.3993 187.005C94.396 194.34 95.278 200.905 96.1969 207.465C96.2813 208.068 96.6017 208.637 97.1564 209.43C97.5003 209.638 97.7448 209.826 97.7448 209.826C93.5072 216.715 97.191 221.544 102.163 226.267C101.323 226.284 99.8542 226.501 99.3321 225.898C96.1004 222.168 92.0154 218.934 91.2821 213.243C91.2875 212.595 91.3509 212.246 91.5661 211.442C92.1613 209.087 87.8534 208.253 90.5647 205.844C90.5647 205.844 90.5637 205.821 90.7174 205.727C91.0732 205.47 91.2287 205.272 91.3377 205.037C91.3377 205.037 91.3354 205.025 91.4868 204.931C91.8208 204.68 91.942 204.486 92.0016 204.253Z" fill="#8B7E4D"/>
<path d="M91.4933 156.296C91.523 154.93 91.613 153.842 91.7284 152.448C94.885 153.191 94.5887 155.069 94.0037 156.923C93.9631 157.052 92.4057 156.702 91.4933 156.296Z" fill="#504265"/>
<path d="M93.671 165.376C93.6094 165.434 93.5071 165.184 93.5071 165.184C93.5071 165.184 93.7446 165.099 93.7979 165.149C93.8511 165.2 93.7326 165.319 93.671 165.376Z" fill="#8A7E50"/>
<path d="M107.801 174.93C107.908 175.943 107.952 176.703 107.996 177.464C107.724 177.596 107.452 177.727 107.181 177.859C105.924 175.893 104.668 173.928 103.411 171.962C103.692 171.689 103.973 171.416 104.254 171.143C105.415 172.322 106.576 173.5 107.801 174.93Z" fill="#CFAF7A"/>
<path d="M94.423 145.986C93.8776 144.094 93.3558 141.889 92.8971 139.407C93.4556 141.311 93.9511 143.492 94.423 145.986Z" fill="#554559"/>
<path d="M192.389 233.647C190.853 234.685 189.318 235.724 187.557 236.73C186.235 235.852 185.138 235.007 183.821 234.018C183.044 230.712 185.046 229.222 187.863 228.286C189.651 230.271 191.02 231.959 192.389 233.647Z" fill="#C2A480"/>
<path d="M192.744 233.633C191.021 231.959 189.652 230.271 188.14 228.37C188.233 227.662 188.469 227.167 188.865 226.448C189.026 226.225 189.332 226.206 189.641 226.441C191.841 229.926 193.85 232.989 198.397 232.089C196.631 232.598 194.865 233.108 192.744 233.633Z" fill="#673D4D"/>
<path d="M191.743 220.151C191.571 220.514 191.19 220.979 190.615 221.562C190.791 221.205 191.162 220.729 191.743 220.151Z" fill="#673D4D"/>
<path d="M192.605 219.386C192.625 219.488 192.471 219.669 192.138 219.923C192.124 219.825 192.281 219.649 192.605 219.386Z" fill="#673D4D"/>
<path d="M190.283 57.8664C187.158 53.993 184.336 49.5907 180.898 45.7368C179.005 43.6143 176.079 42.4136 173.327 40.7387C173.658 39.968 174.279 39.256 175.138 38.4639C184.575 41.493 188.325 48.8485 190.283 57.8664Z" fill="#5E4951"/>
<path d="M161.344 55.2393C162.995 57.3902 164.369 59.5582 165.52 62.0094C164.937 62.2669 164.576 62.2413 164.204 61.9394C163.046 60.1899 161.9 58.7167 160.754 57.2435C159.66 58.4543 158.468 59.5918 157.498 60.8949C156.335 62.4564 155.363 64.1592 154.199 65.7073C154.089 65.6137 153.869 65.427 153.869 65.427C155.408 62.4755 156.855 59.4689 158.552 56.6117C158.969 55.9098 160.206 55.6951 161.344 55.2393Z" fill="#59493F"/>
<path d="M149.962 74.2676C149.598 74.5169 149.235 74.7662 148.648 75.0422C150.095 71.9608 151.766 68.8528 153.653 65.5857C153.87 65.4267 154.089 65.6134 154.092 65.9564C152.718 68.9554 151.34 71.6115 149.962 74.2676Z" fill="#59493F"/>
<path d="M148.282 75.1814C148.333 75.5112 148.207 76.0369 147.848 76.7159C147.778 76.3718 147.942 75.8746 148.282 75.1814Z" fill="#59493F"/>
<path d="M84.2363 185.1C84.2026 184.762 84.1689 184.424 84.0358 183.663C83.8028 183.03 83.632 182.856 83.424 182.719C83.424 182.719 83.3799 182.352 83.3779 181.831C83.368 178.659 83.36 176.007 83.3521 173.355C83.7281 171.61 84.1042 169.865 84.4803 168.121C84.7426 168.067 85.0048 168.014 85.2671 167.96C85.5418 170.064 85.7093 172.188 86.118 174.265C86.65 176.969 87.3299 179.647 88.026 182.314C88.8351 185.415 89.7307 188.493 90.6195 191.905C90.6502 192.23 90.5243 192.351 90.3051 192.365C90.0859 192.379 89.7659 192.315 89.7659 192.315C89.7659 192.315 89.7493 192.332 89.5994 192.1C86.312 190.69 85.1536 187.988 84.2363 185.1Z" fill="#8B7E4D"/>
<path d="M83.1578 173.547C83.3598 176.007 83.3678 178.659 83.3438 181.649C82.0128 181.752 79.9875 180.888 79.5474 181.396C78.0847 183.085 77.1917 185.267 76.45 187.487C72.0258 190.381 71.8287 190.341 70.7604 186.212C70.7608 185.911 71.0571 185.941 71.2054 185.947C71.7745 186.702 72.1954 187.451 72.5489 188.08C76.1105 183.176 79.5371 178.457 83.1578 173.547Z" fill="#554559"/>
<path d="M97.3811 209.538C97.5017 208.755 97.7412 208.071 97.9807 207.386C98.118 207.399 98.2552 207.412 98.3925 207.425C98.283 208.123 98.1734 208.821 97.9042 209.672C97.7446 209.826 97.5 209.637 97.3811 209.538Z" fill="#8B7E4D"/>
<path d="M88.2958 144.174C88.4681 144.148 88.6197 144.347 88.8365 144.729C88.7156 144.724 88.5066 144.552 88.2958 144.174Z" fill="#554559"/>
<path d="M79.3767 215.06C77.8336 213.433 76.3052 211.49 74.6975 209.283C78.1066 209.347 79.4677 211.446 79.3767 215.06Z" fill="#554559"/>
<path d="M84.1859 185.374C85.1537 187.988 86.3122 190.69 89.6035 192.091C84.8586 192.123 84.0453 191.158 84.1859 185.374Z" fill="#554559"/>
<path d="M90.2986 205.884C87.8534 208.252 92.1614 209.087 91.6049 211.178C87.0714 209.492 86.7821 208.412 90.2986 205.884Z" fill="#554559"/>
<path d="M74.6748 208.761C73.4503 207.829 72.2599 206.617 70.9121 205.204C73.1144 204.978 75.6314 204.773 74.6748 208.761Z" fill="#554559"/>
<path d="M91.3384 197.331C91.7391 198.784 92.104 200.519 92.3101 202.473C91.8684 200.999 91.5855 199.305 91.3384 197.331Z" fill="#554559"/>
<path d="M89.7604 192.619C89.7659 192.315 90.086 192.379 90.2425 192.425C90.7204 193.806 91.0419 195.141 91.3782 196.774C90.847 195.69 90.3009 194.306 89.7604 192.619Z" fill="#554559"/>
<path d="M67.571 189.795C67.547 189.794 67.595 189.797 67.571 189.795V189.795Z" fill="#554559"/>
<path d="M83.5181 182.873C83.6322 182.856 83.803 183.03 84.0015 183.41C83.898 183.41 83.7465 183.225 83.5181 182.873Z" fill="#554559"/>
<path d="M70.0432 184.533C70.1589 184.499 70.3383 184.652 70.5525 185.011C70.4523 185.02 70.2921 184.853 70.0432 184.533Z" fill="#554559"/>
<path d="M69.2614 183.739C69.375 183.707 69.5739 183.865 69.8383 184.231C69.7378 184.241 69.5521 184.071 69.2614 183.739Z" fill="#554559"/>
<path d="M69.7919 204.129C69.6902 204.132 69.4615 203.981 69.1545 203.635C69.2726 203.618 69.4688 203.797 69.7919 204.129Z" fill="#554559"/>
<path d="M70.5872 204.85C70.4842 204.865 70.2518 204.741 69.943 204.426C70.0776 204.377 70.2747 204.535 70.5872 204.85Z" fill="#554559"/>
<path d="M91.1934 205.158C91.2282 205.272 91.0726 205.47 90.7096 205.733C90.6985 205.634 90.8655 205.448 91.1934 205.158Z" fill="#554559"/>
<path d="M91.8817 204.372C91.9422 204.485 91.821 204.68 91.4931 204.932C91.47 204.837 91.6079 204.658 91.8817 204.372Z" fill="#554559"/>
<path d="M164.217 62.2156C164.577 62.2412 164.937 62.2669 165.568 62.2933C166.899 62.8613 167.959 63.4285 169.275 64.0419C169.635 65.2308 170.134 66.5278 169.76 67.483C169.052 69.2925 167.816 70.8911 166.847 72.6041C165.156 75.5925 162.666 78.287 162.994 82.109C162.732 82.0811 162.7 82.1192 162.639 81.9312C162.348 81.586 162.119 81.4288 161.89 81.2716C161.89 81.2716 161.908 81.3243 161.874 81.1294C161.305 80.7491 160.769 80.5636 160.233 80.3781C160.233 80.3781 159.896 80.3035 159.387 80.3573C156.757 80.7471 154.636 81.0831 152.514 81.4191C152.334 81.0803 152.153 80.7415 152.172 80.0706C155.016 74.9794 157.543 70.1489 160.377 65.5052C161.211 64.137 162.913 63.2974 164.217 62.2156Z" fill="#54455D"/>
<path d="M172.97 91.0611C171.221 87.975 169.886 84.9105 167.88 82.3772C166.178 80.2279 166.153 78.5963 167.606 76.512C168.791 74.8125 169.797 72.9875 171.311 70.5186C174.955 76.0073 178.342 80.9544 181.496 86.0461C181.916 86.7232 181.348 88.229 180.891 89.1852C180.045 90.9523 178.944 92.5967 177.871 94.5531C176.967 94.7208 175.871 94.9238 175.371 94.4702C174.43 93.6181 173.833 92.3867 172.97 91.0611Z" fill="#56455C"/>
<path d="M164.204 61.9396C162.912 63.2976 161.211 64.1372 160.376 65.5054C157.543 70.1491 155.015 74.9796 152.145 79.8767C151.346 78.28 150.772 76.5453 150.08 74.5393C151.34 71.612 152.718 68.9559 154.202 66.0504C155.363 64.1594 156.336 62.4566 157.498 60.8951C158.468 59.592 159.66 58.4545 160.754 57.2437C161.9 58.7169 163.046 60.1901 164.204 61.9396Z" fill="#887E52"/>
<path d="M152.748 81.5459C154.636 81.0832 156.757 80.7472 159.221 80.405C157.37 80.8235 155.176 81.248 152.748 81.5459Z" fill="#CBAA85"/>
<path d="M160.422 80.5378C160.768 80.5636 161.304 80.749 161.901 81.1197C161.511 81.1025 161.062 80.9001 160.422 80.5378Z" fill="#CBAA85"/>
<path d="M162.02 81.427C162.118 81.4285 162.348 81.5857 162.662 81.9373C162.548 81.9487 162.349 81.7657 162.02 81.427Z" fill="#CBAA85"/>
<path d="M334.79 219.964C333.035 220.102 331.434 222.206 329.636 223.495C332.942 225.454 336.235 227.408 339.529 229.36C331.152 229.871 323.6 223.173 313.671 228.412L313.776 228.465C327.122 235.245 339.639 241.604 352.491 248.6C352.842 250.086 352.857 250.935 352.871 251.781V251.782C352.86 254.736 351.384 254.176 349.608 253.201C344.925 250.631 340.214 248.113 334.839 245.292C328.79 242.323 323.423 239.62 318.014 237.005C317.812 236.907 317.202 237.655 316.944 238.168C317.331 238.531 317.572 238.712 317.823 238.878C317.817 238.881 317.823 238.869 317.998 239.056C318.418 239.481 318.677 239.704 318.909 239.725C318.869 239.54 319.22 239.4 319.25 239.803C319.817 242.022 320.354 243.838 320.891 245.655L320.895 245.668C317.005 243.551 313.114 241.437 309.224 239.32L308.521 240.446C315.729 245.931 322.937 251.415 330.145 256.9L329.733 257.658C328.828 257.421 327.924 257.185 326.567 256.643C325.645 256.036 325.175 255.733 324.603 255.298C324.224 255.119 323.947 255.072 323.67 255.026C323.841 255.297 324.011 255.569 324.219 256.141C324.669 256.844 325.082 257.247 325.494 257.65L325.502 257.658L325.555 257.698C332.126 262.805 338.698 267.911 345.219 273.602C345.017 274.383 344.865 274.581 344.713 274.776C328.806 265.401 312.898 256.024 297.198 246.772C296.583 249.103 303.051 250.881 299.057 255.684C307.69 266.835 316.237 278.944 320.762 293.813C320.525 294.508 320.383 294.652 320.24 294.794C312.619 284.912 305.007 275.021 297.365 265.154C296.414 263.926 295.305 262.819 293.546 262.006L303.129 290.416C302.957 290.457 302.784 290.497 302.612 290.539L297.247 283.113C296.807 283.429 296.367 283.748 295.927 284.064L302.046 304.457C301.416 304.715 300.786 304.973 300.155 305.23C295.12 293.932 290.085 282.636 284.978 271.175L284.587 273.948C284.284 274.017 283.981 274.083 283.678 274.152L280.329 265.463C279.055 266.267 277.438 267.291 276.214 268.064V294.523L274.999 294.69C274.409 292.286 273.819 289.88 273.163 286.621C272.347 280.114 271.597 274.445 270.848 268.783L270.821 268.577C270.63 268.603 270.441 268.626 270.251 268.651L270.25 268.654C270.127 269.331 270.004 270.01 269.73 270.383C268.972 268.887 268.367 267.689 267.761 266.496L266.442 285.25C266.23 285.269 266.017 285.286 265.804 285.306L263.242 256.364C262.448 256.217 260.922 255.582 260.628 255.944C259.337 257.537 257.804 259.301 257.441 261.211C255.837 269.65 254.641 278.166 253.214 286.64C252.897 288.525 252.242 290.353 251.743 292.207C251.266 292.203 250.789 292.197 250.312 292.193C250.537 288.561 251.288 284.866 250.837 281.321C250.394 277.841 248.729 274.516 247.567 271.023C247.048 271.636 246.214 272.622 244.48 274.672L244.482 274.659C244.979 270.754 245.332 267.982 245.899 264.667C246.229 263.678 246.343 263.235 246.457 262.79C246.22 262.758 245.983 262.722 245.746 262.69V264.396C244.939 265.163 244.132 265.929 242.453 267.525C242.843 263.964 243.119 261.449 243.395 258.932L242.476 258.591C240.659 261.511 238.805 264.409 237.036 267.358C235.349 270.169 233.75 273.036 231.358 275.576C229.676 267.124 236.121 261.14 237.889 253.528C227.763 261.474 217.237 268.758 210.052 280.058C209.072 279.611 208.672 279.214 208.273 278.817L208.273 278.816C213.166 271.541 218.059 264.268 222.397 257.818C217.914 250.464 226.369 249.435 227.591 243.787C218.824 247.23 210.919 250.335 203.013 253.439L202.442 252.105C210.182 246.606 217.923 241.109 225.663 235.611C225.491 235.236 225.319 234.86 225.146 234.485C221.934 234.908 218.722 235.332 215.511 235.756C215.287 235.356 215.064 234.955 214.84 234.555C217.041 233.086 219.169 231.49 221.462 230.181C223.848 228.818 226.392 227.736 229.541 226.2L224.898 223.116C226.43 222.193 227.883 221.316 230.519 219.73C225.947 220.417 222.595 220.92 218.834 221.097C219.057 220.057 219.689 219.346 220.717 218.674C224.534 217.149 227.957 215.581 232.174 213.649L232.206 213.635C228.75 213.635 226.333 213.632 223.809 213.259C224.439 211.359 224.848 209.516 225.969 208.361C231.331 202.836 236.886 197.499 242.63 192.357L242.813 192.536C245.406 195.081 247.752 197.382 249.784 199.824C246.949 201.355 244.441 202.742 241.789 204.209C241.79 204.21 242.482 204.866 243.21 205.555C242.426 205.778 241.607 206.011 241.632 206.004L240.717 214.073C242.195 214.355 243.94 214.685 246.896 215.248C243.927 216.727 242.119 217.63 239.129 219.12C241.703 220.662 243.629 221.811 246.18 223.339L239.757 230.114L240.495 231.322C241.798 230.932 243.155 230.668 244.392 230.129C246.978 229.003 248.752 229.116 248.823 232.504C248.851 232.493 248.835 232.509 248.823 232.519C248.823 232.514 248.823 232.509 248.823 232.504C248.799 232.513 248.747 232.54 248.639 232.604C248.55 233.323 248.702 233.9 248.957 234.763C249.688 235.542 250.402 236.528 250.928 236.436C253.14 236.05 255.294 235.342 258.298 234.526C258.271 234.825 258.378 233.638 258.778 232.363C260.025 232.616 261.683 232.793 261.812 233.333C262.447 236.003 262.678 238.769 263.052 241.501C263.327 241.585 263.602 241.67 263.877 241.754C264.97 238.684 266.062 235.615 266.911 233.229L266.943 233.251C269.086 234.757 270.61 235.828 272.31 237.22C274.429 241.776 276.374 246.011 278.318 250.244L278.334 250.28C278.653 250.189 278.972 250.097 279.291 250.005C279.021 248.076 278.752 246.147 278.539 243.858C279.322 242.291 280.048 241.086 281.029 239.773C281.503 239.374 281.724 239.081 282.097 238.499C282.427 237.356 282.604 236.5 282.797 235.67C282.814 235.694 282.756 235.691 282.954 235.566C283.409 235.263 283.644 235.062 284.097 234.767C284.336 234.701 284.825 234.613 285.134 234.615C285.635 234.611 285.844 234.606 286.015 234.611C286 234.602 286.01 234.57 286.093 234.641C286.195 234.728 286.561 234.864 286.561 234.864C286.561 234.864 286.951 234.824 287.244 234.566C288.259 231.253 288.983 228.192 289.973 224.005L289.981 223.974C292.007 223.351 295.84 222.173 301.341 220.481C297.025 217.13 293.424 214.333 289.848 211.557C291.512 210.962 293.342 210.309 295.171 209.654L295.11 208.587C292.986 208.313 290.862 208.037 288.738 207.762C289.014 207.414 289.291 207.07 289.567 206.722L283.803 202.968C285.702 201.565 287.326 200.365 288.951 199.166C288.758 198.898 288.565 198.627 288.372 198.359C287.246 198.605 286.121 198.853 284.961 199.106L285.629 189.662L285.588 189.659C283.945 189.502 281.835 189.302 279.974 188.923C280.416 188.156 280.607 187.57 281.025 186.804C281.213 186.175 281.175 185.726 281.137 185.277C280.585 185.44 280.033 185.604 279.223 185.563C278.859 184.495 278.754 183.632 278.875 182.63C278.587 182.109 278.072 181.725 277.557 180.954C277.917 178.599 278.28 176.632 278.643 174.663L278.645 174.647C278.293 174.543 277.941 174.436 277.589 174.331C276.203 177.807 274.816 181.286 273.303 185.087C272.54 185.255 271.384 185.172 271.349 184.927C271.07 183.017 271.007 181.074 270.828 178.412L266.645 187.626C265.099 186.25 263.758 185.057 263.165 184.53C259.724 187.169 256.706 189.485 253.21 192.167C253.112 192.565 252.727 194.119 252.037 195.613C249.364 193.847 246.997 192.139 244.928 190.19C246.341 188.025 247.745 186.212 248.501 184.158C249.574 181.241 248.372 179.68 245.015 179.483C242.785 179.908 240.716 179.936 239.188 180.861C236.305 182.608 234.152 182.391 231.811 179.958C228.651 176.673 225.237 173.634 221.94 170.091C221.693 168.291 221.439 166.887 221.102 165.029C229.094 168.438 229.094 168.438 231.25 164.702L231.25 164.702C235.558 166.516 238.701 165.064 241.764 162.494C242.388 162.697 242.805 162.822 243.223 162.944C241.827 155.197 246.957 160.73 249.569 160.16L249.569 160.152C249.368 158.37 249.181 156.713 249.376 155.075C250.98 156.1 252.321 156.989 253.396 158.131C255.006 159.84 256.43 161.727 258.023 163.523C258.113 163.509 258.265 163.608 258.444 163.906C260.307 165.461 261.992 166.717 264.174 168.344C264.174 163.917 264.174 160.612 264.381 157.454C264.739 157.687 264.884 157.828 265.043 157.844C265.198 157.861 265.486 157.786 265.513 157.692C265.84 156.563 266.13 155.427 266.437 154.265C273.616 155.555 269.176 163.379 273.586 166.017C275.818 152.417 276.353 148.135 277.137 145.334L277.142 145.34C277.624 145.986 278.673 147.394 280.049 148.973C281.864 149.288 279.273 167.579 281.025 167.992C288.372 193.562 308.521 211.557 334.79 219.964Z" fill="#D9AA76"/>
<path d="M321.02 245.925C320.242 243.852 319.703 242.031 319.481 239.963C324.359 242.284 328.921 244.853 333.482 247.422C333.273 248.223 333.063 249.025 332.733 250.507C332.61 251.69 332.606 252.193 332.603 252.696C328.822 250.523 325.04 248.35 321.02 245.925Z" fill="#D0A685"/>
<path d="M332.873 252.923C332.605 252.193 332.609 251.691 332.617 250.811C336.044 252.315 339.467 254.196 342.889 256.076C342.494 256.758 342.099 257.44 341.705 258.122C338.851 256.464 335.998 254.807 332.873 252.923Z" fill="#B79985"/>
<path d="M353.167 251.802C352.741 250.939 352.727 250.093 352.679 248.823C356.284 249.612 359.923 250.822 363.562 252.032C363.413 252.574 363.263 253.115 363.114 253.657C359.935 253.044 356.757 252.431 353.167 251.802Z" fill="#BF9E7B"/>
<path d="M269.614 270.386C269.704 275.121 269.641 279.553 269.242 284.288C268.509 278.885 268.112 273.179 267.68 266.988C268.251 267.695 268.857 268.889 269.614 270.386Z" fill="#EBA474"/>
<path d="M207.883 279.051C208.557 279.218 208.956 279.616 209.674 280.292C207.573 282.91 205.154 285.251 202.386 287.613C202.038 287.636 202.065 287.662 202.065 287.662C203.913 284.868 205.76 282.074 207.883 279.051Z" fill="#BF9E7B"/>
<path d="M345.293 273.911C347.106 274.579 348.68 275.531 350.253 276.482C349.955 276.982 349.657 277.483 349.358 277.983C347.895 277.085 346.432 276.188 344.784 275.035C344.751 274.584 344.902 274.389 345.293 273.911Z" fill="#D9AA76"/>
<path d="M322.752 298.568C321.952 297.513 321.152 296.458 320.239 295.1C320.268 294.656 320.41 294.513 320.774 294.165C321.765 295.048 322.535 296.137 323.24 297.708C323.034 298.316 322.893 298.442 322.752 298.568Z" fill="#D9AA76"/>
<path d="M218.081 258.064C217.603 258.224 217.125 258.384 216.648 258.544C216.8 258.136 216.952 257.727 217.445 257.432C217.885 257.718 217.983 257.891 218.081 258.064Z" fill="#D9AA76"/>
<path d="M202.021 287.623C202.006 287.609 202.021 287.716 202.043 287.689C202.065 287.662 202.037 287.636 202.021 287.623Z" fill="#BF9E7B"/>
<path d="M365.892 254.239C365.858 254.252 365.926 254.226 365.892 254.239V254.239Z" fill="#BF9E7B"/>
<path d="M323.393 298.011C323.433 298.199 323.254 298.567 322.913 298.751C322.892 298.442 323.033 298.316 323.393 298.011Z" fill="#D9AA76"/>
<path d="M217.675 257.267C217.925 256.976 218.288 256.963 218.651 256.949C218.614 257.217 218.576 257.485 218.311 257.908C217.984 257.89 217.886 257.717 217.675 257.267Z" fill="#D9AA76"/>
<path d="M248.686 232.541C248.642 229.122 246.867 229.006 244.277 230.134C243.04 230.673 241.683 230.939 240.38 231.328C240.134 230.926 239.888 230.523 239.642 230.12C241.857 227.784 244.073 225.447 246.065 223.345C243.515 221.818 241.589 220.665 239.014 219.123C242.005 217.633 243.812 216.733 246.781 215.253C243.825 214.69 242.081 214.358 240.602 214.076C240.905 211.407 241.19 208.896 241.517 206.01C241.492 206.017 242.312 205.783 243.095 205.559C242.367 204.87 241.675 204.216 241.674 204.215C244.326 202.748 246.834 201.361 249.98 199.986C253.186 201.926 255.752 203.854 258.185 206.121C258.051 210.771 258.051 215.082 258.051 220.509C260.058 219.523 261.758 218.688 262.54 218.304C265.67 219.615 268.371 220.747 271.442 221.932C273.469 222.218 275.125 222.451 277.143 222.734C277.908 218.769 278.606 215.152 279.373 211.472C279.442 211.41 279.565 211.269 279.85 211.229C281.404 207.095 279.58 204.21 276.531 201.505C273.586 200.267 270.583 199.351 267.191 198.316C266.942 197.644 266.417 196.225 265.908 194.851C263.338 196.718 261.073 198.363 258.51 200.025C256.218 198.588 254.223 197.132 252.228 195.677C252.612 194.123 252.997 192.569 253.095 192.172C256.592 189.489 259.609 187.175 263.05 184.536C263.643 185.063 264.984 186.255 266.531 187.631C267.775 184.889 269.052 182.077 270.714 178.417C270.892 181.08 270.956 183.022 271.234 184.932C271.27 185.177 272.425 185.258 273.548 185.157C275.86 185.566 277.686 186.234 279.512 186.902C279.512 186.902 279.513 186.903 279.519 187.271C279.552 188.128 279.58 188.617 279.607 189.106C281.736 189.308 283.865 189.51 285.514 189.667C285.293 192.791 285.075 195.874 284.846 199.111C286.007 198.858 287.132 198.611 288.257 198.365C288.45 198.633 288.643 198.901 288.836 199.169C287.212 200.369 285.587 201.569 283.688 202.971C285.58 204.203 287.516 205.464 289.452 206.725C289.176 207.073 288.9 207.421 288.624 207.769C290.748 208.043 292.871 208.318 294.995 208.593C295.016 208.948 295.036 209.303 295.057 209.658C293.227 210.313 291.397 210.967 289.733 211.563C293.309 214.339 296.91 217.134 301.227 220.484C295.725 222.177 291.892 223.357 289.866 223.98C288.872 228.183 288.147 231.248 286.892 234.492C286.362 234.673 285.876 234.559 285.876 234.559C285.876 234.559 285.884 234.627 285.798 234.43C285.379 234.361 285.044 234.489 284.71 234.618C284.71 234.618 284.222 234.705 283.734 234.812C282.944 235.099 282.742 235.358 282.641 235.697C282.641 235.697 282.699 235.7 282.409 235.892C282.022 236.987 281.926 237.89 281.829 238.792C281.609 239.085 281.389 239.378 280.749 239.451C278.966 236.713 277.603 234.195 276.241 231.677C275.957 231.735 275.673 231.794 275.388 231.852C275.388 233.112 275.388 234.371 275.027 235.686C273.783 236.128 272.901 236.515 272.018 236.902C270.487 235.826 268.956 234.75 266.796 233.232C265.947 235.619 264.855 238.689 263.763 241.759C263.488 241.675 263.213 241.591 262.937 241.507C262.564 238.775 262.333 236.008 261.697 233.338C261.568 232.798 259.91 232.622 258.627 232.097C257.093 231.915 255.89 231.915 254.492 231.915C254.492 231.056 254.492 230.143 254.492 229.246C252.452 230.404 250.569 231.472 248.686 232.541Z" fill="#C24329"/>
<path d="M212.565 173.035C210.58 166.796 204.855 164.012 200.577 159.868C199.845 159.159 200.088 157.444 199.88 156.194C201.298 156.419 203.057 156.186 204.077 156.945C209.853 161.241 215.451 165.775 221.464 170.36C225.122 173.637 228.536 176.679 231.697 179.964C234.037 182.397 236.19 182.615 239.074 180.868C240.601 179.943 242.67 179.913 244.9 179.487C246.321 186.24 240.964 188.969 237.008 192.514C232.374 196.667 227.607 200.672 222.565 204.457C222.187 203.313 222.143 202.452 222.107 201.392C222.116 201.193 222.151 200.794 222.04 200.454C221.614 199.201 221.3 198.289 220.986 197.377C220.986 197.377 221.074 197.383 221.296 197.259C221.772 196.91 222.008 196.669 222.226 196.409C222.816 195.928 223.405 195.447 224.537 194.657C227.688 191.703 230.296 189.056 233.337 185.972C227.018 181.008 221.708 176.711 216.212 172.667C215.481 172.13 213.804 172.881 212.565 173.035Z" fill="#5A4257"/>
<path d="M231.135 164.706C229.65 162.184 228.567 159.747 227.204 156.68C228.909 157.532 230.143 158.148 232.879 159.515C231.508 154.908 230.488 151.48 229.468 148.051C229.789 147.849 230.109 147.646 230.43 147.444C234.024 152.199 237.618 156.955 241.327 162.064C238.586 165.069 235.443 166.52 231.135 164.706Z" fill="#C8A17E"/>
<path d="M263.649 157.14C264.017 157.234 264.069 157.259 264.064 157.286C264.059 160.618 264.059 163.922 264.059 168.349C261.877 166.722 260.192 165.466 258.672 163.708C257.893 158.444 256.948 153.683 256.004 148.921C257.315 150.004 258.784 150.947 259.894 152.207C261.187 153.675 262.166 155.421 263.649 157.14Z" fill="#BDA083"/>
<path d="M248.708 232.524C250.57 231.472 252.453 230.403 254.492 229.246C254.492 230.142 254.492 231.055 254.492 231.915C255.891 231.915 257.094 231.915 258.334 232.187C258.264 233.644 258.157 234.829 258.184 234.53C255.18 235.346 253.025 236.055 250.814 236.442C250.288 236.533 249.574 235.545 248.927 234.425C248.86 233.352 248.813 232.908 248.766 232.464C248.766 232.464 248.731 232.507 248.708 232.524Z" fill="#EEA272"/>
<path d="M272.194 237.225C272.9 236.515 273.782 236.129 275.313 235.962C276.763 238.863 277.565 241.544 278.367 244.224C278.636 246.153 278.906 248.082 279.175 250.01C278.856 250.102 278.538 250.193 278.219 250.285C276.269 246.039 274.32 241.794 272.194 237.225Z" fill="#B54A25"/>
<path d="M279.512 186.901C277.686 186.233 275.86 185.565 273.674 184.831C274.701 181.289 276.088 177.813 277.475 174.337C277.827 174.441 278.179 174.545 278.531 174.649C278.167 176.624 277.804 178.598 277.607 181.208C278.028 182.154 278.281 182.463 278.534 182.772C278.639 183.636 278.745 184.499 279.15 185.848C279.47 186.523 279.491 186.712 279.512 186.901Z" fill="#B54A25"/>
<path d="M309.101 157.171C312.324 153.174 315.8 149.509 319.276 145.844C319.46 145.948 319.643 146.053 319.827 146.157C317.732 149.414 315.637 152.671 313.221 156.478C312.711 157.446 312.521 157.866 312.331 158.285C312.331 158.285 312.399 158.251 312.117 158.347C311.418 158.852 311.001 159.261 310.584 159.67C310.174 158.948 309.763 158.226 309.101 157.171Z" fill="#C0A091"/>
<path d="M249.732 149.193C252.344 153.446 254.941 158.097 257.678 163.144C256.315 161.73 254.891 159.845 253.28 158.135C252.206 156.994 250.865 156.103 249.261 155.079C248.77 154.661 248.662 154.265 248.499 153.568C248.869 152.041 249.293 150.816 249.732 149.193Z" fill="#BDA083"/>
<path d="M278.424 243.863C277.566 241.543 276.764 238.863 275.675 235.906C275.388 234.371 275.388 233.111 275.388 231.852C275.673 231.793 275.957 231.735 276.241 231.676C277.603 234.194 278.966 236.713 280.494 239.557C279.933 241.09 279.207 242.297 278.424 243.863Z" fill="#EBA474"/>
<path d="M279.512 186.902C279.49 186.712 279.469 186.523 279.407 186.053C279.918 185.608 280.47 185.444 281.021 185.28C281.06 185.729 281.098 186.178 280.618 186.782C279.903 186.925 279.708 186.914 279.513 186.902L279.512 186.902Z" fill="#C24329"/>
<path d="M281.982 238.502C281.925 237.889 282.022 236.987 282.392 235.868C282.489 236.506 282.312 237.359 281.982 238.502Z" fill="#EBA474"/>
<path d="M278.76 182.634C278.281 182.463 278.028 182.154 277.609 181.595C277.958 181.729 278.472 182.113 278.76 182.634Z" fill="#C24329"/>
<path d="M245.613 264.386C245.631 263.832 245.631 263.264 245.631 262.696C245.868 262.728 246.105 262.761 246.342 262.793C246.228 263.238 246.114 263.682 245.78 264.237C245.56 264.348 245.595 264.373 245.613 264.386Z" fill="#90402D"/>
<path d="M248.523 232.607C248.811 232.908 248.859 233.352 248.822 234.138C248.586 233.902 248.434 233.326 248.523 232.607Z" fill="#C24329"/>
<path d="M232.526 219.133C232.806 219.15 232.953 219.276 233.099 219.401C232.864 219.348 232.628 219.295 232.526 219.133Z" fill="#90402D"/>
<path d="M279.519 187.27C279.708 186.914 279.903 186.925 280.391 186.961C280.492 187.573 280.301 188.159 279.859 188.925C279.579 188.617 279.552 188.127 279.519 187.27Z" fill="#B54A25"/>
<path d="M325.61 257.469C324.972 257.257 324.557 256.852 324.237 256.045C324.332 255.644 324.59 255.434 324.59 255.434C325.06 255.737 325.529 256.039 326.121 256.597C326.106 256.993 325.969 257.134 325.61 257.469Z" fill="#90402D"/>
<path d="M324.2 255.743C323.897 255.572 323.726 255.302 323.556 255.032C323.833 255.077 324.109 255.123 324.489 255.301C324.591 255.434 324.333 255.644 324.2 255.743Z" fill="#90402D"/>
<path d="M292.765 259.615C292.729 259.632 292.8 259.598 292.765 259.615V259.615Z" fill="#90402D"/>
<path d="M285.977 234.646C285.874 234.558 286.361 234.672 286.598 234.749C286.835 234.826 286.445 234.867 286.445 234.867C286.445 234.867 286.079 234.733 285.977 234.646Z" fill="#EBA474"/>
<path d="M282.84 235.572C282.742 235.359 282.944 235.1 283.495 234.878C283.53 235.066 283.294 235.269 282.84 235.572Z" fill="#EBA474"/>
<path d="M285.02 234.62C285.045 234.489 285.379 234.361 285.831 234.418C285.742 234.609 285.535 234.616 285.02 234.62Z" fill="#EBA474"/>
<path d="M316.828 238.172C317 238.052 317.267 238.206 317.59 238.678C317.456 238.718 317.216 238.535 316.828 238.172Z" fill="#D0A685"/>
<path d="M317.883 239.062C318.049 239.035 318.391 239.195 318.783 239.635C318.562 239.71 318.303 239.488 317.883 239.062Z" fill="#D0A685"/>
<path d="M312.542 158.021C312.522 157.866 312.711 157.446 313.177 156.814C313.219 156.987 312.985 157.372 312.542 158.021Z" fill="#5B454D"/>
<path d="M212.73 173.364C213.804 172.88 215.481 172.13 216.211 172.667C221.708 176.71 227.018 181.007 233.336 185.971C230.296 189.056 227.688 191.702 224.713 194.43C217.344 193.794 210.342 193.076 203.34 192.359C203.373 191.748 203.405 191.137 203.437 190.526C209.925 190.526 216.413 190.526 222.901 190.526C223.001 189.953 223.101 189.381 223.202 188.808C217.012 187.13 210.823 185.451 204.633 183.773C204.701 183.456 204.77 183.139 204.838 182.822C206.87 182.822 208.901 182.822 211.483 182.822C210.446 181.734 209.814 181.07 208.855 180.064C211.178 179.338 213.243 178.692 215.672 177.932C214.684 176.424 213.789 175.059 212.73 173.364Z" fill="#CDA67F"/>
<path d="M206.886 178.944C206.87 178.924 206.902 178.964 206.886 178.944V178.944Z" fill="#CDA67F"/>
<path d="M222.012 196.549C222.008 196.668 221.772 196.91 221.322 197.294C221.3 197.156 221.524 196.9 222.012 196.549Z" fill="#673D4D"/>
<path d="M258.184 206.121C261.096 205.558 261.096 205.558 258.967 200.325C261.072 198.362 263.338 196.717 265.908 194.851C266.416 196.224 266.941 197.643 267.19 198.316C270.582 199.35 273.586 200.266 276.398 201.793C277.326 205.359 278.445 208.314 279.564 211.268C279.564 211.268 279.441 211.409 279.136 211.681C276.245 215.262 273.658 218.57 271.071 221.878C268.371 220.746 265.67 219.615 262.54 218.303C261.758 218.687 260.058 219.522 258.05 220.509C258.05 215.082 258.05 210.771 258.184 206.121Z" fill="#8E9FA7"/>
<path d="M271.441 221.931C273.658 218.57 276.245 215.262 279.067 211.744C278.605 215.151 277.907 218.768 277.142 222.734C275.125 222.45 273.468 222.217 271.441 221.931Z" fill="#A98079"/>
<path d="M279.849 211.229C278.444 208.314 277.325 205.359 276.339 202.116C279.579 204.21 281.403 207.095 279.849 211.229Z" fill="#A98079"/>
<path d="M273.677 188.498C273.672 188.478 273.683 188.518 273.677 188.498V188.498Z" fill="#B54A25"/>
<path d="M287.812 143.313L281.746 168.467L279.546 173.105L282.995 181.549L287.812 192.015L310.766 217.348L334.493 219.37H340.32L334.493 217.348L319.686 213.364H345.553L336.931 209.498L318.615 206.822L312.015 203.671L344.542 200.46L323.848 197.665L322.243 195.227L334.493 186.961V185.355L322.243 186.961L318.615 185.355L336.931 177.09V175.9L306.544 185.355V181.549L318.615 162.045V159.785L308.744 168.467L306.544 167.04L310.766 159.785L308.744 157.406L301.073 165.434L297.862 163.65L312.966 138.08V135.047L290.191 171.083L286.206 173.105L290.191 162.045L282.995 174.116L291.796 141.291L287.812 143.313Z" fill="#D9AA76" stroke="#D9AA76" stroke-width="0.687183"/>
<path d="M258.318 205.782C255.752 203.854 253.186 201.926 250.308 199.841C247.589 197.33 245.181 194.976 242.516 192.36C242.837 191.611 243.416 191.123 244.255 190.537C246.882 192.144 249.25 193.85 251.923 195.616C254.223 197.132 256.218 198.587 258.67 200.343C261.097 205.558 261.097 205.558 258.318 205.782Z" fill="#6E454A"/>
<path d="M263.83 206.054L258.954 200.702L258.003 205.935L262.344 207.719L263.414 207.422L263.83 206.054Z" fill="#6E454A"/>
<path d="M265.438 206.947L268.232 208.136L268.47 209.504L268.232 211.407H265.438L263.772 209.98L265.438 206.947Z" fill="#C24329"/>
<rect x="23" y="305" width="427" height="7" fill="#504264"/>
</svg>
