<?xml version="1.0" encoding="UTF-8" standalone="no"?>
<svg
   xmlns:dc="http://purl.org/dc/elements/1.1/"
   xmlns:cc="http://creativecommons.org/ns#"
   xmlns:rdf="http://www.w3.org/1999/02/22-rdf-syntax-ns#"
   xmlns:svg="http://www.w3.org/2000/svg"
   xmlns="http://www.w3.org/2000/svg"
   viewBox="0 0 348.44 95.360001"
   height="95.360001"
   width="348.44"
   xml:space="preserve"
   id="svg2"
   version="1.1"><metadata
     id="metadata8"><rdf:RDF><cc:Work
         rdf:about=""><dc:format>image/svg+xml</dc:format><dc:type
           rdf:resource="http://purl.org/dc/dcmitype/StillImage" /></cc:Work></rdf:RDF></metadata><defs
     id="defs6" /><g
     transform="matrix(1.3333333,0,0,-1.3333333,0,95.36)"
     id="g10"><g
       transform="scale(0.1)"
       id="g12"><path
         id="path14"
         style="fill:#222638;fill-opacity:1;fill-rule:nonzero;stroke:none"
         d="M 63.6914,63.6914 V 651.523 H 2549.65 V 63.6914 Z M 0,715.215 V 0 H 2613.34 V 715.215 H 0" /><path
         id="path16"
         style="fill:#222638;fill-opacity:1;fill-rule:nonzero;stroke:none"
         d="M 456.418,442.887 V 272.449 H 285.984 V 442.887 Z M 227.887,214.348 H 514.516 V 500.977 H 227.887 V 214.348" /><path
         id="path18"
         style="fill:#222638;fill-opacity:1;fill-rule:nonzero;stroke:none"
         d="m 950.531,507.602 v -58.426 h 81.159 V 206.477 h 59.95 v 242.699 h 81.15 v 58.426 H 950.531" /><path
         id="path20"
         style="fill:#222638;fill-opacity:1;fill-rule:nonzero;stroke:none"
         d="M 848.539,507.602 H 788.59 l 0.004,-201.536 c 0.058,-2.003 0.238,-19.961 -10.996,-31.996 -8.977,-9.605 -23.789,-14.89 -41.707,-14.89 -16.883,0 -30.719,5.09 -40.039,14.734 -12.399,12.68 -12.684,32.668 -12.672,34.926 V 507.602 H 623.227 V 311.184 c -0.047,-14.094 2.679,-49.817 29.035,-76.938 19.89,-21.211 48.027,-31.961 83.629,-31.961 36.769,0 65.418,10.879 85.14,32.344 29.047,30.891 27.742,71.035 27.508,75.242 v 197.731" /><path
         id="path22"
         style="fill:#ec364f;fill-opacity:1;fill-rule:nonzero;stroke:none"
         d="m 1353.88,301.875 -16.19,56.059 h -62.39 l 44.48,-151.457 h 68.74 l 88.43,301.121 h -62.68 l -60.39,-205.723" /><path
         id="path24"
         style="fill:#ec364f;fill-opacity:1;fill-rule:nonzero;stroke:none"
         d="m 1728.82,357.613 c 0,-35.933 -5.1,-61.168 -15.16,-75.004 -9.2,-12.66 -25.11,-19.621 -44.79,-19.621 -19.68,0 -35.58,6.961 -44.78,19.621 -10.06,13.829 -15.16,39.063 -15.16,75.004 0,36.164 4.96,60.575 15.16,74.614 9.43,12.953 25.75,20.382 44.78,20.382 19.04,0 35.36,-7.429 44.79,-20.379 10.2,-14.031 15.16,-38.441 15.16,-74.617 z m 33.53,110.235 c -11.3,15.351 -26.15,27.468 -42.94,35.027 -14.94,6.832 -32.42,10.441 -50.54,10.441 -17.87,0 -35.8,-3.703 -50.47,-10.41 -16.84,-7.578 -31.69,-19.679 -42.93,-34.957 -10.61,-14.156 -18.61,-32.691 -23.12,-53.578 -3.38,-15.457 -4.89,-32.961 -4.89,-56.758 0,-23.773 1.55,-41.929 4.89,-57.133 4.49,-20.832 12.25,-38.71 23.04,-53.109 11.28,-15.332 25.7,-27.234 42.93,-35.406 18.18,-8.313 37.52,-10.063 50.55,-10.063 18.68,0 36.2,3.5 50.73,10.149 17.09,8.113 31.45,19.972 42.67,35.215 11.23,14.968 19.22,33.371 23.12,53.203 3.35,15.254 4.9,33.418 4.9,57.144 0,23.809 -1.5,41.258 -4.84,56.481 -3.99,20.32 -11.98,38.926 -23.1,53.754" /><path
         id="path26"
         style="fill:#ec364f;fill-opacity:1;fill-rule:nonzero;stroke:none"
         d="m 2385.45,448.031 v 59.567 H 2194.43 V 206.477 h 191.02 v 59.187 h -130.69 v 66.543 h 116.6 v 59.191 h -116.6 v 56.633 h 130.69" /><path
         id="path28"
         style="fill:#ec364f;fill-opacity:1;fill-rule:nonzero;stroke:none"
         d="m 1876.67,507.598 v -58.422 h 81.15 V 206.477 h 59.94 v 242.699 h 81.16 v 58.422 h -222.25" /></g></g></svg>