<svg xmlns="http://www.w3.org/2000/svg" xmlns:xlink="http://www.w3.org/1999/xlink" xml:space="preserve" version="1.1" x="0px" y="0px" viewBox="0 0 100 100">
<path d="M80,40C80,23.431,66.569,10,50,10S20,23.431,20,40C20,52.417,27.544,63.072,38.299,67.632L39.071,62.488C30.741,58.433,25,49.888,25,40C25,26.193,36.193,15,50,15S75,26.193,75,40C75,49.888,69.259,58.432,60.929,62.488L61.701,67.632C72.456,63.072,80,52.417,80,40Z" stroke="none"/>
<path d="M35,40C35,31.716,41.716,25,50,25S65,31.716,65,40C65,44.76,62.776,48.994,59.317,51.742L60.138,57.218C66.033,53.739,70,47.34,70,40C70,28.954,61.046,20,50,20S30,28.954,30,40C30,47.34,33.967,53.739,39.861,57.218L40.682,51.742C37.224,48.994,35,44.76,35,40Z" stroke="none"/>
<path d="M60,90L53.495,46.633C55.876,45.376,57.5,42.879,57.5,40C57.5,35.858,54.142,32.5,50,32.5S42.5,35.858,42.5,40C42.5,42.879,44.124,45.376,46.505,46.633L40,90L60,90Z" stroke="none"/>
</svg>