<svg xmlns="http://www.w3.org/2000/svg" data-name="Layer 1" viewBox="0 0 24 30" x="0px" y="0px"><path d="M10.061,9.061l.439-.44V12.5a1.5,1.5,0,0,0,3,0V8.621l.439.44a1.5,1.5,0,0,0,2.122-2.122l-3-3a1.515,1.515,0,0,0-2.122,0l-3,3a1.5,1.5,0,0,0,2.122,2.122Z"/><path d="M21,12.5A1.5,1.5,0,0,0,19.5,14v3a.5.5,0,0,1-.5.5H5a.5.5,0,0,1-.5-.5V14a1.5,1.5,0,0,0-3,0v3A3.5,3.5,0,0,0,5,20.5H19A3.5,3.5,0,0,0,22.5,17V14A1.5,1.5,0,0,0,21,12.5Z"/><text x="0" y="39" fill="#000000" font-size="5px" font-weight="bold" font-family="'Helvetica Neue', Helvetica, Arial-Unicode, Arial, Sans-serif">Created by Nira Inds</text><text x="0" y="44" fill="#000000" font-size="5px" font-weight="bold" font-family="'Helvetica Neue', Helvetica, Arial-Unicode, Arial, Sans-serif">from the Noun Project</text></svg>